<svg xmlns="http://www.w3.org/2000/svg" width="31.355" height="36"><defs><style>.cls-1{fill:#fff}</style></defs><g id="Grupo_1" data-name="Grupo 1" transform="translate(-296.823 -1791)"><path id="Subtração_1" d="M17.4 36h-2.25a1.126 1.126 0 0 1-1.125-1.125V31.5a9.96 9.96 0 0 1-6.082-2.11 1.177 1.177 0 0 1-.448-.749l4.419-3.33a4.3 4.3 0 0 0 2.125.564H18.7a2.074 2.074 0 0 0 .583-4.064l-1.962-.574 5.347-4.029a7.8 7.8 0 0 1 3.233 3.89 7.627 7.627 0 0 1 .056 5.277 7.94 7.94 0 0 1-7.432 5.111v3.389A1.126 1.126 0 0 1 17.4 36Zm-6.026-16.539A8.521 8.521 0 0 1 7.84 16.9a7.406 7.406 0 0 1-1.651-3.99 7.624 7.624 0 0 1 1.98-5.9 7.716 7.716 0 0 1 5.684-2.51h.176V1.125A1.126 1.126 0 0 1 15.154 0H17.4a1.126 1.126 0 0 1 1.125 1.125V4.5a9.964 9.964 0 0 1 6.082 2.11 1.177 1.177 0 0 1 .46.863 1.094 1.094 0 0 1-.334.859l-2.447 2.39a1.124 1.124 0 0 1-.78.319 1.054 1.054 0 0 1-.591-.179 4.319 4.319 0 0 0-2.4-.738h-4.662a2.074 2.074 0 0 0-.583 4.064l3.674 1.075-5.569 4.2Z" class="cls-1" data-name="Subtração 1" transform="translate(296.221 1791)"/><rect id="Retângulo_5" width="37" height="3" class="cls-1" data-name="Retângulo 5" rx="1" transform="rotate(-37 2867.03 466.12)"/></g></svg>