<svg xmlns="http://www.w3.org/2000/svg" width="23" height="24" fill="none"><path fill="#88888F" d="M22.17 11.537h-1.4a9.285 9.285 0 0 0-8.662-8.661v-1.4a.592.592 0 1 0-1.184 0v1.4a9.285 9.285 0 0 0-8.661 8.66h-1.4a.592.592 0 1 0 0 1.184h1.4a9.285 9.285 0 0 0 8.661 8.662v1.4a.592.592 0 0 0 1.184 0v-1.4a9.285 9.285 0 0 0 8.661-8.662h1.4a.592.592 0 0 0 0-1.183Zm-10.062 8.656v-1.357a.592.592 0 1 0-1.184 0v1.357a8.098 8.098 0 0 1-7.473-7.473h1.357a.592.592 0 0 0 0-1.183H3.451a8.098 8.098 0 0 1 7.473-7.473V5.42a.592.592 0 0 0 1.184 0V4.064a8.098 8.098 0 0 1 7.473 7.473h-1.357a.592.592 0 1 0 0 1.183h1.357a8.097 8.097 0 0 1-7.473 7.473ZM11.516 8.38a3.749 3.749 0 1 0 0 7.497 3.749 3.749 0 0 0 0-7.497Zm0 6.313a2.565 2.565 0 1 1 0-5.13 2.565 2.565 0 0 1 0 5.13Z"/></svg>