<svg xmlns="http://www.w3.org/2000/svg" width="507" height="70" fill="none"><g filter="url(#a)"><path fill="#F2F2FF" d="M12.534 22.694a4.28 4.28 0 1 0-8.56.03 4.28 4.28 0 0 0 8.56-.03Zm156.241-.552-160.52-.235-.003 1.605 160.52.235.003-1.605Z"/></g><g filter="url(#b)"><path fill="#fff" d="M189.155 20.638c-.057-.573-.301-1.018-.732-1.335-.431-.318-1.015-.476-1.754-.476-.502 0-.926.07-1.271.213-.346.137-.611.329-.796.575-.18.246-.27.526-.27.838-.009.26.045.488.164.682.123.194.291.362.504.504.213.137.459.258.739.362.279.1.577.185.895.256l1.306.313a9.223 9.223 0 0 1 1.748.568 5.3 5.3 0 0 1 1.377.873c.389.346.689.753.902 1.222.218.469.329 1.006.334 1.612-.005.89-.232 1.662-.682 2.316-.445.648-1.089 1.152-1.931 1.512-.839.355-1.849.533-3.033.533-1.174 0-2.197-.18-3.068-.54-.867-.36-1.544-.892-2.032-1.598-.483-.71-.736-1.588-.76-2.635h2.976c.033.488.173.895.419 1.222a2.33 2.33 0 0 0 1.002.731c.421.161.897.242 1.427.242.521 0 .973-.076 1.357-.227.388-.152.689-.363.902-.633.213-.27.319-.58.319-.93a1.21 1.21 0 0 0-.291-.824c-.189-.222-.468-.412-.838-.568a8.509 8.509 0 0 0-1.342-.426l-1.584-.398c-1.226-.298-2.195-.764-2.905-1.399-.71-.634-1.063-1.49-1.058-2.564-.005-.88.23-1.65.703-2.308.478-.658 1.134-1.172 1.967-1.541.834-.37 1.781-.554 2.841-.554 1.08 0 2.022.184 2.827.554.81.369 1.439.883 1.889 1.54.45.659.682 1.421.696 2.288h-2.947ZM194.313 31V20.09h3.025V31h-3.025Zm1.52-12.315c-.45 0-.836-.15-1.158-.448a1.452 1.452 0 0 1-.476-1.086c0-.417.159-.775.476-1.073a1.63 1.63 0 0 1 1.158-.454c.45 0 .833.151 1.15.454.322.298.483.656.483 1.073 0 .421-.161.783-.483 1.086-.317.299-.7.448-1.15.448Zm8.844 16.633c-.98 0-1.821-.135-2.521-.405-.696-.265-1.25-.627-1.662-1.086a3.34 3.34 0 0 1-.803-1.549l2.798-.376c.086.218.221.421.405.61.185.19.429.342.732.455.307.119.682.178 1.122.178.658 0 1.2-.161 1.626-.483.431-.317.647-.85.647-1.598v-1.996h-.128c-.133.303-.332.59-.597.86-.265.27-.606.49-1.023.66-.416.17-.913.256-1.491.256-.819 0-1.565-.19-2.237-.568-.668-.384-1.201-.969-1.598-1.755-.393-.79-.59-1.79-.59-2.997 0-1.236.201-2.268.604-3.096.402-.829.937-1.45 1.605-1.861a4.148 4.148 0 0 1 2.209-.618c.611 0 1.122.104 1.534.312.412.204.743.46.994.767.256.303.452.602.59.895h.113v-1.832h3.005v11.015c0 .929-.228 1.705-.682 2.33-.455.625-1.084 1.094-1.889 1.406-.801.318-1.721.476-2.763.476Zm.064-6.747c.487 0 .899-.12 1.236-.362.34-.246.601-.597.781-1.051.184-.46.277-1.009.277-1.648 0-.64-.09-1.193-.27-1.662-.18-.473-.44-.84-.781-1.1-.341-.261-.756-.392-1.243-.392-.497 0-.916.135-1.257.405-.341.265-.599.635-.774 1.108-.176.474-.263 1.02-.263 1.64 0 .63.087 1.175.263 1.634.179.455.437.808.774 1.059.341.246.76.369 1.257.369Zm10.703-3.878V31h-3.026V20.09h2.884v1.926h.128a3.042 3.042 0 0 1 1.214-1.506c.568-.374 1.257-.561 2.067-.561.758 0 1.418.166 1.981.497a3.373 3.373 0 0 1 1.314 1.42c.313.611.469 1.34.469 2.188V31h-3.025v-6.406c.004-.668-.166-1.189-.512-1.563-.345-.378-.821-.568-1.427-.568a2.17 2.17 0 0 0-1.08.263c-.308.175-.549.43-.724.767-.171.331-.258.731-.263 1.2Zm12.527 6.513c-.696 0-1.317-.12-1.861-.362a2.993 2.993 0 0 1-1.293-1.087c-.312-.483-.469-1.084-.469-1.804 0-.606.112-1.115.334-1.527.223-.412.526-.743.909-.994.384-.251.819-.44 1.307-.568a9.98 9.98 0 0 1 1.548-.27 39.038 39.038 0 0 0 1.534-.185c.389-.061.67-.151.846-.27.175-.118.262-.293.262-.525v-.043c0-.45-.142-.798-.426-1.044-.279-.246-.677-.37-1.193-.37-.544 0-.978.121-1.3.363a1.665 1.665 0 0 0-.639.895l-2.798-.227a3.798 3.798 0 0 1 .838-1.72c.417-.487.954-.861 1.612-1.121.663-.266 1.43-.398 2.301-.398.606 0 1.186.07 1.74.213a4.555 4.555 0 0 1 1.485.66c.435.299.779.682 1.03 1.151.251.464.376 1.02.376 1.669V31h-2.869v-1.513h-.086c-.175.341-.409.642-.703.902a3.247 3.247 0 0 1-1.058.604c-.412.142-.888.213-1.427.213Zm.866-2.088c.445 0 .838-.088 1.179-.263.341-.18.608-.421.803-.724.194-.303.291-.647.291-1.03v-1.158a1.624 1.624 0 0 1-.391.17 7.053 7.053 0 0 1-.547.136c-.203.038-.407.073-.611.106l-.554.078a3.741 3.741 0 0 0-.93.249 1.49 1.49 0 0 0-.618.462c-.147.189-.22.426-.22.71 0 .412.149.727.447.944.303.213.687.32 1.151.32Zm10.65-12.663V31h-3.026V16.454h3.026Z"/><path fill="#F2F2FF" d="M185.676 55h-4.238V41.91h4.372c1.283 0 2.385.261 3.305.785.921.52 1.626 1.268 2.116 2.244.494.971.741 2.137.741 3.496 0 1.364-.249 2.536-.748 3.516a5.248 5.248 0 0 1-2.147 2.263c-.938.524-2.071.786-3.401.786Zm-2.263-1.726h2.154c.998 0 1.826-.187 2.487-.562a3.547 3.547 0 0 0 1.483-1.643c.328-.72.492-1.598.492-2.634 0-1.027-.164-1.898-.492-2.614-.324-.716-.808-1.26-1.451-1.63-.644-.37-1.443-.556-2.397-.556h-2.276v9.64ZM194.32 55v-9.818h1.911V55h-1.911Zm.965-11.333c-.332 0-.618-.11-.856-.333a1.079 1.079 0 0 1-.352-.805c0-.315.117-.584.352-.805.238-.226.524-.34.856-.34.333 0 .616.114.85.34.239.221.358.49.358.805 0 .311-.119.58-.358.805a1.19 1.19 0 0 1-.85.333ZM198.847 55v-9.818h1.848v1.56h.102c.179-.529.494-.944.946-1.247.456-.307.972-.46 1.547-.46a8.214 8.214 0 0 1 .812.045v1.828a3.424 3.424 0 0 0-.409-.07 3.894 3.894 0 0 0-.588-.045c-.452 0-.855.096-1.209.287a2.13 2.13 0 0 0-1.137 1.924V55h-1.912Zm10.834.198c-.968 0-1.801-.206-2.5-.62a4.206 4.206 0 0 1-1.61-1.758c-.375-.758-.563-1.647-.563-2.665 0-1.006.188-1.892.563-2.66.379-.766.907-1.365 1.585-1.795.682-.43 1.478-.646 2.39-.646.554 0 1.091.092 1.611.275.52.183.987.47 1.4.863.413.392.739.901.978 1.527.239.623.358 1.379.358 2.27v.677h-7.805v-1.432h5.932c0-.503-.102-.948-.307-1.336a2.314 2.314 0 0 0-.863-.926c-.366-.226-.796-.34-1.291-.34-.537 0-1.005.133-1.406.397-.396.26-.703.601-.921 1.023a2.953 2.953 0 0 0-.319 1.361v1.119c0 .656.115 1.214.345 1.675.234.46.56.812.978 1.054.418.239.906.358 1.464.358.362 0 .692-.05.991-.153.298-.107.556-.264.773-.473.217-.209.384-.467.499-.774l1.809.326c-.145.533-.405 1-.78 1.4a3.786 3.786 0 0 1-1.4.927c-.558.218-1.195.326-1.911.326Zm10.513 0c-.95 0-1.768-.215-2.454-.645a4.278 4.278 0 0 1-1.573-1.797c-.366-.762-.549-1.636-.549-2.62 0-.998.187-1.878.562-2.64.375-.767.903-1.366 1.585-1.796.682-.43 1.485-.646 2.41-.646.746 0 1.411.139 1.994.415a3.577 3.577 0 0 1 1.413 1.151c.362.494.577 1.072.646 1.732h-1.86a2.231 2.231 0 0 0-.704-1.189c-.362-.332-.848-.498-1.457-.498-.533 0-.999.14-1.4.422-.396.277-.705.673-.927 1.189-.221.51-.332 1.116-.332 1.815 0 .716.109 1.334.326 1.854.217.52.524.922.92 1.208.401.285.872.428 1.413.428.362 0 .69-.066.984-.198.299-.137.548-.33.748-.582.205-.251.348-.554.429-.907h1.86a3.625 3.625 0 0 1-.62 1.7c-.346.498-.808.89-1.388 1.176-.575.285-1.25.428-2.026.428ZM230.9 45.182v1.534h-5.363v-1.534h5.363Zm-3.925-2.352h1.911v9.287c0 .37.055.65.166.838a.868.868 0 0 0 .429.377c.178.064.372.096.581.096.154 0 .288-.011.403-.032l.268-.052.346 1.58a3.241 3.241 0 0 1-.473.127 3.75 3.75 0 0 1-.768.077 3.366 3.366 0 0 1-1.406-.269 2.412 2.412 0 0 1-1.054-.869c-.269-.392-.403-.884-.403-1.477V42.83ZM233.059 55v-9.818h1.911V55h-1.911Zm.965-11.333c-.332 0-.618-.11-.857-.333a1.081 1.081 0 0 1-.351-.805c0-.315.117-.584.351-.805.239-.226.525-.34.857-.34.332 0 .616.114.85.34.239.221.358.49.358.805 0 .311-.119.58-.358.805a1.192 1.192 0 0 1-.85.333Zm7.698 11.531c-.921 0-1.724-.21-2.41-.633a4.265 4.265 0 0 1-1.598-1.77c-.379-.759-.569-1.645-.569-2.66 0-1.018.19-1.908.569-2.671.379-.763.912-1.355 1.598-1.777.686-.422 1.489-.633 2.41-.633.92 0 1.724.21 2.41.633.686.422 1.218 1.014 1.598 1.777.379.763.568 1.653.568 2.672 0 1.014-.189 1.9-.568 2.659a4.272 4.272 0 0 1-1.598 1.77c-.686.422-1.49.633-2.41.633Zm.006-1.604c.597 0 1.091-.158 1.483-.473.392-.316.682-.735.869-1.26a5.002 5.002 0 0 0 .288-1.732c0-.626-.096-1.201-.288-1.726-.187-.528-.477-.952-.869-1.272-.392-.32-.886-.479-1.483-.479-.601 0-1.099.16-1.496.48-.392.319-.684.743-.875 1.271a5.079 5.079 0 0 0-.282 1.726c0 .63.094 1.208.282 1.733.191.524.483.943.875 1.259.397.315.895.473 1.496.473Zm8.66-4.424V55h-1.911v-9.818h1.834v1.598h.122c.226-.52.579-.938 1.061-1.253.486-.315 1.097-.473 1.834-.473.669 0 1.255.14 1.758.422.503.277.893.69 1.17 1.24.277.55.415 1.23.415 2.039V55h-1.911v-6.015c0-.712-.185-1.268-.556-1.668-.371-.405-.88-.608-1.528-.608-.443 0-.837.096-1.182.288a2.066 2.066 0 0 0-.812.844c-.196.366-.294.81-.294 1.33Zm24.727-3.004h-1.995a3.034 3.034 0 0 0-1.195-1.95 3.308 3.308 0 0 0-1.016-.51 3.97 3.97 0 0 0-1.183-.173c-.754 0-1.43.19-2.026.569-.593.379-1.061.935-1.406 1.668-.341.733-.512 1.628-.512 2.684 0 1.066.171 1.965.512 2.698.345.733.816 1.287 1.412 1.662a3.707 3.707 0 0 0 2.014.562c.413 0 .805-.055 1.176-.166a3.38 3.38 0 0 0 1.016-.505 3.062 3.062 0 0 0 1.208-1.924l1.995.007a5.369 5.369 0 0 1-.62 1.777 4.915 4.915 0 0 1-1.17 1.393 5.285 5.285 0 0 1-1.624.901 6.003 6.003 0 0 1-1.994.32c-1.134 0-2.144-.269-3.03-.805-.886-.542-1.585-1.315-2.096-2.32-.508-1.006-.761-2.206-.761-3.6 0-1.397.256-2.597.767-3.598.511-1.006 1.21-1.777 2.096-2.314.887-.541 1.895-.812 3.024-.812.695 0 1.342.1 1.943.3a5.125 5.125 0 0 1 1.63.87c.482.38.88.844 1.195 1.393.316.546.529 1.17.64 1.873ZM278.541 55h-2.097l4.711-13.09h2.282L288.148 55h-2.096l-3.701-10.713h-.103L278.541 55Zm.352-5.126h6.801v1.661h-6.801v-1.661ZM290.084 55V41.91h1.975V53.3h5.932V55h-7.907Zm10.205 0V41.91h1.975V53.3h5.932V55h-7.907Zm18.996.198c-.921 0-1.724-.21-2.41-.633a4.265 4.265 0 0 1-1.598-1.77c-.379-.759-.569-1.645-.569-2.66 0-1.018.19-1.908.569-2.671.379-.763.912-1.355 1.598-1.777.686-.422 1.489-.633 2.41-.633.92 0 1.724.21 2.41.633.686.422 1.218 1.014 1.598 1.777.379.763.569 1.653.569 2.672 0 1.014-.19 1.9-.569 2.659a4.272 4.272 0 0 1-1.598 1.77c-.686.422-1.49.633-2.41.633Zm.006-1.604c.597 0 1.091-.158 1.483-.473.392-.316.682-.735.87-1.26a5.026 5.026 0 0 0 .287-1.732c0-.626-.096-1.201-.287-1.726-.188-.528-.478-.952-.87-1.272-.392-.32-.886-.479-1.483-.479-.601 0-1.099.16-1.495.48-.392.319-.684.743-.876 1.271a5.08 5.08 0 0 0-.281 1.726c0 .63.093 1.208.281 1.733.192.524.484.943.876 1.259.396.315.894.473 1.495.473ZM326.04 55v-9.818h1.847v1.56h.103c.179-.529.494-.944.946-1.247.456-.307.971-.46 1.546-.46a8.181 8.181 0 0 1 .812.045v1.828a3.386 3.386 0 0 0-.409-.07 3.894 3.894 0 0 0-.588-.045c-.452 0-.854.096-1.208.287a2.143 2.143 0 0 0-1.138 1.924V55h-1.911Zm11.915 0V41.91h4.666c1.019 0 1.863.184 2.532.555.669.37 1.169.878 1.502 1.521.332.64.498 1.36.498 2.161 0 .805-.168 1.53-.505 2.173-.332.64-.835 1.147-1.508 1.522-.669.37-1.511.556-2.525.556h-3.209v-1.675h3.03c.644 0 1.166-.11 1.566-.332.401-.226.695-.533.882-.92.188-.389.281-.83.281-1.324 0-.494-.093-.933-.281-1.317a2.012 2.012 0 0 0-.888-.901c-.401-.217-.929-.326-1.586-.326h-2.48V55h-1.975Zm19.977-13.09h1.982v8.61c0 .915-.215 1.727-.646 2.434-.43.704-1.035 1.258-1.815 1.663-.78.4-1.694.6-2.742.6-1.044 0-1.956-.2-2.736-.6-.78-.405-1.385-.96-1.815-1.662-.431-.708-.646-1.52-.646-2.436v-8.61h1.975v8.45c0 .593.13 1.119.39 1.58.264.46.637.822 1.119 1.086.481.26 1.052.39 1.713.39.664 0 1.238-.13 1.719-.39a2.728 2.728 0 0 0 1.112-1.087c.26-.46.39-.986.39-1.579v-8.45Zm4.253 1.7v-1.7h10.131v1.7h-4.084V55h-1.969V43.61h-4.078Z"/></g><defs><filter id="a" width="171.222" height="14.982" x=".763" y="18.429" color-interpolation-filters="sRGB" filterUnits="userSpaceOnUse"><feFlood flood-opacity="0" result="BackgroundImageFix"/><feColorMatrix in="SourceAlpha" result="hardAlpha" values="0 0 0 0 0 0 0 0 0 0 0 0 0 0 0 0 0 0 127 0"/><feOffset dy="3.21"/><feGaussianBlur stdDeviation="1.605"/><feComposite in2="hardAlpha" operator="out"/><feColorMatrix values="0 0 0 0 0 0 0 0 0 0 0 0 0 0 0 0 0 0 0.25 0"/><feBlend in2="BackgroundImageFix" result="effect1_dropShadow_27_113"/><feColorMatrix in="SourceAlpha" result="hardAlpha" values="0 0 0 0 0 0 0 0 0 0 0 0 0 0 0 0 0 0 127 0"/><feOffset dy="3.21"/><feGaussianBlur stdDeviation="1.605"/><feComposite in2="hardAlpha" operator="out"/><feColorMatrix values="0 0 0 0 0 0 0 0 0 0 0 0 0 0 0 0 0 0 0.25 0"/><feBlend in2="effect1_dropShadow_27_113" result="effect2_dropShadow_27_113"/><feBlend in="SourceGraphic" in2="effect2_dropShadow_27_113" result="shape"/></filter><filter id="b" width="197.942" height="46.014" x="177.585" y="15.624" color-interpolation-filters="sRGB" filterUnits="userSpaceOnUse"><feFlood flood-opacity="0" result="BackgroundImageFix"/><feColorMatrix in="SourceAlpha" result="hardAlpha" values="0 0 0 0 0 0 0 0 0 0 0 0 0 0 0 0 0 0 127 0"/><feOffset dy="3.21"/><feGaussianBlur stdDeviation="1.605"/><feComposite in2="hardAlpha" operator="out"/><feColorMatrix values="0 0 0 0 0 0 0 0 0 0 0 0 0 0 0 0 0 0 0.25 0"/><feBlend in2="BackgroundImageFix" result="effect1_dropShadow_27_113"/><feBlend in="SourceGraphic" in2="effect1_dropShadow_27_113" result="shape"/></filter></defs></svg>