<svg xmlns="http://www.w3.org/2000/svg" width="13" height="12" fill="none"><path fill="#fff" fill-rule="evenodd" d="M6.296.028C3.057.028.451 2.628.451 5.86c0 2.576 1.68 4.763 3.994 5.54.293.05.39-.121.39-.291v-.996c-1.632.364-1.973-.778-1.973-.778-.268-.68-.657-.85-.657-.85-.536-.365.048-.365.048-.365.585.049.901.608.901.608.512.899 1.364.631 1.705.486.049-.39.195-.632.366-.778C3.934 8.29 2.57 7.78 2.57 5.544c0-.631.22-1.166.609-1.555-.049-.146-.268-.729.049-1.555 0 0 .487-.146 1.607.607a5.881 5.881 0 0 1 1.461-.194c.487 0 .999.073 1.461.194 1.12-.753 1.608-.607 1.608-.607.316.802.122 1.385.049 1.555.365.413.608.924.608 1.555 0 2.236-1.363 2.722-2.679 2.868.22.17.39.534.39 1.069v1.604c0 .145.098.34.414.291a5.804 5.804 0 0 0 3.994-5.516A5.824 5.824 0 0 0 6.296.028Z" clip-rule="evenodd"/></svg>