<svg xmlns="http://www.w3.org/2000/svg" width="45" height="27.01"><path d="M30.565 4.5h-6.04a2.249 2.249 0 0 0-1.519.591l-6.912 6.328c-.007.007-.014.021-.021.028a2.8 2.8 0 0 0-.148 3.938 2.933 2.933 0 0 0 3.945.19c.007-.007.021-.007.028-.014l5.618-5.147a1.125 1.125 0 0 1 1.519 1.659l-1.835 1.68 10.237 8.311a5.066 5.066 0 0 1 .555.541V9l-3.838-3.839a2.234 2.234 0 0 0-1.589-.661Zm7.685 4.514v15.743a2.248 2.248 0 0 0 2.25 2.25H45V9.014Zm3.375 15.743a1.125 1.125 0 1 1 1.125-1.125 1.128 1.128 0 0 1-1.125 1.125ZM0 27h4.5a2.248 2.248 0 0 0 2.25-2.25V9.014H0Zm3.375-4.493a1.125 1.125 0 1 1-1.125 1.125 1.128 1.128 0 0 1 1.125-1.125Zm30.649 1.308-10.5-8.522-2.109 1.934a5.061 5.061 0 0 1-6.841-7.46L20.327 4.5h-5.892a2.246 2.246 0 0 0-1.589.661L9 9v15.743h1.287L16.65 30.5a4.5 4.5 0 0 0 6.328-.654l.014-.014 1.259 1.09a2.613 2.613 0 0 0 3.677-.38l2.208-2.714.38.309a2.246 2.246 0 0 0 3.164-.33l.668-.823a2.254 2.254 0 0 0-.323-3.171Z" data-name="Icon awesome-handshake" style="fill:#fff" transform="translate(0 -4.5)"/></svg>