<svg xmlns="http://www.w3.org/2000/svg" width="30" height="19" fill="none"><path fill="#88888F" d="M13.85 13.339a7.1 7.1 0 1 0-6.986 0 11.534 11.534 0 0 0-5.92 4.343.734.734 0 0 0 1.2.845 10.038 10.038 0 0 1 16.425 0 .735.735 0 1 0 1.201-.846 11.533 11.533 0 0 0-5.92-4.342ZM4.728 7.163a5.63 5.63 0 1 1 5.63 5.63 5.637 5.637 0 0 1-5.63-5.63Zm24.844 11.541a.735.735 0 0 1-1.024-.177 10.058 10.058 0 0 0-8.212-4.265.734.734 0 0 1 0-1.47 5.629 5.629 0 1 0-1.528-11.05.734.734 0 0 1-.398-1.414 7.098 7.098 0 0 1 5.42 13.01 11.534 11.534 0 0 1 5.92 4.343.734.734 0 0 1-.178 1.023Z"/></svg>