<svg xmlns="http://www.w3.org/2000/svg" width="12" height="12" fill="none" viewBox="0 0 12 12"><path fill="#161F35" d="M6.00033 0.0673523C4.39012 0.0673523 4.18517 0.073921 3.55326 0.104137C2.92135 0.134791 2.49088 0.232008 2.11428 0.380023C1.72453 0.531103 1.39172 0.732982 1.06241 1.0658C0.73266 1.39511 0.531219 1.72792 0.376635 2.11767C0.22862 2.49427 0.1279 2.92781 0.10075 3.55665C0.0740369 4.18856 0.0639648 4.39 0.0639648 6.00372C0.0639648 7.61349 0.0705336 7.81537 0.10075 8.45078C0.131404 9.08269 0.22862 9.51272 0.376635 9.88933C0.527716 10.2791 0.729594 10.6119 1.06241 10.9416C1.39172 11.2709 1.72453 11.4759 2.11428 11.627C2.49088 11.775 2.92442 11.8726 3.55326 11.9029C4.18517 11.9331 4.38661 11.9396 6.00033 11.9396C7.6101 11.9396 7.81198 11.9331 8.44739 11.9029C9.0793 11.8726 9.50933 11.775 9.88944 11.627C10.2792 11.4759 10.6085 11.2709 10.9382 10.9416C11.2676 10.6119 11.469 10.2791 11.6236 9.88933C11.7681 9.51272 11.8693 9.08269 11.8995 8.45078C11.9262 7.81887 11.9363 7.61699 11.9363 6.00372C11.9363 4.39351 11.9297 4.19163 11.8995 3.55665C11.8693 2.92474 11.7681 2.49427 11.6236 2.11767C11.4725 1.72792 11.2676 1.39511 10.9382 1.0658C10.6085 0.736485 10.2792 0.534607 9.88594 0.380023C9.50627 0.232008 9.0758 0.134791 8.44389 0.104137C7.81198 0.073921 7.6101 0.0673523 6.00033 0.0673523ZM5.46914 1.1363C5.62723 1.1363 5.80195 1.1363 6.00033 1.1363C7.58339 1.1363 7.77169 1.14287 8.39703 1.17002C8.97508 1.19673 9.28775 1.29439 9.49926 1.37496C9.77515 1.48269 9.97352 1.61012 10.1815 1.81857C10.39 2.02702 10.5178 2.22539 10.6256 2.50084C10.7062 2.70929 10.8038 3.02546 10.8305 3.60351C10.8572 4.22885 10.8642 4.41715 10.8642 6.00021C10.8642 7.58327 10.8572 7.77157 10.8305 8.39692C10.8038 8.97496 10.7062 9.28763 10.6256 9.49958C10.5178 9.77503 10.39 9.97341 10.1815 10.1819C9.97352 10.3903 9.77821 10.5177 9.49926 10.6255C9.29081 10.706 8.97508 10.8037 8.39703 10.8304C7.77169 10.8576 7.58339 10.8641 6.00033 10.8641C4.41683 10.8641 4.22853 10.8576 3.60362 10.8304C3.02514 10.8037 2.71291 10.706 2.50096 10.6255C2.22551 10.5177 2.02713 10.3903 1.81869 10.1819C1.61024 9.97341 1.48237 9.77503 1.37508 9.49958C1.29407 9.29114 1.19685 8.97496 1.1697 8.39692C1.14299 7.77157 1.13642 7.58327 1.13642 6.00021C1.13642 4.41715 1.14299 4.22885 1.1697 3.60351C1.19685 3.02546 1.29407 2.71279 1.37508 2.50084C1.48237 2.22539 1.61024 2.02702 1.81869 1.81857C2.02713 1.61012 2.22551 1.48269 2.50096 1.37496C2.7094 1.29439 3.02514 1.19673 3.60362 1.17002C4.15145 1.14287 4.36297 1.1363 5.46914 1.1363ZM9.16645 2.12117C8.7732 2.12117 8.45396 2.44041 8.45396 2.83366C8.45396 3.2269 8.7732 3.54658 9.16645 3.54658C9.55969 3.54658 9.87937 3.2269 9.87937 2.83366C9.87937 2.44041 9.55969 2.12117 9.16645 2.12117ZM6.00033 2.95496C4.31611 2.95496 2.95464 4.3195 2.95464 6.00021C2.95464 7.68443 4.31961 9.04547 6.00033 9.04547C7.68411 9.04547 9.04558 7.68093 9.04558 6.00021C9.04558 4.31599 7.68411 2.95496 6.00033 2.95496ZM6.00033 4.02391C7.09249 4.02391 7.97663 4.90762 7.97663 6.00021C7.97663 7.09281 7.09249 7.97652 6.00033 7.97652C4.90773 7.97652 4.02358 7.09281 4.02358 6.00021C4.02358 4.90762 4.90773 4.02391 6.00033 4.02391Z"/></svg>