<svg xmlns="http://www.w3.org/2000/svg" width="13" height="13" fill="none"><path fill="#fff" d="M6.668 1.127c1.631 0 1.824.006 2.469.035.387.005.771.076 1.135.21a2.024 2.024 0 0 1 1.16 1.157c.134.363.205.746.21 1.133.03.643.036.836.036 2.463 0 1.628-.007 1.821-.036 2.464-.005.387-.076.77-.21 1.132a2.018 2.018 0 0 1-1.16 1.158 3.395 3.395 0 0 1-1.135.21c-.644.028-.837.035-2.47.035-1.631 0-1.824-.006-2.468-.036a3.395 3.395 0 0 1-1.135-.21 2.022 2.022 0 0 1-1.16-1.157 3.376 3.376 0 0 1-.21-1.132c-.03-.643-.036-.836-.036-2.464 0-1.627.006-1.82.036-2.463.004-.387.075-.77.21-1.133a2.019 2.019 0 0 1 1.16-1.157 3.397 3.397 0 0 1 1.135-.21c.644-.029.837-.035 2.469-.035Zm0-1.099c-1.659 0-1.868.007-2.52.037a4.495 4.495 0 0 0-1.483.283 2.994 2.994 0 0 0-1.082.704 2.986 2.986 0 0 0-.706 1.08 4.467 4.467 0 0 0-.284 1.48c-.029.65-.036.858-.036 2.513 0 1.655.007 1.863.037 2.514.01.506.106 1.006.284 1.48.153.407.394.776.705 1.08.305.31.674.55 1.082.704.475.177.977.273 1.484.283.652.029.86.036 2.52.036 1.659 0 1.867-.006 2.519-.036a4.496 4.496 0 0 0 1.484-.284 3.127 3.127 0 0 0 1.786-1.783c.178-.474.274-.975.284-1.48.03-.65.036-.86.036-2.514 0-1.655-.007-1.863-.036-2.514a4.467 4.467 0 0 0-.284-1.48 2.987 2.987 0 0 0-.705-1.08A2.994 2.994 0 0 0 10.67.348 4.495 4.495 0 0 0 9.186.064c-.65-.029-.86-.036-2.518-.036Z"/><path fill="#fff" d="M6.67 2.996a3.143 3.143 0 0 0-2.9 1.932 3.124 3.124 0 0 0 .68 3.412 3.14 3.14 0 0 0 5.357-2.214c0-.83-.33-1.626-.919-2.213a3.141 3.141 0 0 0-2.219-.917Zm0 5.163a2.04 2.04 0 0 1-1.883-1.255A2.028 2.028 0 0 1 5.23 4.69a2.038 2.038 0 0 1 3.477 1.437 2.03 2.03 0 0 1-.597 1.437 2.04 2.04 0 0 1-1.44.596ZM9.93 3.602a.732.732 0 1 0 .002-1.464.732.732 0 0 0-.002 1.464Z"/></svg>