<svg xmlns="http://www.w3.org/2000/svg" xmlns:xlink="http://www.w3.org/1999/xlink" id="Camada_1" x="0" y="0" version="1.1" viewBox="0 0 304 46.6" style="enable-background:new 0 0 304 46.6" xml:space="preserve"><style type="text/css">.st0{fill:#fff}.st1{fill:#ff7a27}</style><path d="M51.3,33.1V14.9h8.5c2.2,0,3.8,0.4,5,1.3c1.1,0.8,1.7,2,1.7,3.4c0,1-0.2,1.8-0.7,2.5c-0.5,0.7-1.1,1.2-1.8,1.6	c-0.7,0.4-1.6,0.5-2.4,0.5l0.5-0.9c1,0,1.9,0.2,2.8,0.6c0.8,0.4,1.5,0.9,1.9,1.6c0.5,0.7,0.7,1.6,0.7,2.7c0,1.6-0.6,2.8-1.8,3.6	s-3,1.3-5.3,1.3H51.3z M54.7,30.4h5.5c1.3,0,2.2-0.2,2.9-0.6c0.7-0.4,1-1.1,1-2c0-0.9-0.3-1.6-1-2c-0.7-0.4-1.6-0.6-2.9-0.6h-5.7	v-2.6h5c1.2,0,2.1-0.2,2.7-0.6c0.6-0.4,1-1,1-1.9c0-0.8-0.3-1.5-1-1.9c-0.6-0.4-1.5-0.6-2.7-0.6h-4.8V30.4z M72.1,33.1V19.2h3.2	v13.9H72.1z M73.7,16.9c-0.6,0-1.1-0.2-1.5-0.6c-0.4-0.4-0.6-0.8-0.6-1.4c0-0.6,0.2-1,0.6-1.4c0.4-0.4,0.9-0.6,1.5-0.6	c0.6,0,1.1,0.2,1.5,0.5c0.4,0.3,0.6,0.8,0.6,1.3c0,0.6-0.2,1.1-0.6,1.5C74.9,16.7,74.4,16.9,73.7,16.9z M88.8,19	c1.1,0,2.1,0.2,3,0.7c0.9,0.4,1.6,1.1,2.1,2c0.5,0.9,0.8,2,0.8,3.4v8h-3.2v-7.5c0-1.2-0.3-2.1-0.9-2.8c-0.6-0.6-1.4-0.9-2.4-0.9	c-0.8,0-1.4,0.2-2,0.5s-1,0.8-1.4,1.4c-0.3,0.6-0.5,1.4-0.5,2.3v7h-3.2V19.2H84v3.7l-0.5-1.1c0.5-0.9,1.2-1.6,2.1-2	C86.5,19.3,87.6,19,88.8,19z M108.6,33.1v-2.8l-0.2-0.6v-4.9c0-1-0.3-1.7-0.9-2.2c-0.6-0.5-1.4-0.8-2.6-0.8c-0.8,0-1.6,0.1-2.3,0.4	c-0.7,0.2-1.4,0.6-1.9,1l-1.3-2.4c0.7-0.6,1.6-1,2.7-1.3c1-0.3,2.1-0.4,3.2-0.4c2,0,3.6,0.5,4.7,1.5c1.1,1,1.7,2.4,1.7,4.4v8.1	H108.6z M104.2,33.2c-1,0-1.9-0.2-2.7-0.5c-0.8-0.4-1.4-0.9-1.8-1.5c-0.4-0.6-0.6-1.4-0.6-2.2c0-0.8,0.2-1.5,0.5-2.1	c0.4-0.6,1-1.1,1.8-1.5c0.8-0.4,2-0.5,3.4-0.5h4v2.2H105c-1.1,0-1.9,0.2-2.2,0.5c-0.4,0.3-0.6,0.8-0.6,1.3c0,0.6,0.2,1.1,0.7,1.4	c0.5,0.3,1.1,0.5,2,0.5c0.8,0,1.5-0.2,2.1-0.5c0.6-0.4,1.1-0.9,1.4-1.6l0.5,2c-0.3,0.8-0.9,1.4-1.7,1.9	C106.5,33,105.4,33.2,104.2,33.2z M117.1,33.1V19.2h3.1V23l-0.4-1.1c0.4-0.9,1.1-1.6,1.9-2.1c0.9-0.5,2-0.7,3.4-0.7v3.1	c-0.1,0-0.3-0.1-0.4-0.1c-0.1,0-0.2,0-0.4,0c-1.2,0-2.2,0.4-2.9,1.1c-0.7,0.7-1.1,1.8-1.1,3.2v6.7H117.1z M130.9,38.3	c-0.7,0-1.4-0.1-2-0.3c-0.7-0.2-1.2-0.5-1.7-0.9l1.3-2.4c0.3,0.3,0.7,0.5,1.1,0.7c0.4,0.2,0.8,0.3,1.3,0.3c0.6,0,1.1-0.1,1.4-0.4	c0.4-0.3,0.7-0.8,1-1.5l0.8-1.8l0.3-0.4l5.3-12.3h3.1l-6.5,15c-0.4,1-0.9,1.9-1.5,2.5c-0.5,0.6-1.1,1-1.8,1.3	C132.3,38.2,131.6,38.3,130.9,38.3z M133.7,33.6l-6.3-14.4h3.4l5.1,12L133.7,33.6z M149.3,33.1V17.7h-6v-2.9h15.4v2.9h-6v15.3H149.3	z M161.9,33.1V19.2h3.1V23l-0.4-1.1c0.4-0.9,1.1-1.6,1.9-2.1c0.9-0.5,2-0.7,3.4-0.7v3.1c-0.1,0-0.3-0.1-0.4-0.1c-0.1,0-0.2,0-0.4,0	c-1.2,0-2.2,0.4-2.9,1.1c-0.7,0.7-1.1,1.8-1.1,3.2v6.7H161.9z M181.5,33.1v-2.8l-0.2-0.6v-4.9c0-1-0.3-1.7-0.9-2.2	c-0.6-0.5-1.4-0.8-2.6-0.8c-0.8,0-1.6,0.1-2.3,0.4c-0.7,0.2-1.4,0.6-1.9,1l-1.3-2.4c0.7-0.6,1.6-1,2.7-1.3c1-0.3,2.1-0.4,3.2-0.4	c2,0,3.6,0.5,4.7,1.5c1.1,1,1.7,2.4,1.7,4.4v8.1H181.5z M177.2,33.2c-1,0-1.9-0.2-2.7-0.5c-0.8-0.4-1.4-0.9-1.8-1.5	c-0.4-0.6-0.6-1.4-0.6-2.2c0-0.8,0.2-1.5,0.5-2.1c0.4-0.6,1-1.1,1.8-1.5c0.8-0.4,2-0.5,3.4-0.5h4v2.2H178c-1.1,0-1.9,0.2-2.2,0.5	c-0.4,0.3-0.6,0.8-0.6,1.3c0,0.6,0.2,1.1,0.7,1.4c0.5,0.3,1.1,0.5,1.9,0.5c0.8,0,1.5-0.2,2.1-0.5c0.6-0.4,1.1-0.9,1.4-1.6l0.5,2	c-0.3,0.8-0.9,1.4-1.7,1.9C179.4,33,178.4,33.2,177.2,33.2z M196,33.2c-1.3,0-2.5-0.3-3.6-0.9c-1.1-0.6-1.9-1.4-2.5-2.5	c-0.6-1.1-0.9-2.3-0.9-3.7c0-1.4,0.3-2.7,0.9-3.7c0.6-1.1,1.4-1.9,2.5-2.5c1.1-0.6,2.3-0.9,3.6-0.9c1.2,0,2.2,0.3,3.1,0.8	c0.9,0.5,1.6,1.3,2.2,2.3c0.5,1,0.8,2.4,0.8,4c0,1.6-0.3,2.9-0.8,4c-0.5,1-1.2,1.8-2.2,2.3C198.2,33,197.2,33.2,196,33.2z M196.4,30.5c0.8,0,1.5-0.2,2.1-0.5c0.6-0.3,1.1-0.8,1.5-1.5c0.4-0.7,0.6-1.4,0.6-2.3c0-0.9-0.2-1.7-0.6-2.3	c-0.4-0.7-0.9-1.2-1.5-1.5c-0.6-0.3-1.3-0.5-2.1-0.5s-1.5,0.2-2.1,0.5c-0.6,0.3-1.1,0.8-1.5,1.5c-0.4,0.6-0.5,1.4-0.5,2.3	c0,0.9,0.2,1.7,0.5,2.3c0.4,0.7,0.9,1.2,1.5,1.5C194.9,30.3,195.6,30.5,196.4,30.5z M200.6,33.1v-3.3l0.1-3.7l-0.3-3.7v-8.6h3.2	v19.3H200.6z M215.8,33.2c-1.5,0-2.9-0.3-4.1-0.9c-1.1-0.6-2-1.5-2.7-2.5c-0.6-1.1-0.9-2.3-0.9-3.7c0-1.4,0.3-2.6,0.9-3.7	c0.6-1.1,1.5-1.9,2.5-2.5c1.1-0.6,2.3-0.9,3.7-0.9c1.4,0,2.6,0.3,3.6,0.9c1.1,0.6,1.9,1.4,2.5,2.5c0.6,1.1,0.9,2.3,0.9,3.8	c0,0.1,0,0.3,0,0.5c0,0.2,0,0.3,0,0.5h-11.6V25h9.9l-1.3,0.7c0-0.8-0.1-1.5-0.5-2.1c-0.3-0.6-0.8-1.1-1.4-1.4	c-0.6-0.3-1.3-0.5-2.1-0.5c-0.8,0-1.5,0.2-2.1,0.5c-0.6,0.3-1.1,0.8-1.4,1.5c-0.3,0.6-0.5,1.3-0.5,2.2v0.5c0,0.8,0.2,1.6,0.6,2.2	s0.9,1.1,1.6,1.5c0.7,0.3,1.5,0.5,2.4,0.5c0.8,0,1.5-0.1,2.1-0.4s1.2-0.6,1.7-1.1l1.7,2c-0.6,0.7-1.4,1.3-2.4,1.7	C218.1,33.1,217,33.2,215.8,33.2z M226.7,33.1V19.2h3.1V23l-0.4-1.1c0.4-0.9,1.1-1.6,1.9-2.1c0.9-0.5,2-0.7,3.4-0.7v3.1	c-0.1,0-0.3-0.1-0.4-0.1c-0.1,0-0.2,0-0.4,0c-1.2,0-2.2,0.4-2.9,1.1c-0.7,0.7-1.1,1.8-1.1,3.2v6.7H226.7z M243.2,33.2	c-1.2,0-2.3-0.1-3.4-0.4c-1.1-0.3-1.9-0.7-2.5-1.1l1.2-2.5c0.6,0.4,1.4,0.7,2.2,1c0.9,0.3,1.7,0.4,2.6,0.4c1,0,1.8-0.1,2.2-0.4	c0.5-0.3,0.7-0.6,0.7-1.1c0-0.4-0.2-0.7-0.5-0.9c-0.3-0.2-0.7-0.4-1.2-0.5c-0.5-0.1-1.1-0.2-1.7-0.3c-0.6-0.1-1.2-0.2-1.8-0.3	c-0.6-0.2-1.2-0.4-1.7-0.7c-0.5-0.3-0.9-0.7-1.2-1.2c-0.3-0.5-0.5-1.1-0.5-1.9c0-0.9,0.3-1.6,0.8-2.3c0.5-0.7,1.2-1.2,2.1-1.5	c0.9-0.4,2-0.5,3.2-0.5c0.9,0,1.9,0.1,2.8,0.3c1,0.2,1.7,0.5,2.4,0.9l-1.2,2.5c-0.7-0.4-1.3-0.7-2-0.8c-0.7-0.2-1.3-0.2-2-0.2	c-1,0-1.7,0.1-2.2,0.4c-0.5,0.3-0.7,0.7-0.7,1.1c0,0.4,0.2,0.7,0.5,0.9s0.7,0.4,1.2,0.5c0.5,0.1,1.1,0.2,1.7,0.3	c0.6,0.1,1.2,0.2,1.8,0.3c0.6,0.2,1.2,0.4,1.7,0.6c0.5,0.3,0.9,0.6,1.2,1.1c0.3,0.5,0.5,1.1,0.5,1.9c0,0.9-0.3,1.6-0.8,2.3	c-0.5,0.6-1.2,1.1-2.2,1.5C245.7,33.1,244.5,33.2,243.2,33.2z M254.3,33.2c-0.4,0-0.7-0.1-1-0.4c-0.3-0.3-0.4-0.6-0.4-1	c0-0.4,0.1-0.8,0.4-1c0.3-0.3,0.6-0.4,1-0.4c0.4,0,0.7,0.1,1,0.4c0.3,0.3,0.4,0.6,0.4,1c0,0.4-0.1,0.7-0.4,1	C255,33.1,254.6,33.2,254.3,33.2z M267.9,19.3c1.1,0,2.1,0.2,2.9,0.6c0.9,0.4,1.5,1.1,2,1.9c0.5,0.9,0.7,2,0.7,3.3v7.9h-1.8v-7.7	c0-1.4-0.4-2.5-1.1-3.2c-0.7-0.7-1.7-1.1-3-1.1c-1,0-1.8,0.2-2.5,0.6c-0.7,0.4-1.3,0.9-1.7,1.7c-0.4,0.7-0.6,1.6-0.6,2.7v7.2h-1.8	V19.4h1.8v3.7l-0.3-0.7c0.4-1,1.1-1.8,2.1-2.3C265.4,19.6,266.5,19.3,267.9,19.3z M285.6,33.2c-1.4,0-2.7-0.3-3.7-0.9	c-1.1-0.6-1.9-1.4-2.5-2.5c-0.6-1.1-0.9-2.3-0.9-3.6c0-1.4,0.3-2.5,0.9-3.6c0.6-1,1.4-1.9,2.4-2.4c1-0.6,2.2-0.9,3.4-0.9	c1.3,0,2.4,0.3,3.4,0.9c1,0.6,1.8,1.4,2.4,2.4c0.6,1,0.9,2.2,0.9,3.6c0,0.1,0,0.2,0,0.3c0,0.1,0,0.2,0,0.3h-11.9v-1.4h10.9l-0.7,0.5	c0-1-0.2-1.9-0.6-2.6c-0.4-0.8-1-1.4-1.7-1.8s-1.6-0.7-2.5-0.7c-0.9,0-1.8,0.2-2.5,0.7c-0.7,0.4-1.3,1-1.7,1.8	c-0.4,0.8-0.6,1.7-0.6,2.7v0.3c0,1,0.2,2,0.7,2.8c0.5,0.8,1.1,1.4,1.9,1.8c0.8,0.4,1.8,0.7,2.8,0.7c0.8,0,1.6-0.1,2.3-0.4	c0.7-0.3,1.4-0.7,1.9-1.4l1,1.2c-0.6,0.7-1.4,1.3-2.3,1.7C287.6,33,286.6,33.2,285.6,33.2z M301.1,33.2c-1.3,0-2.3-0.3-3-1	s-1-1.7-1-2.9V16.4h1.8v12.7c0,0.8,0.2,1.4,0.6,1.8c0.4,0.4,1,0.6,1.8,0.6c0.8,0,1.5-0.2,2-0.7l0.7,1.3c-0.4,0.3-0.8,0.6-1.3,0.7	C302.1,33.1,301.6,33.2,301.1,33.2z M294.6,20.9v-1.5h8.5v1.5H294.6z" class="st0"/><path d="M29.1,4.4c0-2.4,2-4.4,4.4-4.4c2.4,0,4.4,2,4.4,4.4v26.2c0,2.4-2,4.4-4.4,4.4c-2.4,0-4.4-2-4.4-4.4V4.4z" class="st1"/><path d="M14.6,16c0-2.4,2-4.4,4.4-4.4s4.4,2,4.4,4.4v20.4c0,2.4-2,4.4-4.4,4.4s-4.4-2-4.4-4.4V16z" class="st1"/><path d="M0,27.6c0-2.4,2-4.4,4.4-4.4c2.4,0,4.4,2,4.4,4.4v14.6c0,2.4-2,4.4-4.4,4.4c-2.4,0-4.4-2-4.4-4.4V27.6z" class="st1"/></svg>