<svg xmlns="http://www.w3.org/2000/svg" width="30.849" height="30.849"><path d="M33.419 15.424h-3.04A12.562 12.562 0 0 0 19.923 4.968v-3.04h-3.856v3.04A12.562 12.562 0 0 0 5.611 15.424h-3.04v3.856h3.04a12.562 12.562 0 0 0 10.456 10.456v3.04h3.856v-3.04A12.562 12.562 0 0 0 30.379 19.28h3.04v-3.856Zm-6.964 0h-3.006a5.8 5.8 0 0 0-3.526-3.524V8.892a8.7 8.7 0 0 1 6.532 6.532Zm-8.46 3.856a1.928 1.928 0 1 1 1.928-1.928 1.928 1.928 0 0 1-1.928 1.928ZM16.067 8.892V11.9a5.8 5.8 0 0 0-3.526 3.526H9.535a8.7 8.7 0 0 1 6.532-6.534ZM9.535 19.28h3.005a5.8 5.8 0 0 0 3.526 3.526v3.005a8.7 8.7 0 0 1-6.531-6.531Zm10.388 6.532v-3.005a5.8 5.8 0 0 0 3.526-3.526h3.005a8.7 8.7 0 0 1-6.531 6.531Z" style="fill:#fff" transform="translate(-2.571 -1.928)"/></svg>