<svg xmlns="http://www.w3.org/2000/svg" width="27" height="41"><defs><style>.cls-1{fill:#fff}</style></defs><g id="point" transform="translate(-296.4 -1788)"><path id="Subtração_1" d="M3 14.247a8 8 0 1 1 10 0V8A5 5 0 1 0 3 8v6.247Z" class="cls-1" data-name="Subtração 1" transform="translate(298 1788)"/><path id="Icon_awesome-hand-point-up" d="M9.538 0a3.171 3.171 0 0 1 3.082 3.15v7.021a3.458 3.458 0 0 1 4.988.443 3.221 3.221 0 0 1 4.382 1.157c3.455-.631 5.011 1.543 5.011 5.1 0 .193-.014.933-.014 1.125.012 4.357-2.184 5.407-2.694 8.7a1.686 1.686 0 0 1-1.667 1.425H10.565a3.375 3.375 0 0 1-3.083-2c-.914-2.031-3.448-6.709-5.437-7.561A3 3 0 0 1 0 15.75a3.377 3.377 0 0 1 4.7-3.1 9.557 9.557 0 0 1 1.752 1V3.15A3.222 3.222 0 0 1 9.538 0Zm.024 29.25h13.5a1.687 1.687 0 0 1 1.688 1.688v3.375A1.687 1.687 0 0 1 23.063 36h-13.5a1.687 1.687 0 0 1-1.687-1.687v-3.375a1.687 1.687 0 0 1 1.687-1.688Zm11.813 1.969a1.406 1.406 0 1 0 1.406 1.406 1.406 1.406 0 0 0-1.406-1.406Z" class="cls-1" data-name="Icon awesome-hand-point-up" transform="translate(296.4 1793)"/></g></svg>