<?xml version="1.0" encoding="UTF-8"?>
<svg id="Camada_2" data-name="Camada 2" xmlns="http://www.w3.org/2000/svg" xmlns:xlink="http://www.w3.org/1999/xlink" viewBox="0 0 564 558">
  <defs>
    <style>
      .cls-1 {
        filter: url(#drop-shadow-10);
      }

      .cls-2 {
        filter: url(#drop-shadow-7);
      }

      .cls-3 {
        mask: url(#mask-23);
      }

      .cls-4 {
        mask: url(#mask-10);
      }

      .cls-5 {
        filter: url(#drop-shadow-1);
      }

      .cls-5, .cls-6, .cls-7, .cls-8, .cls-9 {
        fill: #252f46;
      }

      .cls-10 {
        fill: #bc002d;
      }

      .cls-10, .cls-11, .cls-12, .cls-13, .cls-14, .cls-15, .cls-16 {
        fill-rule: evenodd;
      }

      .cls-17 {
        mask: url(#mask-17);
      }

      .cls-11 {
        fill: #fff;
      }

      .cls-18 {
        stroke-width: 1.54px;
      }

      .cls-18, .cls-19, .cls-20, .cls-21, .cls-22 {
        fill: none;
      }

      .cls-18, .cls-19, .cls-20, .cls-22 {
        stroke: #fcfcfc;
      }

      .cls-23 {
        mask: url(#mask-2);
      }

      .cls-24 {
        filter: url(#drop-shadow-8);
      }

      .cls-25 {
        mask: url(#mask-13);
      }

      .cls-26 {
        mask: url(#mask-3);
      }

      .cls-27 {
        fill: #33d05a;
      }

      .cls-19 {
        stroke-width: 1.54px;
      }

      .cls-28 {
        opacity: .7;
      }

      .cls-29 {
        fill: #898d99;
      }

      .cls-30 {
        mask: url(#mask-9);
      }

      .cls-31 {
        mask: url(#mask-12);
      }

      .cls-32 {
        filter: url(#drop-shadow-6);
      }

      .cls-12 {
        fill: #2355e9;
      }

      .cls-33 {
        mask: url(#mask-5);
      }

      .cls-6 {
        filter: url(#drop-shadow-4);
      }

      .cls-13 {
        fill: #1836ce;
      }

      .cls-7 {
        filter: url(#drop-shadow-3);
      }

      .cls-34 {
        mask: url(#mask-20);
      }

      .cls-8 {
        filter: url(#drop-shadow-2);
      }

      .cls-35 {
        mask: url(#mask-8);
      }

      .cls-20 {
        stroke-width: 1.54px;
      }

      .cls-36 {
        mask: url(#mask-4);
      }

      .cls-37 {
        mask: url(#mask-24);
      }

      .cls-38 {
        mask: url(#mask-19);
      }

      .cls-39 {
        mask: url(#mask-15);
      }

      .cls-14 {
        fill: #d11242;
      }

      .cls-15 {
        fill: #ce1126;
      }

      .cls-40 {
        mask: url(#mask-6);
      }

      .cls-41 {
        fill: #2cac40;
      }

      .cls-22 {
        stroke-width: 1.53px;
      }

      .cls-42 {
        filter: url(#drop-shadow-9);
      }

      .cls-43 {
        fill: #fbcb03;
      }

      .cls-44 {
        mask: url(#mask-16);
      }

      .cls-45 {
        mask: url(#mask-18);
      }

      .cls-9 {
        filter: url(#drop-shadow-5);
      }

      .cls-46 {
        mask: url(#mask-1);
      }

      .cls-47 {
        mask: url(#mask);
      }

      .cls-48 {
        mask: url(#mask-22);
      }

      .cls-49 {
        mask: url(#mask-7);
      }

      .cls-16 {
        fill: #2381e8;
      }

      .cls-50 {
        fill: #c44633;
      }

      .cls-51 {
        mask: url(#mask-14);
      }

      .cls-52 {
        mask: url(#mask-21);
      }

      .cls-53 {
        mask: url(#mask-11);
      }

      .cls-54 {
        fill: #fcfcfc;
      }
    </style>
    <filter id="drop-shadow-1" filterUnits="userSpaceOnUse">
      <feOffset dx="0" dy="4"/>
      <feGaussianBlur result="blur" stdDeviation="4"/>
      <feFlood flood-color="#000" flood-opacity=".75"/>
      <feComposite in2="blur" operator="in"/>
      <feComposite in="SourceGraphic"/>
    </filter>
    <filter id="drop-shadow-2" filterUnits="userSpaceOnUse">
      <feOffset dx="0" dy="4"/>
      <feGaussianBlur result="blur-2" stdDeviation="4"/>
      <feFlood flood-color="#000" flood-opacity=".75"/>
      <feComposite in2="blur-2" operator="in"/>
      <feComposite in="SourceGraphic"/>
    </filter>
    <filter id="drop-shadow-3" filterUnits="userSpaceOnUse">
      <feOffset dx="0" dy="4"/>
      <feGaussianBlur result="blur-3" stdDeviation="4"/>
      <feFlood flood-color="#000" flood-opacity=".75"/>
      <feComposite in2="blur-3" operator="in"/>
      <feComposite in="SourceGraphic"/>
    </filter>
    <filter id="drop-shadow-4" filterUnits="userSpaceOnUse">
      <feOffset dx="0" dy="4"/>
      <feGaussianBlur result="blur-4" stdDeviation="4"/>
      <feFlood flood-color="#000" flood-opacity=".75"/>
      <feComposite in2="blur-4" operator="in"/>
      <feComposite in="SourceGraphic"/>
    </filter>
    <filter id="drop-shadow-5" filterUnits="userSpaceOnUse">
      <feOffset dx="0" dy="4"/>
      <feGaussianBlur result="blur-5" stdDeviation="4"/>
      <feFlood flood-color="#000" flood-opacity=".75"/>
      <feComposite in2="blur-5" operator="in"/>
      <feComposite in="SourceGraphic"/>
    </filter>
    <filter id="drop-shadow-6" filterUnits="userSpaceOnUse">
      <feOffset dx="0" dy="2"/>
      <feGaussianBlur result="blur-6" stdDeviation="2"/>
      <feFlood flood-color="#000" flood-opacity=".25"/>
      <feComposite in2="blur-6" operator="in"/>
      <feComposite in="SourceGraphic"/>
    </filter>
    <mask id="mask" x="122.15" y="28.43" width="18.63" height="18.63" maskUnits="userSpaceOnUse">
      <g id="b">
        <path id="a-2" data-name="a" class="cls-11" d="m131.46,28.43h0c5.14,0,9.31,4.17,9.31,9.31h0c0,5.14-4.17,9.31-9.31,9.31h0c-5.14,0-9.31-4.17-9.31-9.31h0c0-5.14,4.17-9.31,9.31-9.31Z"/>
      </g>
    </mask>
    <mask id="mask-1" x="130.38" y="37.52" width="19.49" height="18.63" maskUnits="userSpaceOnUse">
      <g id="d">
        <path id="c-2" data-name="c" class="cls-11" d="m140.56,37.52h0c5.14,0,9.31,4.17,9.31,9.31h0c0,5.14-4.17,9.31-9.31,9.31h0c-5.14,0-9.31-4.17-9.31-9.31h0c0-5.14,4.17-9.31,9.31-9.31Z"/>
      </g>
    </mask>
    <mask id="mask-2" x="131.24" y="36.66" width="18.63" height="19.49" maskUnits="userSpaceOnUse">
      <g id="d-2" data-name="d">
        <path id="c-3" data-name="c" class="cls-11" d="m140.56,37.52h0c5.14,0,9.31,4.17,9.31,9.31h0c0,5.14-4.17,9.31-9.31,9.31h0c-5.14,0-9.31-4.17-9.31-9.31h0c0-5.14,4.17-9.31,9.31-9.31Z"/>
      </g>
    </mask>
    <mask id="mask-3" x="131.24" y="36.66" width="11.26" height="11.26" maskUnits="userSpaceOnUse">
      <g id="f">
        <path id="e-2" data-name="e" class="cls-11" d="m131.24,36.66h10.4v11.26h-10.4v-11.26Z"/>
      </g>
    </mask>
    <filter id="drop-shadow-7" filterUnits="userSpaceOnUse">
      <feOffset dx="0" dy="2"/>
      <feGaussianBlur result="blur-7" stdDeviation="2"/>
      <feFlood flood-color="#000" flood-opacity=".25"/>
      <feComposite in2="blur-7" operator="in"/>
      <feComposite in="SourceGraphic"/>
    </filter>
    <mask id="mask-4" x="123.11" y="475.48" width="18.63" height="18.63" maskUnits="userSpaceOnUse">
      <g id="b-2" data-name="b">
        <path id="a-4" data-name="a" class="cls-11" d="m132.43,475.48h0c5.14,0,9.31,4.17,9.31,9.31h0c0,5.14-4.17,9.31-9.31,9.31h0c-5.14,0-9.31-4.17-9.31-9.31h0c0-5.14,4.17-9.31,9.31-9.31Z"/>
      </g>
    </mask>
    <mask id="mask-5" x="131.34" y="484.58" width="19.49" height="18.63" maskUnits="userSpaceOnUse">
      <g id="d-3" data-name="d">
        <path id="c-5" data-name="c" class="cls-11" d="m141.52,484.58h0c5.14,0,9.31,4.17,9.31,9.31h0c0,5.14-4.17,9.31-9.31,9.31h0c-5.14,0-9.31-4.17-9.31-9.31h0c0-5.14,4.17-9.31,9.31-9.31Z"/>
      </g>
    </mask>
    <mask id="mask-6" x="132.21" y="483.71" width="18.63" height="19.49" maskUnits="userSpaceOnUse">
      <g id="d-4" data-name="d">
        <path id="c-6" data-name="c" class="cls-11" d="m141.52,484.58h0c5.14,0,9.31,4.17,9.31,9.31h0c0,5.14-4.17,9.31-9.31,9.31h0c-5.14,0-9.31-4.17-9.31-9.31h0c0-5.14,4.17-9.31,9.31-9.31Z"/>
      </g>
    </mask>
    <mask id="mask-7" x="132.21" y="483.71" width="11.26" height="11.26" maskUnits="userSpaceOnUse">
      <g id="f-2" data-name="f">
        <path id="e-4" data-name="e" class="cls-11" d="m132.21,483.71h10.4v11.26h-10.4v-11.26Z"/>
      </g>
    </mask>
    <filter id="drop-shadow-8" filterUnits="userSpaceOnUse">
      <feOffset dx="0" dy="2"/>
      <feGaussianBlur result="blur-8" stdDeviation="2"/>
      <feFlood flood-color="#000" flood-opacity=".25"/>
      <feComposite in2="blur-8" operator="in"/>
      <feComposite in="SourceGraphic"/>
    </filter>
    <mask id="mask-8" x="245.79" y="251.85" width="18.81" height="18.81" maskUnits="userSpaceOnUse">
      <g id="b-3" data-name="b">
        <path id="a-6" data-name="a" class="cls-11" d="m255.19,251.85h0c5.19,0,9.4,4.21,9.4,9.4h0c0,5.19-4.21,9.4-9.4,9.4h0c-5.19,0-9.4-4.21-9.4-9.4h0c0-5.19,4.21-9.4,9.4-9.4Z"/>
      </g>
    </mask>
    <mask id="mask-9" x="245.79" y="251.89" width="11.47" height="9.1" maskUnits="userSpaceOnUse">
      <g id="d-5" data-name="d">
        <path id="c-8" data-name="c" class="cls-11" d="m245.79,251.89h11.37v8.75h-11.37v-8.75Z"/>
      </g>
    </mask>
    <mask id="mask-10" x="245.79" y="251.89" width="11.47" height="9.1" maskUnits="userSpaceOnUse">
      <g id="d-6" data-name="d">
        <path id="c-9" data-name="c" class="cls-11" d="m245.79,251.89h11.37v8.75h-11.37v-8.75Z"/>
      </g>
    </mask>
    <mask id="mask-11" x="245.79" y="251.89" width="11.37" height="8.75" maskUnits="userSpaceOnUse">
      <g id="d-7" data-name="d">
        <path id="c-10" data-name="c" class="cls-11" d="m245.79,251.89h11.37v8.75h-11.37v-8.75Z"/>
      </g>
    </mask>
    <mask id="mask-12" x="245.79" y="251.89" width="11.47" height="9.1" maskUnits="userSpaceOnUse">
      <g id="d-8" data-name="d">
        <path id="c-11" data-name="c" class="cls-11" d="m245.79,251.89h11.37v8.75h-11.37v-8.75Z"/>
      </g>
    </mask>
    <mask id="mask-13" x="245.79" y="251.85" width="11.37" height="9.17" maskUnits="userSpaceOnUse">
      <g id="d-9" data-name="d">
        <path id="c-12" data-name="c" class="cls-11" d="m245.79,251.89h11.37v8.75h-11.37v-8.75Z"/>
      </g>
    </mask>
    <mask id="mask-14" x="245.79" y="251.85" width="11.37" height="9.18" maskUnits="userSpaceOnUse">
      <g id="d-10" data-name="d">
        <path id="c-13" data-name="c" class="cls-11" d="m245.79,251.89h11.37v8.75h-11.37v-8.75Z"/>
      </g>
    </mask>
    <mask id="mask-15" x="245.79" y="251.89" width="11.47" height="9.1" maskUnits="userSpaceOnUse">
      <g id="d-11" data-name="d">
        <path id="c-14" data-name="c" class="cls-11" d="m245.79,251.89h11.37v8.75h-11.37v-8.75Z"/>
      </g>
    </mask>
    <mask id="mask-16" x="254.1" y="261.03" width="19.68" height="18.81" maskUnits="userSpaceOnUse">
      <g id="f-3" data-name="f">
        <path id="e-6" data-name="e" class="cls-11" d="m264.38,261.03h0c5.19,0,9.4,4.21,9.4,9.4h0c0,5.19-4.21,9.4-9.4,9.4h0c-5.19,0-9.4-4.21-9.4-9.4h0c0-5.19,4.21-9.4,9.4-9.4Z"/>
      </g>
    </mask>
    <mask id="mask-17" x="254.97" y="260.16" width="18.81" height="19.68" maskUnits="userSpaceOnUse">
      <g id="f-4" data-name="f">
        <path id="e-7" data-name="e" class="cls-11" d="m264.38,261.03h0c5.19,0,9.4,4.21,9.4,9.4h0c0,5.19-4.21,9.4-9.4,9.4h0c-5.19,0-9.4-4.21-9.4-9.4h0c0-5.19,4.21-9.4,9.4-9.4Z"/>
      </g>
    </mask>
    <mask id="mask-18" x="254.97" y="260.16" width="11.37" height="11.37" maskUnits="userSpaceOnUse">
      <g id="h">
        <path id="g-2" data-name="g" class="cls-11" d="m254.97,260.16h10.5v11.37h-10.5v-11.37Z"/>
      </g>
    </mask>
    <filter id="drop-shadow-9" filterUnits="userSpaceOnUse">
      <feOffset dx="0" dy="2"/>
      <feGaussianBlur result="blur-9" stdDeviation="2"/>
      <feFlood flood-color="#000" flood-opacity=".25"/>
      <feComposite in2="blur-9" operator="in"/>
      <feComposite in="SourceGraphic"/>
    </filter>
    <mask id="mask-19" x="178.74" y="139.97" width="19.67" height="18.76" maskUnits="userSpaceOnUse">
      <g id="b-4" data-name="b">
        <path id="a-8" data-name="a" class="cls-11" d="m188.58,139.97h0c5.18,0,9.38,4.2,9.38,9.38h0c0,5.18-4.2,9.38-9.38,9.38h0c-5.18,0-9.38-4.2-9.38-9.38h0c0-5.18,4.2-9.38,9.38-9.38Z"/>
      </g>
    </mask>
    <mask id="mask-20" x="187.48" y="149.13" width="19.63" height="18.76" maskUnits="userSpaceOnUse">
      <g id="d-12" data-name="d">
        <path id="c-16" data-name="c" class="cls-11" d="m197.73,149.13h0c5.18,0,9.38,4.2,9.38,9.38h0c0,5.18-4.2,9.38-9.38,9.38h0c-5.18,0-9.38-4.2-9.38-9.38h0c0-5.18,4.2-9.38,9.38-9.38Z"/>
      </g>
    </mask>
    <mask id="mask-21" x="188.36" y="148.26" width="18.76" height="19.63" maskUnits="userSpaceOnUse">
      <g id="d-13" data-name="d">
        <path id="c-17" data-name="c" class="cls-11" d="m197.73,149.13h0c5.18,0,9.38,4.2,9.38,9.38h0c0,5.18-4.2,9.38-9.38,9.38h0c-5.18,0-9.38-4.2-9.38-9.38h0c0-5.18,4.2-9.38,9.38-9.38Z"/>
      </g>
    </mask>
    <mask id="mask-22" x="188.36" y="148.26" width="11.34" height="11.34" maskUnits="userSpaceOnUse">
      <g id="f-5" data-name="f">
        <path id="e-9" data-name="e" class="cls-11" d="m188.36,148.26h10.47v11.34h-10.47v-11.34Z"/>
      </g>
    </mask>
    <filter id="drop-shadow-10" filterUnits="userSpaceOnUse">
      <feOffset dx="0" dy="2"/>
      <feGaussianBlur result="blur-10" stdDeviation="2"/>
      <feFlood flood-color="#000" flood-opacity=".25"/>
      <feComposite in2="blur-10" operator="in"/>
      <feComposite in="SourceGraphic"/>
    </filter>
    <mask id="mask-23" x="179.1" y="364.22" width="19.73" height="18.81" maskUnits="userSpaceOnUse">
      <g id="b-5" data-name="b">
        <path id="a-10" data-name="a" class="cls-11" d="m188.97,364.22h0c5.2,0,9.41,4.21,9.41,9.41h0c0,5.2-4.21,9.41-9.41,9.41h0c-5.2,0-9.41-4.21-9.41-9.41h0c0-5.2,4.21-9.41,9.41-9.41Z"/>
      </g>
    </mask>
    <mask id="mask-24" x="188.75" y="373.41" width="18.81" height="18.81" maskUnits="userSpaceOnUse">
      <g id="d-14" data-name="d">
        <path id="c-19" data-name="c" class="cls-11" d="m198.15,373.41h0c5.2,0,9.41,4.21,9.41,9.41h0c0,5.2-4.21,9.41-9.41,9.41h0c-5.2,0-9.41-4.21-9.41-9.41h0c0-5.2,4.21-9.41,9.41-9.41Z"/>
      </g>
    </mask>
  </defs>
  <g id="Camada_1-2" data-name="Camada 1">
    <g>
      <rect class="cls-5" x="12.38" y="8.22" width="416.04" height="89.02" rx="15.45" ry="15.45"/>
      <path class="cls-54" d="m211.76,35.18v9.34c0,1.31.32,2.29.95,2.92.65.64,1.55.95,2.69.95s2.01-.32,2.65-.95c.65-.64.97-1.61.97-2.92v-9.34h1.93v9.32c0,1.23-.25,2.27-.74,3.11-.49.83-1.16,1.45-2.01,1.86-.83.41-1.77.61-2.82.61s-1.99-.2-2.84-.61c-.83-.41-1.5-1.03-1.99-1.86-.48-.85-.72-1.89-.72-3.11v-9.32h1.93Zm17.3,14.91c-.97,0-1.85-.17-2.63-.51-.76-.35-1.36-.83-1.8-1.44-.44-.62-.66-1.33-.68-2.14h2.05c.07.69.35,1.28.85,1.76.51.47,1.24.7,2.2.7s1.64-.23,2.16-.68c.54-.47.8-1.06.8-1.78,0-.56-.16-1.02-.47-1.38-.31-.35-.7-.62-1.16-.8-.47-.18-1.1-.38-1.89-.59-.97-.25-1.76-.51-2.35-.76-.58-.25-1.08-.65-1.5-1.19-.41-.55-.61-1.28-.61-2.2,0-.8.21-1.52.61-2.14.41-.62.98-1.1,1.72-1.44.75-.34,1.6-.51,2.56-.51,1.38,0,2.51.35,3.39,1.04.89.69,1.39,1.61,1.5,2.75h-2.12c-.07-.56-.37-1.06-.89-1.48-.52-.44-1.21-.66-2.08-.66-.8,0-1.46.21-1.97.64-.51.41-.76.99-.76,1.74,0,.54.15.97.44,1.31.31.34.68.6,1.12.78.45.17,1.08.37,1.88.59.97.27,1.76.54,2.35.8.59.25,1.1.66,1.52,1.21.42.54.63,1.27.63,2.2,0,.72-.19,1.4-.57,2.03-.38.64-.95,1.15-1.69,1.55-.75.4-1.63.59-2.65.59Zm12.56-14.91c1.61,0,3,.3,4.17.91,1.19.59,2.09,1.45,2.71,2.56.63,1.12.95,2.43.95,3.94s-.32,2.82-.95,3.94c-.62,1.1-1.53,1.95-2.71,2.54-1.17.58-2.56.87-4.17.87h-4.6v-14.76h4.6Zm0,13.17c1.91,0,3.36-.5,4.36-1.5,1-1.02,1.5-2.44,1.5-4.26s-.51-3.27-1.53-4.3c-1-1.03-2.45-1.55-4.34-1.55h-2.67v11.61h2.67Z"/>
      <path class="cls-54" d="m41.56,36.99v-1.67h3.78v14.52h-1.85v-12.85h-1.93Zm7.52,5.44c0-2.3.37-4.1,1.12-5.38.75-1.3,2.06-1.95,3.94-1.95s3.17.65,3.92,1.95c.75,1.29,1.12,3.08,1.12,5.38s-.37,4.16-1.12,5.46c-.75,1.3-2.06,1.95-3.92,1.95s-3.19-.65-3.94-1.95c-.75-1.3-1.12-3.12-1.12-5.46Zm8.29,0c0-1.16-.08-2.15-.24-2.95-.15-.82-.46-1.47-.94-1.97-.47-.5-1.15-.74-2.05-.74s-1.61.25-2.09.74c-.47.5-.78,1.15-.94,1.97-.15.8-.22,1.79-.22,2.95s.07,2.22.22,3.03c.16.82.48,1.47.94,1.97.48.5,1.18.74,2.09.74s1.58-.25,2.05-.74c.48-.5.8-1.15.94-1.97.16-.82.24-1.83.24-3.03Zm5.8,7.53c-.35,0-.64-.12-.88-.36-.24-.24-.36-.54-.36-.88s.12-.64.36-.88c.24-.24.54-.36.88-.36s.62.12.84.36c.24.24.36.54.36.88s-.12.64-.36.88c-.23.24-.51.36-.84.36Zm0-8.6c-.35,0-.64-.12-.88-.36-.24-.24-.36-.54-.36-.88s.12-.64.36-.88c.24-.24.54-.36.88-.36s.62.12.84.36c.24.24.36.54.36.88s-.12.64-.36.88c-.23.24-.51.36-.84.36Zm3.95-2.39c.09-1.23.57-2.2,1.43-2.89.86-.7,1.97-1.04,3.33-1.04.91,0,1.69.17,2.35.5.67.32,1.17.76,1.51,1.33.35.56.52,1.2.52,1.91,0,.83-.24,1.55-.72,2.15-.47.6-1.08.99-1.85,1.16v.1c.87.21,1.56.64,2.07,1.27.51.63.76,1.45.76,2.47,0,.76-.17,1.45-.52,2.07-.35.6-.87,1.08-1.57,1.43-.7.35-1.53.52-2.51.52-1.42,0-2.58-.37-3.49-1.1-.91-.75-1.42-1.81-1.53-3.17h1.77c.09.8.42,1.46.98,1.97.56.51,1.31.76,2.25.76s1.65-.24,2.13-.72c.5-.5.74-1.13.74-1.91,0-1-.33-1.73-1-2.17-.67-.44-1.68-.66-3.03-.66h-.46v-1.53h.48c1.23-.01,2.16-.21,2.79-.6.63-.4.94-1.02.94-1.85,0-.71-.23-1.28-.7-1.71-.46-.43-1.11-.64-1.97-.64s-1.5.21-2.01.64c-.51.43-.81,1-.9,1.73h-1.79Zm21.73-2.07h-7.05v4.58c.31-.43.76-.78,1.37-1.04.6-.28,1.25-.42,1.95-.42,1.11,0,2.02.23,2.71.7.7.46,1.19,1.05,1.49,1.79.31.72.46,1.49.46,2.31,0,.96-.18,1.83-.54,2.59-.36.76-.92,1.37-1.67,1.81-.74.44-1.65.66-2.75.66-1.41,0-2.54-.36-3.41-1.08-.87-.72-1.4-1.69-1.59-2.89h1.79c.17.76.54,1.36,1.1,1.79.56.43,1.27.64,2.13.64,1.06,0,1.85-.31,2.39-.94.54-.64.8-1.49.8-2.53s-.27-1.85-.8-2.41c-.54-.58-1.33-.86-2.37-.86-.71,0-1.33.17-1.87.52-.52.33-.9.8-1.14,1.39h-1.73v-8.19h8.74v1.61Z"/>
      <path class="cls-29" d="m52.1,65.93l-4.72,11.08h-1.56l4.79-10.93h-6.56v-1.33h8.06v1.17Zm13.2-.76v1.26h-5.15v3.99h4.18v1.26h-4.18v5.34h-1.55v-11.84h6.7Zm10.36,6.83c0,.29-.02.61-.05.93h-7.44c.06.92.37,1.64.93,2.16.58.51,1.27.76,2.09.76.67,0,1.22-.15,1.67-.46.45-.32.77-.74.95-1.26h1.67c-.25.9-.75,1.63-1.5,2.19-.75.56-1.68.83-2.79.83-.88,0-1.68-.2-2.38-.59-.69-.4-1.23-.96-1.63-1.68-.4-.74-.59-1.59-.59-2.55s.19-1.81.58-2.53c.39-.73.92-1.28,1.61-1.67.7-.4,1.51-.59,2.41-.59s1.67.19,2.35.58c.68.39,1.2.92,1.56,1.6.37.67.56,1.43.56,2.28Zm-1.6-.32c0-.59-.13-1.09-.39-1.51-.26-.43-.62-.75-1.07-.97-.44-.23-.93-.34-1.48-.34-.78,0-1.45.25-2.01.75-.54.5-.86,1.19-.93,2.07h5.88Zm5.19-2.24c.32-.56.78-1.01,1.39-1.36.61-.35,1.31-.53,2.09-.53.84,0,1.59.2,2.26.59.67.4,1.2.96,1.58,1.68.39.71.58,1.55.58,2.5s-.19,1.78-.58,2.52c-.39.74-.92,1.31-1.6,1.72-.67.41-1.42.61-2.24.61s-1.51-.18-2.12-.53c-.6-.35-1.05-.8-1.36-1.34v1.72h-1.55v-12.58h1.55v5Zm6.32,2.89c0-.7-.14-1.31-.42-1.84-.28-.52-.67-.92-1.16-1.19-.48-.27-1-.41-1.58-.41s-1.09.14-1.58.42c-.48.27-.86.67-1.16,1.21-.28.52-.42,1.13-.42,1.82s.14,1.32.42,1.85c.29.52.68.92,1.16,1.21.49.27,1.01.41,1.58.41s1.1-.14,1.58-.41c.49-.28.87-.69,1.16-1.21.28-.53.42-1.16.42-1.87Z"/>
      <path class="cls-29" d="m124.31,66.13v-1.41h3.19v12.29h-1.56v-10.88h-1.63Zm18.1,4.78c.43.07.82.24,1.17.53.36.28.64.63.85,1.05.22.42.32.87.32,1.34,0,.6-.15,1.14-.46,1.63-.31.48-.75.86-1.34,1.14-.58.27-1.26.41-2.06.41h-4.42v-11.84h4.25c.8,0,1.49.14,2.06.41.57.26.99.62,1.27,1.07.28.45.43.96.43,1.53,0,.7-.19,1.29-.58,1.75-.37.45-.87.78-1.49.99Zm-4.38-.63h2.6c.72,0,1.29-.17,1.68-.51.4-.34.6-.81.6-1.41s-.2-1.07-.6-1.41c-.4-.34-.97-.51-1.72-.51h-2.57v3.84Zm2.74,5.46c.77,0,1.37-.18,1.8-.54.43-.36.65-.87.65-1.51s-.23-1.17-.68-1.55c-.45-.39-1.06-.58-1.82-.58h-2.69v4.18h2.74Zm6.94-9.55c-.29,0-.54-.1-.75-.31-.2-.2-.31-.45-.31-.75s.1-.54.31-.75c.2-.2.45-.31.75-.31s.52.1.71.31c.2.2.31.45.31.75s-.1.54-.31.75c-.19.2-.43.31-.71.31Zm.75,1.51v9.31h-1.55v-9.31h1.55Zm7.17-.17c1.13,0,2.05.35,2.75,1.04.7.68,1.05,1.67,1.05,2.96v5.49h-1.53v-5.27c0-.93-.23-1.64-.7-2.12-.46-.5-1.1-.75-1.9-.75s-1.47.25-1.95.76c-.48.51-.71,1.25-.71,2.23v5.15h-1.55v-9.31h1.55v1.33c.31-.48.72-.84,1.24-1.1.53-.26,1.12-.39,1.75-.39Zm5.76,4.79c0-.95.19-1.78.58-2.5.38-.73.91-1.29,1.58-1.68.68-.4,1.43-.59,2.26-.59s1.52.18,2.12.53c.6.35,1.05.79,1.34,1.33v-1.7h1.56v9.31h-1.56v-1.73c-.31.54-.76,1-1.38,1.36-.6.35-1.3.53-2.11.53s-1.57-.2-2.24-.61c-.67-.41-1.19-.98-1.58-1.72-.39-.74-.58-1.57-.58-2.52Zm7.88.02c0-.7-.14-1.31-.43-1.84-.28-.52-.67-.92-1.15-1.19-.48-.28-1-.42-1.58-.42s-1.1.14-1.58.41-.86.67-1.14,1.19c-.28.52-.42,1.13-.42,1.84s.14,1.34.42,1.87c.28.52.66.92,1.14,1.21.48.27,1,.41,1.58.41s1.1-.14,1.58-.41c.49-.28.87-.69,1.15-1.21.28-.53.43-1.15.43-1.85Zm5.72-3.13c.27-.53.66-.95,1.16-1.24.51-.29,1.13-.44,1.85-.44v1.6h-.41c-1.73,0-2.6.94-2.6,2.82v5.06h-1.55v-9.31h1.55v1.51Zm12.82-1.51l-5.61,13.7h-1.6l1.84-4.49-3.76-9.21h1.72l2.92,7.55,2.89-7.55h1.6Z"/>
      <path class="cls-29" d="m325.11,74.08c0,.54-.14,1.06-.41,1.56-.27.49-.67.89-1.21,1.22-.52.33-1.15.52-1.89.56v1.38h-.92v-1.38c-1.03-.09-1.87-.42-2.52-.99-.65-.58-.98-1.31-.99-2.19h1.65c.05.48.22.89.53,1.24.32.35.76.57,1.33.66v-4.25c-.76-.19-1.37-.39-1.84-.59-.46-.2-.86-.52-1.19-.95-.33-.43-.49-1.01-.49-1.73,0-.92.32-1.68.95-2.28.64-.6,1.5-.93,2.57-1v-1.41h.92v1.41c.96.08,1.74.39,2.33.93.59.53.93,1.23,1.02,2.09h-1.65c-.06-.4-.23-.75-.53-1.07-.3-.33-.69-.54-1.17-.65v4.15c.75.19,1.35.39,1.82.59.48.19.87.5,1.19.93.33.43.49,1.01.49,1.75Zm-6.36-5.54c0,.56.17.98.49,1.27.33.29.81.54,1.45.73v-3.93c-.59.06-1.06.25-1.41.58-.35.32-.53.76-.53,1.34Zm2.86,7.63c.61-.07,1.09-.29,1.43-.66.35-.37.53-.82.53-1.34,0-.56-.17-.98-.51-1.27-.34-.31-.82-.55-1.45-.73v4.01Zm7.74-9.72v-1.41h3.2v12.29h-1.56v-10.88h-1.63Zm7.7,8.73l-1.9,4.57h-1.04l1.24-4.57h1.7Zm1.52-4.13c0-1.95.32-3.47.95-4.55.63-1.1,1.74-1.65,3.33-1.65s2.68.55,3.31,1.65c.63,1.09.95,2.61.95,4.55s-.32,3.52-.95,4.62c-.64,1.1-1.74,1.65-3.31,1.65s-2.7-.55-3.33-1.65c-.63-1.1-.95-2.64-.95-4.62Zm7.02,0c0-.99-.07-1.82-.2-2.5-.12-.69-.39-1.25-.8-1.67-.4-.42-.97-.63-1.73-.63s-1.36.21-1.77.63c-.4.42-.66.97-.8,1.67-.12.68-.19,1.51-.19,2.5s.06,1.88.19,2.57c.14.69.4,1.25.8,1.67.41.42,1,.63,1.77.63s1.34-.21,1.73-.63c.41-.42.67-.97.8-1.67.14-.69.2-1.55.2-2.57Zm3.65,0c0-1.95.32-3.47.95-4.55.63-1.1,1.74-1.65,3.33-1.65s2.68.55,3.31,1.65c.63,1.09.95,2.61.95,4.55s-.32,3.52-.95,4.62c-.64,1.1-1.74,1.65-3.31,1.65s-2.7-.55-3.33-1.65c-.63-1.1-.95-2.64-.95-4.62Zm7.02,0c0-.99-.07-1.82-.2-2.5-.12-.69-.39-1.25-.8-1.67-.4-.42-.97-.63-1.73-.63s-1.36.21-1.77.63c-.4.42-.66.97-.8,1.67-.12.68-.19,1.51-.19,2.5s.06,1.88.19,2.57c.14.69.4,1.25.8,1.67.41.42,1,.63,1.77.63s1.34-.21,1.73-.63c.41-.42.67-.97.8-1.67.14-.69.2-1.55.2-2.57Zm3.65,0c0-1.95.32-3.47.95-4.55.64-1.1,1.74-1.65,3.33-1.65s2.68.55,3.31,1.65c.63,1.09.95,2.61.95,4.55s-.32,3.52-.95,4.62c-.63,1.1-1.74,1.65-3.31,1.65s-2.7-.55-3.33-1.65c-.63-1.1-.95-2.64-.95-4.62Zm7.02,0c0-.99-.07-1.82-.2-2.5-.12-.69-.39-1.25-.8-1.67-.4-.42-.97-.63-1.73-.63s-1.36.21-1.77.63c-.4.42-.66.97-.8,1.67-.12.68-.19,1.51-.19,2.5s.06,1.88.19,2.57c.14.69.4,1.25.8,1.67.41.42,1,.63,1.77.63s1.34-.21,1.73-.63c.41-.42.67-.97.8-1.67.14-.69.2-1.55.2-2.57Z"/>
      <g>
        <path class="cls-54" d="m165.97,36.66v4.97h5.42v1.6h-5.42v5.12h6.06v1.6h-8v-14.88h8v1.6h-6.06Zm11.1-1.58v9.4c0,1.32.32,2.3.96,2.94.65.64,1.56.96,2.71.96s2.02-.32,2.66-.96c.65-.64.98-1.62.98-2.94v-9.4h1.94v9.38c0,1.24-.25,2.28-.75,3.13-.5.84-1.17,1.46-2.03,1.88-.84.41-1.78.62-2.84.62s-2-.21-2.86-.62c-.84-.41-1.51-1.04-2-1.88-.48-.85-.73-1.9-.73-3.13v-9.38h1.94Zm20.53,14.86l-3.54-6.08h-2.35v6.08h-1.94v-14.86h4.8c1.12,0,2.07.19,2.84.58.78.38,1.36.9,1.75,1.56.38.65.58,1.4.58,2.24,0,1.02-.3,1.93-.9,2.71-.58.78-1.46,1.3-2.64,1.56l3.73,6.23h-2.32Zm-5.88-7.63h2.86c1.05,0,1.84-.26,2.37-.77.53-.53.79-1.22.79-2.09s-.26-1.56-.79-2.05c-.51-.48-1.3-.72-2.37-.72h-2.86v5.63Z"/>
        <path class="cls-27" d="m346.5,45.14h-3.8v3.9h-2.65v-3.9h-3.8v-2.45h3.8v-3.9h2.65v3.9h3.8v2.45Zm12.03,1.89c0,.7-.18,1.35-.54,1.97-.35.6-.87,1.1-1.57,1.51-.68.39-1.49.62-2.43.68v1.63h-1.29v-1.65c-1.34-.12-2.42-.52-3.23-1.2-.82-.7-1.24-1.63-1.27-2.81h3.01c.08.96.58,1.55,1.49,1.75v-3.84c-.96-.24-1.74-.48-2.33-.72-.59-.24-1.1-.63-1.53-1.16-.43-.54-.64-1.27-.64-2.19,0-1.16.41-2.12,1.25-2.85.84-.74,1.93-1.16,3.25-1.27v-1.63h1.29v1.63c1.28.11,2.31.5,3.07,1.16.78.67,1.21,1.59,1.31,2.77h-3.03c-.04-.39-.18-.72-.42-1-.23-.29-.53-.5-.92-.62v3.8c1,.25,1.79.5,2.37.74.59.23,1.1.61,1.53,1.14.43.52.64,1.25.64,2.17Zm-7.39-6.19c0,.44.13.8.4,1.08.27.27.66.49,1.17.66v-3.47c-.48.07-.86.25-1.14.54-.28.29-.42.69-.42,1.18Zm2.85,8.09c.51-.09.9-.3,1.18-.62.29-.32.44-.71.44-1.16s-.14-.8-.42-1.06c-.28-.27-.68-.49-1.2-.66v3.51Zm10.01-5.62c-1.34-.7-2.01-1.77-2.01-3.23,0-.72.18-1.38.54-1.97.38-.6.93-1.08,1.67-1.43.75-.36,1.66-.54,2.73-.54s1.98.18,2.71.54c.75.35,1.3.82,1.67,1.43.38.59.56,1.25.56,1.97s-.18,1.39-.54,1.95c-.36.55-.84.98-1.45,1.29.74.32,1.31.79,1.73,1.41.42.62.62,1.35.62,2.19,0,.91-.23,1.71-.7,2.39-.46.67-1.09,1.18-1.89,1.55-.8.36-1.71.54-2.71.54s-1.91-.18-2.71-.54c-.79-.36-1.42-.88-1.89-1.55-.46-.68-.68-1.48-.68-2.39,0-.84.21-1.57.62-2.19.41-.63.99-1.1,1.73-1.41Zm5.14-2.83c0-.66-.2-1.16-.6-1.53-.39-.36-.92-.54-1.61-.54s-1.2.18-1.61.54c-.39.36-.58.88-.58,1.55,0,.6.2,1.08.6,1.45.41.36.94.54,1.59.54s1.17-.18,1.59-.54c.41-.37.62-.86.62-1.47Zm-2.21,4.06c-.76,0-1.39.19-1.87.58-.47.39-.7.94-.7,1.67,0,.67.23,1.22.68,1.65.47.42,1.1.62,1.89.62s1.41-.21,1.87-.64c.46-.43.68-.97.68-1.63,0-.71-.23-1.26-.7-1.65-.47-.4-1.08-.6-1.85-.6Zm17.04-5.98l-5.34,12.51h-2.85l5.38-12.19h-6.87v-2.41h9.68v2.09Zm1.54.46v-2.59h4.84v14.64h-2.89v-12.05h-1.95Z"/>
        <path class="cls-18" d="m201.82,49.72l6.11-15.06"/>
      </g>
      <rect class="cls-21" x="121.78" y="28.52" width="27.74" height="27.63" shape-rendering="crispEdges"/>
      <path class="cls-41" d="m382.96,65.68l7.34,12.66h-14.68l7.34-12.66Z"/>
      <rect class="cls-8" x="13.28" y="452.43" width="416.04" height="89.02" rx="15.35" ry="15.35"/>
      <path class="cls-50" d="m383.85,526.1l-7.3-12.68,14.68.04-7.38,12.64Z"/>
      <path class="cls-54" d="m41.97,483v-1.66h3.75v14.43h-1.84v-12.77h-1.92Zm7.03,9.56v-1.38l7-9.7h2.17v9.5h2v1.58h-2v3.21h-1.8v-3.21h-7.38Zm7.46-9.18l-5.37,7.6h5.37v-7.6Zm7,12.51c-.35,0-.64-.12-.88-.36-.24-.24-.36-.53-.36-.88s.12-.64.36-.88c.24-.24.53-.36.88-.36s.61.12.84.36c.24.24.36.53.36.88s-.12.64-.36.88c-.23.24-.51.36-.84.36Zm0-8.54c-.35,0-.64-.12-.88-.36-.24-.24-.36-.53-.36-.88s.12-.64.36-.88c.24-.24.53-.36.88-.36s.61.12.84.36c.24.24.36.53.36.88s-.12.64-.36.88c-.23.24-.51.36-.84.36Zm3.53,5.21v-1.38l7-9.7h2.17v9.5h2v1.58h-2v3.21h-1.8v-3.21h-7.38Zm7.46-9.18l-5.37,7.6h5.37v-7.6Zm15.32-.46h-7v4.55c.31-.43.76-.77,1.36-1.04.6-.28,1.24-.42,1.94-.42,1.1,0,2,.23,2.69.7.69.45,1.18,1.04,1.48,1.77.31.72.46,1.48.46,2.3,0,.96-.18,1.82-.54,2.57-.36.76-.91,1.36-1.66,1.8-.73.44-1.64.66-2.73.66-1.4,0-2.53-.36-3.39-1.08-.86-.72-1.39-1.68-1.58-2.87h1.78c.17.76.54,1.35,1.1,1.77.56.43,1.26.64,2.12.64,1.05,0,1.84-.31,2.37-.94.53-.64.8-1.48.8-2.51s-.27-1.84-.8-2.39c-.53-.57-1.32-.86-2.35-.86-.71,0-1.32.17-1.86.52-.52.33-.9.79-1.14,1.38h-1.72v-8.14h8.68v1.6Z"/>
      <path class="cls-29" d="m53.24,512.93l-4.69,11.01h-1.55l4.76-10.86h-6.52v-1.32h8v1.16Zm13.11-.76v1.25h-5.12v3.97h4.15v1.25h-4.15v5.3h-1.54v-11.77h6.65Zm10.3,6.79c0,.29-.02.6-.05.93h-7.39c.06.91.37,1.63.93,2.14.57.51,1.27.76,2.08.76.66,0,1.22-.15,1.65-.46.45-.32.77-.73.95-1.25h1.65c-.25.89-.74,1.61-1.49,2.18-.74.55-1.67.83-2.77.83-.88,0-1.67-.2-2.36-.59-.69-.39-1.23-.95-1.62-1.67-.39-.73-.59-1.58-.59-2.53s.19-1.8.57-2.52c.38-.72.92-1.27,1.6-1.65.7-.39,1.5-.59,2.4-.59s1.65.19,2.33.57c.68.38,1.19.91,1.55,1.59.37.66.56,1.42.56,2.26Zm-1.59-.32c0-.58-.13-1.09-.39-1.5-.26-.43-.61-.75-1.06-.96-.44-.22-.93-.34-1.47-.34-.78,0-1.44.25-1.99.74-.54.5-.85,1.18-.93,2.06h5.84Zm5.15-2.23c.32-.55.78-1,1.38-1.35.61-.35,1.3-.52,2.08-.52.83,0,1.58.2,2.25.59.66.39,1.19.95,1.57,1.67.38.71.57,1.54.57,2.48s-.19,1.77-.57,2.5c-.38.73-.91,1.3-1.59,1.71-.66.41-1.41.61-2.23.61s-1.5-.17-2.11-.52c-.6-.35-1.05-.79-1.35-1.33v1.71h-1.54v-12.49h1.54v4.96Zm6.28,2.87c0-.7-.14-1.31-.42-1.82-.28-.52-.66-.91-1.15-1.18-.47-.27-1-.4-1.57-.4s-1.09.14-1.57.42c-.47.27-.86.67-1.15,1.2-.28.52-.42,1.12-.42,1.81s.14,1.31.42,1.84c.29.52.68.92,1.15,1.2.48.27,1.01.41,1.57.41s1.1-.14,1.57-.41c.48-.28.87-.68,1.15-1.2.28-.53.42-1.15.42-1.86Z"/>
      <path class="cls-29" d="m125.63,513.13v-1.4h3.17v12.21h-1.55v-10.81h-1.62Zm17.98,4.74c.43.07.82.24,1.16.52.36.28.64.63.84,1.05.21.42.32.86.32,1.33,0,.6-.15,1.14-.46,1.62-.3.47-.75.85-1.33,1.13-.57.27-1.25.41-2.04.41h-4.39v-11.77h4.22c.8,0,1.48.14,2.04.41.56.26.98.61,1.27,1.06.28.45.42.96.42,1.52,0,.7-.19,1.28-.57,1.74-.37.45-.87.78-1.49.98Zm-4.36-.62h2.58c.72,0,1.28-.17,1.67-.51.39-.34.59-.8.59-1.4s-.2-1.06-.59-1.4c-.39-.34-.96-.51-1.71-.51h-2.55v3.82Zm2.72,5.42c.77,0,1.36-.18,1.79-.54.43-.36.64-.86.64-1.5s-.23-1.16-.68-1.54c-.45-.38-1.05-.57-1.81-.57h-2.67v4.15h2.72Zm6.89-9.49c-.29,0-.54-.1-.74-.3s-.3-.45-.3-.74.1-.54.3-.74c.2-.2.45-.3.74-.3s.52.1.71.3c.2.2.3.45.3.74s-.1.54-.3.74c-.19.2-.43.3-.71.3Zm.74,1.5v9.25h-1.54v-9.25h1.54Zm7.13-.17c1.12,0,2.04.34,2.74,1.03.7.68,1.05,1.65,1.05,2.94v5.45h-1.52v-5.23c0-.92-.23-1.63-.69-2.11-.46-.49-1.09-.74-1.89-.74s-1.46.25-1.94.76c-.47.51-.71,1.24-.71,2.21v5.12h-1.54v-9.25h1.54v1.32c.3-.47.71-.84,1.23-1.1.53-.26,1.11-.39,1.74-.39Zm5.72,4.76c0-.95.19-1.77.57-2.48.38-.72.91-1.28,1.57-1.67.68-.39,1.42-.59,2.24-.59s1.51.18,2.11.52c.6.35,1.04.79,1.33,1.32v-1.69h1.55v9.25h-1.55v-1.72c-.3.54-.76.99-1.37,1.35-.6.35-1.3.52-2.09.52s-1.56-.2-2.23-.61c-.66-.41-1.19-.97-1.57-1.71-.38-.73-.57-1.56-.57-2.5Zm7.83.02c0-.7-.14-1.3-.42-1.82-.28-.52-.66-.91-1.15-1.18-.47-.28-1-.42-1.57-.42s-1.1.14-1.57.4c-.47.27-.85.66-1.13,1.18-.28.52-.42,1.13-.42,1.82s.14,1.33.42,1.86c.28.52.66.92,1.13,1.2.47.27,1,.41,1.57.41s1.1-.14,1.57-.41c.48-.28.87-.68,1.15-1.2.28-.53.42-1.14.42-1.84Zm5.69-3.11c.27-.53.65-.94,1.15-1.23.51-.29,1.12-.44,1.84-.44v1.59h-.4c-1.72,0-2.58.93-2.58,2.8v5.03h-1.54v-9.25h1.54v1.5Zm12.73-1.5l-5.57,13.61h-1.59l1.82-4.46-3.73-9.15h1.71l2.9,7.5,2.87-7.5h1.59Z"/>
      <path class="cls-29" d="m336.45,521.03c0,.54-.14,1.06-.4,1.55-.27.48-.67.89-1.2,1.22-.52.33-1.14.51-1.87.56v1.37h-.91v-1.37c-1.02-.09-1.86-.42-2.5-.98-.64-.57-.97-1.3-.98-2.18h1.64c.05.47.22.88.52,1.23.32.35.76.57,1.32.66v-4.22c-.75-.19-1.36-.39-1.82-.59-.46-.2-.86-.52-1.18-.95-.33-.43-.49-1-.49-1.72,0-.91.32-1.67.95-2.26.64-.6,1.49-.93,2.55-1v-1.4h.91v1.4c.96.08,1.73.39,2.31.93.59.53.92,1.22,1.01,2.08h-1.64c-.06-.39-.23-.75-.52-1.06-.29-.33-.68-.54-1.17-.64v4.12c.74.19,1.35.39,1.81.59.47.19.87.5,1.18.93.33.43.49,1.01.49,1.74Zm-6.31-5.5c0,.55.16.97.49,1.27.33.29.8.53,1.43.73v-3.9c-.59.06-1.05.25-1.4.57-.35.32-.52.76-.52,1.33Zm2.84,7.58c.61-.07,1.08-.29,1.42-.66.35-.37.52-.82.52-1.33,0-.55-.17-.97-.51-1.27-.34-.3-.82-.55-1.43-.73v3.98Zm15.61-9.86l-4.69,11.01h-1.55l4.76-10.86h-6.52v-1.32h8v1.16Zm1.7,4.78c0-1.94.32-3.44.95-4.52.63-1.09,1.73-1.64,3.31-1.64s2.66.55,3.29,1.64c.63,1.08.95,2.59.95,4.52s-.32,3.5-.95,4.59c-.63,1.09-1.73,1.64-3.29,1.64s-2.68-.55-3.31-1.64c-.63-1.09-.95-2.62-.95-4.59Zm6.97,0c0-.98-.07-1.81-.2-2.48-.12-.69-.39-1.24-.79-1.65-.39-.42-.97-.62-1.72-.62s-1.35.21-1.76.62c-.39.42-.66.97-.79,1.65-.12.68-.19,1.5-.19,2.48s.06,1.86.19,2.55c.14.69.4,1.24.79,1.65.4.42.99.62,1.76.62s1.33-.21,1.72-.62c.4-.42.67-.97.79-1.65.14-.69.2-1.54.2-2.55Zm3.63,0c0-1.94.32-3.44.95-4.52.63-1.09,1.73-1.64,3.31-1.64s2.66.55,3.29,1.64c.63,1.08.95,2.59.95,4.52s-.32,3.5-.95,4.59c-.63,1.09-1.73,1.64-3.29,1.64s-2.68-.55-3.31-1.64c-.63-1.09-.95-2.62-.95-4.59Zm6.97,0c0-.98-.07-1.81-.2-2.48-.12-.69-.39-1.24-.79-1.65-.39-.42-.97-.62-1.72-.62s-1.35.21-1.76.62c-.39.42-.66.97-.79,1.65-.12.68-.18,1.5-.18,2.48s.06,1.86.18,2.55c.13.69.4,1.24.79,1.65.4.42.99.62,1.76.62s1.33-.21,1.72-.62c.4-.42.67-.97.79-1.65.13-.69.2-1.54.2-2.55Z"/>
      <g>
        <path class="cls-54" d="m168.02,483.67v4.93h5.38v1.59h-5.38v5.08h6.01v1.59h-7.94v-14.78h7.94v1.59h-6.01Zm11.03-1.57v9.34c0,1.31.32,2.29.95,2.92.65.64,1.55.95,2.69.95s2.01-.32,2.65-.95c.65-.64.97-1.61.97-2.92v-9.34h1.93v9.32c0,1.23-.25,2.27-.74,3.11-.49.83-1.17,1.45-2.01,1.86-.83.41-1.77.61-2.82.61s-1.99-.2-2.84-.61c-.83-.41-1.5-1.03-1.99-1.86-.48-.85-.72-1.89-.72-3.11v-9.32h1.93Zm20.39,14.76l-3.52-6.04h-2.33v6.04h-1.93v-14.76h4.77c1.11,0,2.05.19,2.82.57.78.38,1.35.9,1.74,1.55.38.65.57,1.39.57,2.22,0,1.02-.3,1.91-.89,2.69-.58.78-1.46,1.29-2.63,1.55l3.71,6.18h-2.31Zm-5.85-7.58h2.84c1.04,0,1.83-.25,2.35-.76.52-.52.78-1.21.78-2.08s-.26-1.55-.78-2.03c-.51-.48-1.29-.72-2.35-.72h-2.84v5.59Z"/>
        <path class="cls-54" d="m213.58,482.1v9.34c0,1.31.32,2.29.95,2.92.65.64,1.55.95,2.69.95s2.01-.32,2.65-.95c.65-.63.97-1.61.97-2.92v-9.34h1.93v9.32c0,1.23-.25,2.27-.74,3.11-.49.83-1.17,1.45-2.01,1.86-.83.41-1.77.61-2.82.61s-1.99-.2-2.84-.61c-.83-.41-1.5-1.03-1.99-1.86-.48-.85-.72-1.89-.72-3.11v-9.32h1.93Zm17.3,14.91c-.97,0-1.85-.17-2.63-.51-.76-.35-1.36-.83-1.8-1.44-.44-.62-.66-1.33-.68-2.14h2.05c.07.69.35,1.28.85,1.76.51.47,1.24.7,2.2.7s1.64-.23,2.16-.68c.54-.47.81-1.06.81-1.78,0-.56-.16-1.02-.47-1.38-.31-.35-.7-.62-1.17-.8-.47-.18-1.09-.38-1.88-.59-.97-.25-1.76-.51-2.35-.76-.58-.25-1.08-.65-1.5-1.19-.41-.55-.61-1.29-.61-2.2,0-.8.2-1.52.61-2.14.41-.62.98-1.1,1.72-1.44.75-.34,1.6-.51,2.56-.51,1.38,0,2.51.35,3.39,1.04.89.69,1.39,1.61,1.5,2.75h-2.12c-.07-.57-.37-1.06-.89-1.48-.52-.44-1.22-.66-2.08-.66-.81,0-1.46.21-1.97.64-.51.41-.76.99-.76,1.74,0,.54.15.98.44,1.31.31.34.69.6,1.12.78.45.17,1.08.37,1.89.59.97.27,1.76.54,2.35.8.59.25,1.1.66,1.52,1.21.42.54.64,1.27.64,2.2,0,.72-.19,1.4-.57,2.03-.38.64-.95,1.15-1.7,1.55-.75.39-1.63.59-2.65.59Zm12.56-14.91c1.61,0,3,.3,4.17.91,1.19.59,2.09,1.45,2.71,2.56.64,1.12.95,2.43.95,3.94s-.32,2.82-.95,3.94c-.62,1.1-1.52,1.95-2.71,2.54-1.17.58-2.56.87-4.17.87h-4.6v-14.76h4.6Zm0,13.17c1.91,0,3.36-.5,4.36-1.5,1-1.02,1.5-2.44,1.5-4.26s-.51-3.27-1.52-4.3c-1-1.03-2.45-1.55-4.34-1.55h-2.67v11.61h2.67Z"/>
        <path class="cls-27" d="m346.84,491.1h-3.77v3.87h-2.63v-3.87h-3.77v-2.43h3.77v-3.87h2.63v3.87h3.77v2.43Zm11.95,1.88c0,.69-.18,1.34-.54,1.96-.35.6-.86,1.1-1.56,1.5-.68.39-1.48.61-2.41.68v1.62h-1.28v-1.64c-1.33-.12-2.4-.52-3.21-1.2-.81-.69-1.23-1.62-1.26-2.79h2.99c.08.96.57,1.54,1.48,1.74v-3.81c-.96-.24-1.73-.48-2.32-.72-.58-.24-1.09-.62-1.52-1.16-.43-.53-.64-1.26-.64-2.18,0-1.16.41-2.1,1.24-2.83.84-.73,1.92-1.15,3.23-1.26v-1.62h1.28v1.62c1.28.11,2.29.49,3.05,1.16.77.66,1.2,1.58,1.3,2.75h-3.01c-.04-.39-.18-.72-.42-1-.23-.29-.53-.5-.92-.62v3.77c1,.25,1.78.5,2.35.74.59.23,1.09.6,1.52,1.14.42.52.64,1.24.64,2.15Zm-7.34-6.14c0,.44.13.8.4,1.08.27.27.65.49,1.16.66v-3.45c-.48.07-.86.25-1.14.54-.28.29-.42.68-.42,1.18Zm2.83,8.04c.51-.09.9-.3,1.18-.62.29-.32.44-.71.44-1.16s-.14-.79-.42-1.06c-.28-.27-.68-.48-1.2-.66v3.49Zm15.05-8.8c-.13-.56-.36-.98-.7-1.26-.32-.28-.79-.42-1.4-.42-.92,0-1.6.37-2.03,1.12-.43.73-.65,1.93-.66,3.59.32-.53.79-.94,1.4-1.24.61-.31,1.28-.46,2-.46.86,0,1.63.19,2.29.56.67.37,1.18.92,1.56,1.64.37.71.56,1.56.56,2.55,0,.94-.19,1.79-.58,2.53-.37.73-.93,1.3-1.66,1.72-.73.41-1.6.62-2.61.62-1.38,0-2.47-.31-3.27-.92-.78-.61-1.34-1.46-1.66-2.55-.31-1.1-.46-2.46-.46-4.07,0-2.43.42-4.27,1.26-5.51.84-1.25,2.16-1.88,3.97-1.88,1.4,0,2.48.38,3.25,1.14.77.76,1.22,1.7,1.34,2.83h-2.59Zm-2.03,3.63c-.71,0-1.3.21-1.78.62-.48.41-.72,1.01-.72,1.8s.22,1.4.66,1.86c.45.45,1.08.68,1.9.68.72,0,1.28-.22,1.7-.66.43-.44.64-1.03.64-1.78s-.21-1.38-.62-1.84c-.4-.45-.99-.68-1.78-.68Zm7.12-4.69v-2.57h4.81v14.55h-2.87v-11.97h-1.93Zm15.31,1.06c-.13-.56-.37-.98-.7-1.26-.32-.28-.78-.42-1.4-.42-.92,0-1.6.37-2.04,1.12-.43.73-.64,1.93-.66,3.59.32-.53.78-.94,1.4-1.24.61-.31,1.28-.46,2-.46.86,0,1.63.19,2.29.56.67.37,1.18.92,1.56,1.64.37.71.56,1.56.56,2.55,0,.94-.19,1.79-.58,2.53-.37.73-.92,1.3-1.66,1.72-.73.41-1.6.62-2.61.62-1.38,0-2.47-.31-3.27-.92-.79-.61-1.34-1.46-1.66-2.55-.31-1.1-.46-2.46-.46-4.07,0-2.43.42-4.27,1.26-5.51.84-1.25,2.16-1.88,3.97-1.88,1.4,0,2.48.38,3.25,1.14.77.76,1.22,1.7,1.34,2.83h-2.59Zm-2.03,3.63c-.71,0-1.3.21-1.78.62-.48.41-.72,1.01-.72,1.8s.22,1.4.66,1.86c.45.45,1.08.68,1.89.68.72,0,1.28-.22,1.7-.66.43-.44.64-1.03.64-1.78s-.21-1.38-.62-1.84c-.4-.45-.99-.68-1.77-.68Z"/>
        <path class="cls-22" d="m203.64,496.65l6.11-15.06"/>
      </g>
      <rect class="cls-21" x="122.69" y="475.45" width="27.74" height="27.63" shape-rendering="crispEdges"/>
      <rect class="cls-7" x="68.7" y="119.96" width="416.04" height="89.02" rx="15.41" ry="15.41"/>
      <path class="cls-54" d="m97.22,147.76v-1.66h3.77v14.48h-1.84v-12.82h-1.92Zm7.5,5.43c0-2.3.37-4.09,1.12-5.37.75-1.3,2.06-1.94,3.93-1.94s3.16.65,3.91,1.94c.75,1.28,1.12,3.07,1.12,5.37s-.37,4.15-1.12,5.45c-.75,1.3-2.05,1.94-3.91,1.94s-3.18-.65-3.93-1.94c-.75-1.3-1.12-3.11-1.12-5.45Zm8.27,0c0-1.16-.08-2.14-.24-2.95-.15-.81-.46-1.47-.94-1.96-.47-.49-1.15-.74-2.04-.74s-1.6.25-2.08.74c-.47.49-.78,1.15-.94,1.96-.15.8-.22,1.78-.22,2.95s.07,2.21.22,3.02c.16.82.47,1.47.94,1.96.48.49,1.18.74,2.08.74s1.58-.25,2.04-.74c.48-.49.8-1.15.94-1.96.16-.82.24-1.82.24-3.02Zm5.79,7.51c-.35,0-.64-.12-.88-.36s-.36-.53-.36-.88.12-.64.36-.88.53-.36.88-.36.61.12.84.36c.24.24.36.53.36.88s-.12.64-.36.88c-.23.24-.51.36-.84.36Zm0-8.57c-.35,0-.64-.12-.88-.36-.24-.24-.36-.53-.36-.88s.12-.64.36-.88c.24-.24.53-.36.88-.36s.61.12.84.36c.24.24.36.53.36.88s-.12.64-.36.88c-.23.24-.51.36-.84.36Zm13.22-4.45h-7.03v4.57c.31-.43.76-.77,1.36-1.04.6-.28,1.25-.42,1.94-.42,1.11,0,2.01.23,2.7.7.69.46,1.19,1.05,1.48,1.78.31.72.46,1.49.46,2.3,0,.96-.18,1.82-.54,2.58-.36.76-.92,1.36-1.66,1.8-.73.44-1.65.66-2.74.66-1.4,0-2.54-.36-3.41-1.08-.87-.72-1.4-1.68-1.58-2.88h1.78c.17.76.54,1.35,1.1,1.78.56.43,1.27.64,2.12.64,1.06,0,1.85-.31,2.38-.94.53-.64.8-1.48.8-2.52s-.27-1.84-.8-2.4c-.53-.57-1.32-.86-2.36-.86-.71,0-1.33.17-1.86.52-.52.33-.9.79-1.14,1.38h-1.72v-8.17h8.71v1.6Zm13.18,0h-7.03v4.57c.31-.43.76-.77,1.36-1.04.6-.28,1.25-.42,1.94-.42,1.11,0,2.01.23,2.7.7.7.46,1.19,1.05,1.48,1.78.31.72.46,1.49.46,2.3,0,.96-.18,1.82-.54,2.58-.36.76-.91,1.36-1.66,1.8-.74.44-1.65.66-2.75.66-1.4,0-2.54-.36-3.4-1.08-.87-.72-1.4-1.68-1.58-2.88h1.78c.17.76.54,1.35,1.1,1.78.56.43,1.27.64,2.12.64,1.06,0,1.85-.31,2.38-.94.53-.64.8-1.48.8-2.52s-.27-1.84-.8-2.4c-.53-.57-1.32-.86-2.36-.86-.71,0-1.33.17-1.86.52-.52.33-.9.79-1.14,1.38h-1.72v-8.17h8.71v1.6Z"/>
      <path class="cls-29" d="m108.51,177.69l-4.71,11.05h-1.56l4.78-10.9h-6.54v-1.32h8.03v1.17Zm13.16-.76v1.26h-5.14v3.98h4.17v1.25h-4.17v5.32h-1.54v-11.81h6.68Zm10.34,6.81c0,.29-.02.6-.05.93h-7.42c.06.92.37,1.63.93,2.15.58.51,1.27.76,2.08.76.67,0,1.22-.15,1.66-.46.45-.32.77-.73.95-1.25h1.66c-.25.89-.75,1.62-1.49,2.19-.75.55-1.67.83-2.78.83-.88,0-1.67-.2-2.37-.59-.69-.4-1.23-.96-1.63-1.68-.4-.73-.59-1.58-.59-2.54s.19-1.8.58-2.52c.38-.72.92-1.28,1.61-1.66.7-.4,1.5-.59,2.41-.59s1.66.19,2.34.58c.68.38,1.2.91,1.56,1.59.37.67.56,1.42.56,2.27Zm-1.59-.32c0-.59-.13-1.09-.39-1.51-.26-.43-.62-.75-1.07-.97-.44-.23-.93-.34-1.47-.34-.78,0-1.45.25-2,.75-.54.5-.85,1.19-.93,2.07h5.86Zm5.17-2.24c.32-.55.78-1.01,1.39-1.36.61-.35,1.31-.53,2.09-.53.84,0,1.59.2,2.25.59.67.39,1.19.95,1.58,1.68.38.71.58,1.54.58,2.49s-.19,1.77-.58,2.51c-.38.73-.92,1.31-1.59,1.71-.67.41-1.41.61-2.24.61s-1.51-.18-2.12-.53c-.6-.35-1.05-.8-1.36-1.34v1.71h-1.54v-12.54h1.54v4.98Zm6.31,2.88c0-.7-.14-1.31-.42-1.83-.28-.52-.67-.92-1.15-1.19-.47-.27-1-.41-1.58-.41s-1.09.14-1.58.42c-.48.27-.86.67-1.15,1.2-.28.52-.42,1.12-.42,1.81s.14,1.32.42,1.85c.29.52.68.92,1.15,1.2.49.27,1.01.41,1.58.41s1.1-.14,1.58-.41c.49-.28.87-.68,1.15-1.2.28-.53.42-1.15.42-1.87Z"/>
      <path class="cls-29" d="m180.79,177.89v-1.41h3.19v12.25h-1.56v-10.85h-1.63Zm18.05,4.76c.43.07.82.24,1.17.53.36.28.64.63.85,1.05.21.42.32.86.32,1.34,0,.6-.15,1.14-.46,1.63-.31.48-.75.85-1.34,1.14-.58.27-1.26.41-2.05.41h-4.41v-11.81h4.24c.8,0,1.49.14,2.05.41.57.26.99.62,1.27,1.07.28.45.42.96.42,1.52,0,.7-.19,1.28-.58,1.75-.37.45-.87.78-1.49.98Zm-4.37-.63h2.59c.72,0,1.28-.17,1.68-.51.39-.34.59-.81.59-1.41s-.2-1.07-.59-1.41c-.4-.34-.97-.51-1.71-.51h-2.56v3.83Zm2.73,5.44c.77,0,1.37-.18,1.8-.54.43-.36.64-.87.64-1.51s-.23-1.17-.68-1.54c-.45-.38-1.06-.58-1.81-.58h-2.68v4.17h2.73Zm6.92-9.53c-.29,0-.54-.1-.75-.31-.2-.2-.3-.45-.3-.75s.1-.54.3-.74c.2-.2.45-.31.75-.31s.52.1.71.31c.2.2.3.45.3.74s-.1.54-.3.75c-.19.2-.43.31-.71.31Zm.75,1.51v9.29h-1.54v-9.29h1.54Zm7.15-.17c1.13,0,2.04.35,2.75,1.03.7.68,1.05,1.66,1.05,2.95v5.47h-1.53v-5.25c0-.93-.23-1.63-.7-2.12-.46-.5-1.1-.75-1.9-.75s-1.46.26-1.95.76c-.47.51-.71,1.25-.71,2.22v5.14h-1.54v-9.29h1.54v1.32c.3-.48.72-.84,1.24-1.1.53-.26,1.11-.39,1.75-.39Zm5.74,4.78c0-.95.19-1.78.58-2.49.38-.72.91-1.28,1.58-1.68.68-.4,1.43-.59,2.25-.59s1.52.18,2.12.53c.6.35,1.04.79,1.34,1.32v-1.7h1.56v9.29h-1.56v-1.73c-.31.54-.76.99-1.37,1.36-.6.35-1.3.53-2.1.53s-1.57-.2-2.24-.61c-.67-.41-1.19-.98-1.58-1.71-.38-.74-.58-1.57-.58-2.51Zm7.87.02c0-.7-.14-1.31-.42-1.83-.28-.52-.67-.92-1.15-1.19-.47-.28-1-.42-1.58-.42s-1.1.14-1.58.41c-.47.27-.85.67-1.14,1.19-.28.52-.42,1.13-.42,1.83s.14,1.33.42,1.87c.28.52.66.92,1.14,1.2.47.27,1,.41,1.58.41s1.1-.14,1.58-.41c.49-.28.87-.68,1.15-1.2.28-.53.42-1.15.42-1.85Zm5.71-3.12c.27-.53.66-.94,1.15-1.24.51-.29,1.12-.44,1.85-.44v1.59h-.41c-1.73,0-2.59.94-2.59,2.81v5.05h-1.54v-9.29h1.54v1.51Zm12.78-1.51l-5.59,13.66h-1.59l1.83-4.47-3.75-9.19h1.71l2.91,7.53,2.88-7.53h1.59Z"/>
      <path class="cls-29" d="m390.29,185.82c0,.54-.14,1.06-.41,1.56-.27.49-.67.89-1.2,1.22-.52.33-1.15.51-1.88.56v1.37h-.92v-1.37c-1.03-.09-1.86-.42-2.51-.98-.64-.58-.97-1.3-.98-2.19h1.64c.04.47.22.89.53,1.24.32.35.76.57,1.32.66v-4.24c-.76-.19-1.37-.39-1.83-.59-.46-.2-.86-.52-1.19-.95-.33-.43-.49-1.01-.49-1.73,0-.91.32-1.67.95-2.27.64-.6,1.5-.93,2.56-1v-1.41h.92v1.41c.96.08,1.73.39,2.32.93.59.53.93,1.23,1.02,2.08h-1.64c-.06-.4-.23-.75-.53-1.07-.29-.33-.68-.54-1.17-.64v4.14c.75.19,1.35.39,1.81.59.47.19.87.5,1.19.93.33.43.49,1.01.49,1.75Zm-6.34-5.53c0,.55.16.98.49,1.27.33.29.81.54,1.44.73v-3.92c-.59.06-1.06.25-1.41.58-.35.32-.53.76-.53,1.34Zm2.85,7.61c.61-.07,1.08-.29,1.42-.66.35-.37.53-.82.53-1.34,0-.55-.17-.98-.51-1.27-.34-.31-.82-.55-1.44-.73v4Zm10.37-5.22c-.63-.25-1.12-.61-1.46-1.08-.34-.48-.51-1.05-.51-1.73,0-.61.15-1.16.46-1.64.3-.5.76-.89,1.36-1.17.61-.29,1.35-.44,2.2-.44s1.59.15,2.19.44c.61.28,1.07.67,1.37,1.17.32.49.48,1.03.48,1.64,0,.65-.18,1.23-.53,1.73-.35.49-.83.85-1.44,1.08.7.21,1.25.59,1.66,1.14.42.53.63,1.17.63,1.93s-.18,1.38-.54,1.93c-.36.54-.88.97-1.54,1.27-.65.29-1.41.44-2.27.44s-1.62-.15-2.27-.44c-.65-.31-1.15-.73-1.51-1.27-.36-.55-.54-1.2-.54-1.93s.2-1.41.61-1.95c.41-.54.96-.92,1.66-1.12Zm4.59-2.63c0-.69-.23-1.22-.68-1.59s-1.07-.56-1.86-.56-1.4.19-1.85.56c-.45.37-.68.91-.68,1.61,0,.63.23,1.14.69,1.53.48.38,1.09.58,1.83.58s1.37-.19,1.83-.58c.48-.4.71-.91.71-1.54Zm-2.54,3.3c-.84,0-1.52.2-2.05.59-.53.38-.8.97-.8,1.74,0,.72.25,1.31.76,1.75.52.44,1.21.66,2.09.66s1.56-.22,2.07-.66c.51-.44.76-1.02.76-1.75s-.26-1.33-.78-1.73c-.52-.41-1.2-.61-2.05-.61Zm6.4-.56c0-1.94.32-3.46.95-4.54.63-1.1,1.74-1.64,3.32-1.64s2.67.55,3.3,1.64c.63,1.08.95,2.6.95,4.54s-.32,3.51-.95,4.61c-.63,1.1-1.73,1.64-3.3,1.64s-2.69-.55-3.32-1.64c-.63-1.1-.95-2.63-.95-4.61Zm7,0c0-.98-.07-1.81-.2-2.49-.12-.69-.39-1.24-.8-1.66-.4-.42-.97-.63-1.73-.63s-1.36.21-1.76.63c-.4.42-.66.97-.8,1.66-.12.68-.19,1.51-.19,2.49s.06,1.87.19,2.56c.14.69.4,1.24.8,1.66.41.42.99.63,1.76.63s1.33-.21,1.73-.63c.41-.42.67-.97.8-1.66.14-.69.2-1.54.2-2.56Zm3.64,0c0-1.94.32-3.46.95-4.54.63-1.1,1.74-1.64,3.32-1.64s2.67.55,3.3,1.64c.63,1.08.95,2.6.95,4.54s-.32,3.51-.95,4.61c-.63,1.1-1.73,1.64-3.3,1.64s-2.69-.55-3.32-1.64c-.63-1.1-.95-2.63-.95-4.61Zm7,0c0-.98-.07-1.81-.2-2.49-.12-.69-.39-1.24-.8-1.66-.4-.42-.97-.63-1.73-.63s-1.36.21-1.76.63c-.4.42-.66.97-.8,1.66-.12.68-.19,1.51-.19,2.49s.06,1.87.19,2.56c.14.69.4,1.24.8,1.66.41.42.99.63,1.76.63s1.33-.21,1.73-.63c.41-.42.67-.97.8-1.66.13-.69.2-1.54.2-2.56Z"/>
      <g>
        <path class="cls-54" d="m233.04,151.05c-.41-.87-1.01-1.53-1.79-2-.78-.48-1.69-.72-2.72-.72s-1.97.24-2.81.72c-.82.47-1.48,1.15-1.96,2.04-.47.88-.7,1.9-.7,3.06s.23,2.18.7,3.06c.48.88,1.13,1.56,1.96,2.04.84.47,1.77.7,2.81.7,1.45,0,2.64-.43,3.57-1.3.94-.87,1.48-2.04,1.64-3.51h-5.91v-1.57h7.97v1.49c-.11,1.22-.5,2.34-1.15,3.36-.65,1.01-1.51,1.81-2.57,2.4-1.06.58-2.25.87-3.55.87-1.38,0-2.63-.32-3.76-.96-1.13-.65-2.03-1.55-2.7-2.7-.65-1.15-.98-2.45-.98-3.89s.33-2.74.98-3.89c.67-1.16,1.57-2.06,2.7-2.7,1.13-.65,2.39-.98,3.76-.98,1.57,0,2.96.39,4.17,1.17,1.22.78,2.11,1.88,2.66,3.3h-2.32Zm12.96,2.89c.54.09,1.03.31,1.47.66.45.36.81.79,1.06,1.32.27.52.4,1.08.4,1.68,0,.75-.19,1.43-.57,2.04-.38.6-.94,1.07-1.68,1.42-.72.34-1.58.51-2.57.51h-5.53v-14.82h5.32c1.01,0,1.86.17,2.57.51.71.33,1.24.77,1.6,1.34.35.57.53,1.21.53,1.91,0,.88-.24,1.61-.72,2.19-.47.57-1.09.98-1.87,1.23Zm-5.49-.79h3.25c.91,0,1.61-.21,2.1-.64s.74-1.01.74-1.76-.25-1.34-.74-1.76c-.5-.43-1.21-.64-2.15-.64h-3.21v4.81Zm3.42,6.83c.96,0,1.71-.23,2.25-.68.54-.45.81-1.08.81-1.89s-.28-1.47-.85-1.93c-.57-.48-1.32-.72-2.28-.72h-3.36v5.23h3.42Zm17.8-8.89c0,1.23-.43,2.26-1.28,3.08-.84.81-2.12,1.21-3.85,1.21h-2.85v6.19h-1.94v-14.82h4.78c1.67,0,2.94.4,3.81,1.21.88.81,1.32,1.85,1.32,3.12Zm-5.12,2.7c1.08,0,1.87-.23,2.38-.7.51-.47.77-1.13.77-2,0-1.83-1.05-2.74-3.15-2.74h-2.85v5.44h2.85Zm15.52-7.04v9.38c0,1.32.32,2.3.96,2.93.65.64,1.55.96,2.7.96s2.02-.32,2.66-.96c.65-.64.98-1.62.98-2.93v-9.38h1.93v9.36c0,1.23-.25,2.27-.74,3.13-.5.84-1.17,1.46-2.02,1.87-.84.41-1.78.62-2.83.62s-2-.21-2.85-.62c-.84-.41-1.5-1.04-2-1.87-.48-.85-.72-1.89-.72-3.13v-9.36h1.93Zm17.37,14.97c-.98,0-1.86-.17-2.64-.51-.77-.35-1.37-.84-1.81-1.45-.44-.62-.67-1.34-.68-2.15h2.06c.07.69.35,1.28.85,1.76.51.47,1.25.7,2.21.7s1.64-.23,2.17-.68c.54-.47.81-1.06.81-1.79,0-.57-.16-1.03-.47-1.38-.31-.35-.7-.62-1.17-.81-.47-.18-1.1-.38-1.89-.6-.98-.26-1.76-.51-2.36-.76-.58-.26-1.09-.65-1.51-1.19-.41-.55-.62-1.29-.62-2.21,0-.81.21-1.52.62-2.15.41-.62.98-1.1,1.72-1.44.75-.34,1.61-.51,2.57-.51,1.39,0,2.52.35,3.4,1.04.89.7,1.4,1.62,1.51,2.76h-2.13c-.07-.57-.37-1.06-.89-1.49-.52-.44-1.22-.66-2.08-.66-.81,0-1.47.21-1.98.64-.51.41-.77.99-.77,1.74,0,.54.15.98.45,1.32.31.34.69.6,1.13.79.45.17,1.08.37,1.89.6.98.27,1.77.54,2.36.81.6.26,1.11.66,1.53,1.21.43.54.64,1.28.64,2.21,0,.72-.19,1.4-.57,2.04-.38.64-.95,1.15-1.7,1.55s-1.64.6-2.66.6Zm12.61-14.97c1.62,0,3.01.3,4.19.91,1.19.6,2.1,1.45,2.72,2.57.64,1.12.96,2.44.96,3.96s-.32,2.83-.96,3.96c-.62,1.11-1.53,1.96-2.72,2.55-1.18.58-2.57.87-4.19.87h-4.61v-14.82h4.61Zm0,13.23c1.91,0,3.37-.5,4.38-1.51,1.01-1.02,1.51-2.45,1.51-4.27s-.51-3.28-1.53-4.32c-1.01-1.03-2.46-1.55-4.36-1.55h-2.68v11.65h2.68Z"/>
        <path class="cls-27" d="m372.65,155.88h-3.79v3.89h-2.64v-3.89h-3.79v-2.44h3.79v-3.89h2.64v3.89h3.79v2.44Zm12,1.88c0,.69-.18,1.35-.54,1.96-.35.6-.87,1.1-1.56,1.5-.68.39-1.49.61-2.42.68v1.62h-1.28v-1.64c-1.34-.12-2.41-.52-3.23-1.2-.81-.69-1.23-1.63-1.26-2.8h3.01c.08.96.57,1.54,1.48,1.74v-3.83c-.96-.24-1.74-.48-2.32-.72-.59-.24-1.1-.63-1.52-1.16-.43-.53-.64-1.26-.64-2.18,0-1.16.41-2.11,1.24-2.84.84-.74,1.92-1.16,3.25-1.26v-1.62h1.28v1.62c1.28.11,2.3.49,3.06,1.16.77.67,1.21,1.59,1.3,2.76h-3.02c-.04-.39-.18-.72-.42-1-.23-.29-.53-.5-.92-.62v3.79c1,.25,1.79.5,2.36.74.59.23,1.1.61,1.52,1.14.43.52.64,1.24.64,2.16Zm-7.37-6.17c0,.44.13.8.4,1.08.27.27.65.49,1.16.66v-3.47c-.48.07-.86.25-1.14.54-.28.29-.42.69-.42,1.18Zm2.85,8.07c.51-.09.9-.3,1.18-.62.29-.32.44-.71.44-1.16s-.14-.79-.42-1.06c-.28-.27-.68-.49-1.2-.66v3.51Zm15.11-8.83c-.13-.56-.37-.98-.7-1.26-.32-.28-.79-.42-1.4-.42-.92,0-1.6.37-2.04,1.12-.43.73-.65,1.94-.66,3.6.32-.53.79-.95,1.4-1.24.61-.31,1.28-.46,2-.46.87,0,1.64.19,2.3.56.67.37,1.19.92,1.56,1.64.37.71.56,1.56.56,2.56,0,.95-.19,1.8-.58,2.54-.37.74-.93,1.31-1.66,1.72-.74.41-1.61.62-2.62.62-1.39,0-2.48-.31-3.29-.92-.79-.61-1.34-1.47-1.66-2.56-.31-1.11-.46-2.47-.46-4.09,0-2.44.42-4.29,1.26-5.53.84-1.26,2.17-1.88,3.99-1.88,1.4,0,2.49.38,3.27,1.14.77.76,1.22,1.71,1.34,2.85h-2.61Zm-2.04,3.64c-.71,0-1.3.21-1.78.62-.48.41-.72,1.01-.72,1.8s.22,1.41.66,1.86c.45.45,1.09.68,1.9.68.72,0,1.29-.22,1.7-.66.43-.44.64-1.04.64-1.78s-.21-1.39-.62-1.84c-.4-.45-1-.68-1.78-.68Zm10.73,3.21c.11.59.35,1.04.72,1.36.39.31.9.46,1.54.46.83,0,1.43-.34,1.8-1.02.37-.69.56-1.86.56-3.49-.31.43-.74.76-1.3,1-.55.24-1.14.36-1.78.36-.86,0-1.63-.17-2.32-.52-.68-.36-1.22-.89-1.62-1.58-.4-.71-.6-1.56-.6-2.56,0-1.48.44-2.66,1.32-3.53.88-.88,2.08-1.32,3.61-1.32,1.9,0,3.23.61,4.01,1.82.79,1.21,1.18,3.04,1.18,5.49,0,1.74-.15,3.16-.46,4.27-.29,1.11-.81,1.95-1.54,2.52-.72.57-1.71.86-2.96.86-.99,0-1.83-.19-2.52-.56-.7-.39-1.23-.89-1.6-1.5-.36-.63-.57-1.32-.62-2.06h2.6Zm2.12-3.6c.7,0,1.24-.21,1.64-.64.4-.43.6-1,.6-1.72,0-.79-.21-1.4-.64-1.82-.41-.44-.98-.66-1.7-.66s-1.3.23-1.72.68c-.41.44-.62,1.03-.62,1.76s.2,1.29.6,1.74c.41.44,1.03.66,1.84.66Zm14.94-3.24c-.13-.56-.37-.98-.7-1.26-.32-.28-.79-.42-1.4-.42-.92,0-1.6.37-2.04,1.12-.43.73-.65,1.94-.66,3.6.32-.53.79-.95,1.4-1.24.61-.31,1.28-.46,2-.46.87,0,1.64.19,2.3.56.67.37,1.19.92,1.56,1.64.37.71.56,1.56.56,2.56,0,.95-.19,1.8-.58,2.54-.37.74-.93,1.31-1.66,1.72-.73.41-1.61.62-2.62.62-1.39,0-2.48-.31-3.29-.92-.79-.61-1.34-1.47-1.66-2.56-.31-1.11-.46-2.47-.46-4.09,0-2.44.42-4.29,1.26-5.53.84-1.26,2.17-1.88,3.99-1.88,1.4,0,2.49.38,3.27,1.14.77.76,1.22,1.71,1.34,2.85h-2.6Zm-2.04,3.64c-.71,0-1.3.21-1.78.62-.48.41-.72,1.01-.72,1.8s.22,1.41.66,1.86c.46.45,1.09.68,1.9.68.72,0,1.29-.22,1.7-.66.43-.44.64-1.04.64-1.78s-.21-1.39-.62-1.84c-.4-.45-.99-.68-1.78-.68Zm9.05,7.45c-.51,0-.93-.15-1.26-.46-.32-.32-.48-.71-.48-1.18s.16-.86.48-1.16c.33-.32.75-.48,1.26-.48s.9.16,1.22.48c.32.31.48.69.48,1.16s-.16.86-.48,1.18c-.32.31-.73.46-1.22.46Zm3.5-12.16v-2.58h4.83v14.6h-2.88v-12.02h-1.94Zm17.61-.16h-6.49v3.42c.28-.35.68-.63,1.2-.84.52-.23,1.07-.34,1.66-.34,1.07,0,1.94.23,2.62.7.68.47,1.18,1.07,1.48,1.8.31.72.46,1.5.46,2.32,0,1.54-.44,2.77-1.32,3.71-.87.93-2.11,1.4-3.73,1.4-1.52,0-2.74-.38-3.65-1.14-.91-.76-1.42-1.76-1.54-2.98h2.72c.12.53.39.96.8,1.28.43.32.97.48,1.62.48.79,0,1.38-.25,1.78-.74.4-.49.6-1.15.6-1.96s-.21-1.46-.62-1.88c-.4-.44-.99-.66-1.78-.66-.56,0-1.03.14-1.4.42-.37.28-.64.65-.8,1.12h-2.68v-8.57h9.05v2.46Z"/>
        <path class="cls-19" d="m262.41,161.46l6.11-15.06"/>
      </g>
      <path class="cls-41" d="m439.28,177.41l7.34,12.66h-14.68l7.34-12.66Z"/>
      <rect class="cls-21" x="179.01" y="140.25" width="27.74" height="27.63" shape-rendering="crispEdges"/>
      <rect class="cls-6" x="70.51" y="343.42" width="416.04" height="89.02" rx="15.41" ry="15.41"/>
      <path class="cls-54" d="m276.49,370.22v10.95c0,1.22-.38,2.2-1.13,2.93-.75.72-1.74,1.08-2.98,1.08s-2.25-.37-3-1.11c-.75-.75-1.13-1.77-1.13-3.06h1.93c.01.72.2,1.31.55,1.77.37.45.91.68,1.64.68s1.26-.21,1.62-.64c.36-.44.53-.99.53-1.66v-10.95h1.96Zm13.93,4.34c0,1.23-.42,2.26-1.28,3.08-.84.81-2.12,1.21-3.85,1.21h-2.85v6.19h-1.93v-14.82h4.78c1.67,0,2.94.4,3.81,1.21.88.81,1.32,1.85,1.32,3.13Zm-5.12,2.7c1.08,0,1.87-.23,2.38-.7.51-.47.77-1.13.77-2,0-1.83-1.05-2.74-3.15-2.74h-2.85v5.44h2.85Zm18.12-7.04l-4.83,9.23v5.59h-1.93v-5.59l-4.85-9.23h2.15l3.66,7.51,3.66-7.51h2.15Z"/>
      <path class="cls-54" d="m99.8,371.22v-1.66h3.77v14.48h-1.84v-12.82h-1.92Zm7.06,9.6v-1.38l7.03-9.74h2.18v9.54h2v1.58h-2v3.23h-1.8v-3.23h-7.41Zm7.49-9.21l-5.39,7.63h5.39v-7.63Zm7.03,12.56c-.35,0-.64-.12-.88-.36-.24-.24-.36-.53-.36-.88s.12-.64.36-.88c.24-.24.53-.36.88-.36s.62.12.84.36c.24.24.36.53.36.88s-.12.64-.36.88c-.23.24-.51.36-.84.36Zm0-8.57c-.35,0-.64-.12-.88-.36-.24-.24-.36-.53-.36-.88s.12-.64.36-.88c.24-.24.53-.36.88-.36s.62.12.84.36c.24.24.36.53.36.88s-.12.64-.36.88c-.23.24-.51.36-.84.36Zm3.94-2.38c.09-1.23.57-2.19,1.42-2.89.85-.69,1.96-1.04,3.32-1.04.91,0,1.69.17,2.34.5.67.32,1.17.76,1.5,1.32.35.56.52,1.2.52,1.9,0,.83-.24,1.54-.72,2.14-.47.6-1.08.99-1.84,1.16v.1c.87.21,1.56.63,2.06,1.26.51.63.76,1.45.76,2.46,0,.76-.17,1.45-.52,2.06-.35.6-.87,1.08-1.56,1.42-.69.35-1.53.52-2.5.52-1.42,0-2.58-.37-3.49-1.1-.91-.75-1.42-1.8-1.52-3.16h1.76c.09.8.42,1.46.98,1.96.56.51,1.31.76,2.24.76s1.64-.24,2.12-.72c.49-.49.74-1.13.74-1.9,0-1-.33-1.72-1-2.16s-1.68-.66-3.03-.66h-.46v-1.52h.48c1.23-.01,2.16-.21,2.79-.6.63-.4.94-1.01.94-1.84,0-.71-.23-1.28-.7-1.7-.45-.43-1.11-.64-1.96-.64s-1.5.21-2,.64c-.51.43-.81,1-.9,1.72h-1.78Zm12.44,3.45c0-2.3.37-4.09,1.12-5.37.75-1.3,2.06-1.94,3.93-1.94s3.16.65,3.91,1.94c.75,1.28,1.12,3.07,1.12,5.37s-.37,4.15-1.12,5.45c-.75,1.29-2.05,1.94-3.91,1.94s-3.18-.65-3.93-1.94c-.75-1.3-1.12-3.11-1.12-5.45Zm8.27,0c0-1.16-.08-2.14-.24-2.95-.15-.81-.46-1.47-.94-1.96-.47-.49-1.15-.74-2.04-.74s-1.6.25-2.08.74c-.47.49-.78,1.15-.94,1.96-.15.8-.22,1.78-.22,2.95s.07,2.21.22,3.02c.16.81.47,1.47.94,1.96.48.49,1.18.74,2.08.74s1.58-.25,2.04-.74c.48-.49.79-1.15.94-1.96.16-.82.24-1.82.24-3.02Z"/>
      <path class="cls-29" d="m110.33,401.15l-4.71,11.05h-1.56l4.78-10.9h-6.54v-1.32h8.03v1.17Zm13.16-.76v1.25h-5.14v3.98h4.17v1.26h-4.17v5.32h-1.54v-11.81h6.68Zm10.34,6.81c0,.29-.02.6-.05.93h-7.42c.06.92.37,1.63.93,2.15.58.51,1.27.76,2.08.76.67,0,1.22-.15,1.66-.46.45-.32.77-.74.95-1.26h1.66c-.25.89-.75,1.62-1.49,2.19-.75.55-1.67.83-2.78.83-.88,0-1.67-.2-2.37-.59-.69-.4-1.23-.96-1.63-1.68-.4-.73-.59-1.58-.59-2.54s.19-1.8.58-2.53c.38-.72.92-1.28,1.61-1.66.7-.4,1.5-.59,2.41-.59s1.66.19,2.34.58,1.2.92,1.56,1.59c.37.67.56,1.42.56,2.27Zm-1.59-.32c0-.59-.13-1.09-.39-1.51-.26-.43-.62-.75-1.07-.97-.44-.23-.93-.34-1.47-.34-.78,0-1.45.25-2,.75-.54.5-.85,1.19-.93,2.07h5.86Zm5.17-2.24c.32-.55.78-1.01,1.39-1.36s1.31-.52,2.09-.52c.84,0,1.59.2,2.25.59.67.39,1.19.95,1.58,1.68.38.71.58,1.54.58,2.49s-.19,1.77-.58,2.51c-.38.73-.92,1.3-1.59,1.71-.67.41-1.41.61-2.24.61s-1.51-.17-2.12-.52c-.6-.35-1.05-.8-1.36-1.34v1.71h-1.54v-12.54h1.54v4.98Zm6.31,2.88c0-.7-.14-1.31-.42-1.83-.28-.52-.67-.91-1.15-1.19-.47-.27-1-.41-1.58-.41s-1.09.14-1.58.42c-.47.27-.86.67-1.15,1.2-.28.52-.42,1.12-.42,1.81s.14,1.32.42,1.85c.29.52.68.92,1.15,1.2.49.27,1.01.41,1.58.41s1.1-.14,1.58-.41c.49-.28.87-.68,1.15-1.2.28-.53.42-1.15.42-1.86Z"/>
      <path class="cls-29" d="m182.61,401.36v-1.41h3.19v12.26h-1.56v-10.85h-1.63Zm18.05,4.76c.43.07.82.24,1.17.52.36.28.64.63.85,1.05.21.42.32.87.32,1.34,0,.6-.15,1.14-.46,1.63-.3.48-.75.85-1.34,1.14-.58.27-1.26.41-2.05.41h-4.41v-11.81h4.24c.8,0,1.49.14,2.05.41.57.26.99.61,1.27,1.07.28.45.42.96.42,1.53,0,.7-.19,1.28-.58,1.75-.37.45-.87.78-1.49.98Zm-4.37-.63h2.59c.72,0,1.28-.17,1.68-.51.39-.34.59-.81.59-1.41s-.2-1.07-.59-1.41c-.4-.34-.97-.51-1.71-.51h-2.56v3.83Zm2.73,5.44c.77,0,1.37-.18,1.8-.54.43-.36.64-.86.64-1.51s-.23-1.17-.68-1.54c-.45-.38-1.06-.58-1.81-.58h-2.68v4.17h2.73Zm6.92-9.53c-.29,0-.54-.1-.75-.3-.2-.2-.3-.45-.3-.75s.1-.54.3-.75.45-.3.75-.3.52.1.71.3c.2.2.3.45.3.75s-.1.54-.3.75c-.19.2-.43.3-.71.3Zm.75,1.51v9.29h-1.54v-9.29h1.54Zm7.15-.17c1.13,0,2.04.34,2.75,1.03.7.68,1.05,1.66,1.05,2.95v5.48h-1.53v-5.26c0-.93-.23-1.63-.7-2.12-.46-.5-1.1-.75-1.9-.75s-1.46.25-1.95.76c-.47.51-.71,1.25-.71,2.22v5.14h-1.54v-9.29h1.54v1.32c.3-.47.72-.84,1.24-1.1.53-.26,1.11-.39,1.75-.39Zm5.74,4.78c0-.95.19-1.78.58-2.49.38-.72.91-1.28,1.58-1.68.68-.4,1.43-.59,2.25-.59s1.52.17,2.12.52,1.04.79,1.34,1.32v-1.7h1.56v9.29h-1.56v-1.73c-.31.54-.76.99-1.37,1.36-.6.35-1.3.52-2.1.52s-1.57-.2-2.24-.61c-.67-.41-1.19-.98-1.58-1.71-.38-.73-.58-1.57-.58-2.51Zm7.87.02c0-.7-.14-1.31-.42-1.83-.28-.52-.67-.91-1.15-1.19-.47-.28-1-.42-1.58-.42s-1.1.14-1.58.41c-.48.27-.85.67-1.14,1.19-.28.52-.42,1.13-.42,1.83s.14,1.33.42,1.86c.28.52.66.92,1.14,1.2.47.27,1,.41,1.58.41s1.1-.14,1.58-.41c.49-.28.87-.68,1.15-1.2.28-.53.42-1.15.42-1.85Zm5.71-3.12c.27-.53.66-.94,1.15-1.24.51-.29,1.12-.44,1.85-.44v1.59h-.41c-1.73,0-2.59.94-2.59,2.81v5.05h-1.54v-9.29h1.54v1.51Zm12.78-1.51l-5.59,13.66h-1.59l1.83-4.48-3.75-9.19h1.71l2.92,7.53,2.88-7.53h1.59Z"/>
      <path class="cls-29" d="m388.78,409.29c0,.54-.14,1.06-.41,1.56-.27.49-.67.89-1.2,1.22-.52.33-1.15.51-1.88.56v1.37h-.92v-1.37c-1.03-.09-1.86-.42-2.51-.98-.64-.58-.97-1.3-.98-2.19h1.64c.05.48.22.89.53,1.24.32.35.76.57,1.32.66v-4.24c-.76-.19-1.37-.39-1.83-.59-.46-.2-.86-.52-1.19-.95-.33-.43-.49-1.01-.49-1.73,0-.91.32-1.67.95-2.27.64-.6,1.5-.93,2.56-1v-1.41h.92v1.41c.96.08,1.73.39,2.32.93.59.53.93,1.23,1.02,2.08h-1.64c-.06-.4-.23-.75-.53-1.07-.29-.33-.68-.54-1.17-.64v4.14c.75.19,1.35.39,1.81.59.48.19.87.5,1.19.93.33.43.49,1.01.49,1.75Zm-6.34-5.53c0,.55.16.98.49,1.27.33.29.81.54,1.44.73v-3.92c-.59.06-1.06.25-1.41.58-.35.32-.52.76-.52,1.34Zm2.85,7.61c.61-.07,1.08-.29,1.42-.66.35-.37.53-.82.53-1.34,0-.55-.17-.98-.51-1.27-.34-.3-.82-.55-1.44-.73v4Zm7.72-9.7v-1.41h3.19v12.25h-1.56v-10.85h-1.63Zm6.41,8.71l-1.9,4.56h-1.03l1.24-4.56h1.7Zm.24-4.12c0-1.94.32-3.46.95-4.54.63-1.1,1.74-1.64,3.32-1.64s2.67.55,3.31,1.64c.63,1.08.95,2.6.95,4.54s-.32,3.51-.95,4.61c-.63,1.1-1.73,1.64-3.31,1.64s-2.69-.55-3.32-1.64c-.63-1.1-.95-2.63-.95-4.61Zm7,0c0-.98-.07-1.81-.2-2.49-.12-.69-.39-1.24-.8-1.66-.39-.42-.97-.63-1.73-.63s-1.36.21-1.76.63c-.4.42-.66.97-.8,1.66-.12.68-.19,1.51-.19,2.49s.06,1.87.19,2.56c.13.69.4,1.24.8,1.66.41.42.99.63,1.76.63s1.33-.21,1.73-.63c.41-.42.67-.97.8-1.66.14-.69.2-1.54.2-2.56Zm2.37,0c0-1.94.32-3.46.95-4.54.63-1.1,1.74-1.64,3.32-1.64s2.67.55,3.31,1.64c.63,1.08.95,2.6.95,4.54s-.32,3.51-.95,4.61c-.63,1.1-1.74,1.64-3.31,1.64s-2.69-.55-3.32-1.64c-.63-1.1-.95-2.63-.95-4.61Zm7,0c0-.98-.07-1.81-.2-2.49-.12-.69-.39-1.24-.8-1.66-.4-.42-.97-.63-1.73-.63s-1.36.21-1.76.63c-.4.42-.66.97-.8,1.66-.12.68-.19,1.51-.19,2.49s.06,1.87.19,2.56c.14.69.4,1.24.8,1.66.41.42.99.63,1.76.63s1.33-.21,1.73-.63c.41-.42.67-.97.8-1.66.14-.69.2-1.54.2-2.56Zm2.37,0c0-1.94.32-3.46.95-4.54.63-1.1,1.74-1.64,3.32-1.64s2.67.55,3.3,1.64c.63,1.08.95,2.6.95,4.54s-.32,3.51-.95,4.61c-.63,1.1-1.73,1.64-3.3,1.64s-2.69-.55-3.32-1.64c-.63-1.1-.95-2.63-.95-4.61Zm7,0c0-.98-.07-1.81-.2-2.49-.12-.69-.39-1.24-.8-1.66-.39-.42-.97-.63-1.73-.63s-1.36.21-1.76.63c-.4.42-.66.97-.8,1.66-.12.68-.19,1.51-.19,2.49s.06,1.87.19,2.56c.14.69.4,1.24.8,1.66.41.42.99.63,1.76.63s1.33-.21,1.73-.63c.41-.42.67-.97.8-1.66.14-.69.2-1.54.2-2.56Z"/>
      <g>
        <path class="cls-54" d="m232.81,374.52c-.41-.86-1.01-1.53-1.79-2-.78-.48-1.69-.72-2.72-.72s-1.97.24-2.81.72c-.82.47-1.47,1.15-1.96,2.04-.47.88-.7,1.9-.7,3.06s.23,2.18.7,3.06c.48.88,1.13,1.56,1.96,2.04.84.47,1.77.7,2.81.7,1.45,0,2.64-.43,3.57-1.3.93-.87,1.48-2.04,1.64-3.51h-5.91v-1.57h7.98v1.49c-.11,1.22-.5,2.34-1.15,3.36-.65,1.01-1.51,1.81-2.57,2.4-1.06.58-2.25.87-3.55.87-1.38,0-2.63-.32-3.76-.96-1.13-.65-2.03-1.55-2.7-2.7-.65-1.15-.98-2.45-.98-3.89s.33-2.74.98-3.89c.67-1.16,1.57-2.06,2.7-2.7,1.13-.65,2.39-.98,3.76-.98,1.57,0,2.96.39,4.17,1.17,1.22.78,2.1,1.88,2.66,3.3h-2.32Zm12.96,2.89c.54.08,1.03.3,1.47.66.45.36.81.79,1.06,1.32.27.52.4,1.08.4,1.68,0,.75-.19,1.43-.57,2.04-.38.6-.94,1.07-1.68,1.42-.72.34-1.58.51-2.57.51h-5.53v-14.82h5.32c1.01,0,1.86.17,2.57.51.71.33,1.24.77,1.59,1.34.35.57.53,1.21.53,1.91,0,.88-.24,1.61-.72,2.19-.47.57-1.09.98-1.87,1.23Zm-5.49-.79h3.25c.91,0,1.61-.21,2.1-.64.5-.42.74-1.01.74-1.76s-.25-1.34-.74-1.77c-.5-.42-1.21-.64-2.15-.64h-3.21v4.81Zm3.42,6.83c.96,0,1.72-.23,2.25-.68.54-.45.81-1.09.81-1.89s-.28-1.47-.85-1.93c-.57-.48-1.33-.72-2.28-.72h-3.36v5.23h3.42Zm17.8-8.89c0,1.23-.43,2.26-1.28,3.08-.84.81-2.12,1.21-3.85,1.21h-2.85v6.19h-1.93v-14.82h4.78c1.67,0,2.94.4,3.81,1.21.88.81,1.32,1.85,1.32,3.13Zm-5.12,2.7c1.08,0,1.87-.23,2.38-.7.51-.47.76-1.13.76-2,0-1.83-1.05-2.74-3.15-2.74h-2.85v5.44h2.85Z"/>
        <path class="cls-27" d="m398.08,379.35h-3.79v3.89h-2.64v-3.89h-3.79v-2.44h3.79v-3.89h2.64v3.89h3.79v2.44Zm11.99,1.88c0,.7-.18,1.35-.54,1.96-.35.6-.87,1.1-1.56,1.5-.68.39-1.49.61-2.42.68v1.62h-1.28v-1.64c-1.33-.12-2.41-.52-3.22-1.2-.82-.69-1.24-1.63-1.26-2.8h3.01c.08.96.57,1.54,1.48,1.74v-3.83c-.96-.24-1.74-.48-2.32-.72-.59-.24-1.1-.63-1.52-1.16-.43-.53-.64-1.26-.64-2.18,0-1.16.41-2.11,1.24-2.85.84-.73,1.92-1.15,3.24-1.26v-1.62h1.28v1.62c1.28.11,2.3.49,3.07,1.16.77.67,1.21,1.59,1.3,2.77h-3.02c-.04-.39-.18-.72-.42-1-.23-.29-.54-.5-.92-.62v3.79c1,.25,1.79.5,2.36.74.59.23,1.1.61,1.52,1.14.43.52.64,1.24.64,2.16Zm-7.37-6.17c0,.44.13.8.4,1.08.27.27.65.49,1.16.66v-3.46c-.48.07-.86.25-1.14.54-.28.29-.42.69-.42,1.18Zm2.84,8.07c.51-.09.9-.3,1.18-.62.29-.32.44-.71.44-1.16s-.14-.79-.42-1.06c-.28-.27-.68-.49-1.2-.66v3.51Zm9.98-5.61c-1.34-.7-2-1.77-2-3.23,0-.72.18-1.38.54-1.96.37-.6.93-1.08,1.66-1.42.75-.36,1.66-.54,2.73-.54s1.97.18,2.7.54c.75.35,1.3.82,1.66,1.42.37.59.56,1.24.56,1.96s-.18,1.38-.54,1.94c-.36.55-.84.97-1.44,1.28.73.32,1.31.79,1.72,1.4.41.61.62,1.34.62,2.18,0,.91-.23,1.7-.7,2.38-.45.67-1.08,1.18-1.88,1.54-.8.36-1.7.54-2.7.54s-1.9-.18-2.71-.54c-.79-.36-1.42-.87-1.88-1.54-.45-.68-.68-1.48-.68-2.38,0-.84.21-1.57.62-2.18.41-.63.99-1.1,1.72-1.4Zm5.13-2.83c0-.65-.2-1.16-.6-1.52-.39-.36-.92-.54-1.6-.54s-1.2.18-1.6.54c-.39.36-.58.87-.58,1.54,0,.6.2,1.08.6,1.44.41.36.94.54,1.58.54s1.17-.18,1.58-.54c.41-.37.62-.86.62-1.46Zm-2.2,4.05c-.76,0-1.38.19-1.86.58-.47.39-.7.94-.7,1.66,0,.67.23,1.21.68,1.64.47.41,1.1.62,1.88.62s1.41-.21,1.86-.64c.45-.43.68-.97.68-1.62,0-.71-.23-1.26-.7-1.64-.47-.4-1.08-.6-1.84-.6Zm10.15-1.22c-1.33-.7-2-1.77-2-3.23,0-.72.18-1.38.54-1.96.37-.6.93-1.08,1.66-1.42.75-.36,1.66-.54,2.73-.54s1.97.18,2.7.54c.75.35,1.3.82,1.66,1.42.37.59.56,1.24.56,1.96s-.18,1.38-.54,1.94c-.36.55-.84.97-1.44,1.28.73.32,1.31.79,1.72,1.4.41.61.62,1.34.62,2.18,0,.91-.23,1.7-.7,2.38-.45.67-1.08,1.18-1.88,1.54-.8.36-1.7.54-2.7.54s-1.9-.18-2.71-.54c-.79-.36-1.41-.87-1.88-1.54-.45-.68-.68-1.48-.68-2.38,0-.84.21-1.57.62-2.18.41-.63.99-1.1,1.72-1.4Zm5.13-2.83c0-.65-.2-1.16-.6-1.52-.39-.36-.92-.54-1.6-.54s-1.2.18-1.6.54c-.39.36-.58.87-.58,1.54,0,.6.2,1.08.6,1.44.41.36.94.54,1.58.54s1.17-.18,1.58-.54c.41-.37.62-.86.62-1.46Zm-2.2,4.05c-.76,0-1.38.19-1.86.58-.47.39-.7.94-.7,1.66,0,.67.23,1.21.68,1.64.47.41,1.1.62,1.88.62s1.41-.21,1.86-.64c.45-.43.68-.97.68-1.62,0-.71-.23-1.26-.7-1.64-.47-.4-1.08-.6-1.84-.6Zm7.7-.98c0-2.31.41-4.12,1.24-5.43.84-1.31,2.23-1.96,4.17-1.96s3.32.65,4.15,1.96c.84,1.31,1.26,3.12,1.26,5.43s-.42,4.15-1.26,5.47c-.83,1.32-2.21,1.98-4.15,1.98s-3.33-.66-4.17-1.98c-.83-1.32-1.24-3.14-1.24-5.47Zm8.05,0c0-.99-.07-1.82-.2-2.48-.12-.68-.37-1.24-.76-1.66-.37-.43-.93-.64-1.68-.64s-1.32.21-1.7.64c-.37.43-.63.98-.76,1.66-.12.67-.18,1.5-.18,2.48s.06,1.87.18,2.56c.12.68.37,1.24.76,1.66.39.41.95.62,1.7.62s1.32-.21,1.7-.62c.39-.43.64-.98.76-1.66.12-.69.18-1.55.18-2.56Z"/>
        <path class="cls-19" d="m262.41,384.92l6.11-15.06"/>
      </g>
      <path class="cls-41" d="m441.1,400.87l7.34,12.66h-14.68l7.34-12.66Z"/>
      <rect class="cls-21" x="179.52" y="364.31" width="27.62" height="27.62" shape-rendering="crispEdges"/>
      <rect class="cls-9" x="135.92" y="231.69" width="416.04" height="89.02" rx="15.42" ry="15.42"/>
      <path class="cls-54" d="m165.18,260.48v-1.66h3.77v14.49h-1.84v-12.83h-1.92Zm7.46,1.98c.09-1.23.57-2.19,1.42-2.88.86-.69,1.96-1.04,3.33-1.04.91,0,1.69.17,2.35.5.67.32,1.17.76,1.5,1.32.35.56.52,1.2.52,1.9,0,.83-.24,1.54-.72,2.14-.47.6-1.08.99-1.84,1.16v.1c.87.21,1.56.64,2.06,1.26s.76,1.45.76,2.46c0,.76-.17,1.45-.52,2.06-.35.6-.87,1.08-1.56,1.42-.7.35-1.53.52-2.51.52-1.42,0-2.58-.37-3.49-1.1-.91-.75-1.42-1.8-1.52-3.17h1.76c.09.8.42,1.46.98,1.96.56.51,1.31.76,2.24.76s1.64-.24,2.12-.72c.49-.49.74-1.13.74-1.9,0-1-.33-1.72-1-2.16-.67-.44-1.68-.66-3.03-.66h-.46v-1.52h.48c1.23-.01,2.16-.21,2.79-.6.63-.4.94-1.01.94-1.84,0-.71-.23-1.28-.7-1.7-.45-.43-1.11-.64-1.96-.64s-1.5.21-2,.64c-.51.43-.81,1-.9,1.72h-1.78Zm13.32,10.96c-.35,0-.64-.12-.88-.36-.24-.24-.36-.53-.36-.88s.12-.64.36-.88c.24-.24.53-.36.88-.36s.61.12.84.36c.24.24.36.54.36.88s-.12.64-.36.88c-.23.24-.51.36-.84.36Zm0-8.58c-.35,0-.64-.12-.88-.36-.24-.24-.36-.53-.36-.88s.12-.64.36-.88c.24-.24.53-.36.88-.36s.61.12.84.36c.24.24.36.53.36.88s-.12.64-.36.88c-.23.24-.51.36-.84.36Zm3.54,5.23v-1.38l7.03-9.74h2.18v9.54h2v1.58h-2v3.23h-1.8v-3.23h-7.41Zm7.49-9.22l-5.39,7.64h5.39v-7.64Zm15.39-.46h-7.03v4.57c.31-.43.76-.77,1.36-1.04.6-.28,1.25-.42,1.94-.42,1.11,0,2.01.23,2.71.7.7.45,1.19,1.05,1.48,1.78.31.72.46,1.49.46,2.3,0,.96-.18,1.82-.54,2.59-.36.76-.91,1.36-1.66,1.8-.74.44-1.65.66-2.75.66-1.4,0-2.54-.36-3.41-1.08-.87-.72-1.4-1.68-1.58-2.89h1.78c.17.76.54,1.36,1.1,1.78.56.43,1.27.64,2.12.64,1.06,0,1.85-.31,2.38-.94.54-.64.8-1.48.8-2.53s-.27-1.84-.8-2.4c-.53-.58-1.32-.86-2.37-.86-.71,0-1.33.17-1.86.52-.52.33-.9.79-1.14,1.38h-1.72v-8.18h8.72v1.6Z"/>
      <path class="cls-29" d="m175.72,289.42l-4.71,11.06h-1.56l4.78-10.9h-6.55v-1.32h8.04v1.17Zm13.17-.76v1.26h-5.14v3.99h4.17v1.25h-4.17v5.33h-1.54v-11.82h6.68Zm10.34,6.82c0,.29-.02.6-.05.93h-7.43c.06.92.37,1.63.93,2.15.58.51,1.27.76,2.09.76.67,0,1.22-.15,1.66-.46.45-.32.77-.74.95-1.26h1.66c-.25.89-.75,1.62-1.49,2.19-.75.55-1.67.83-2.78.83-.88,0-1.67-.2-2.37-.59-.69-.4-1.23-.95-1.63-1.68-.4-.74-.59-1.58-.59-2.54s.19-1.8.58-2.53c.38-.72.92-1.28,1.61-1.66.7-.4,1.5-.59,2.41-.59s1.66.19,2.34.58c.68.38,1.2.92,1.56,1.59.37.67.56,1.42.56,2.27Zm-1.59-.32c0-.59-.13-1.09-.39-1.51-.26-.43-.62-.75-1.07-.97-.44-.23-.93-.34-1.48-.34-.78,0-1.45.25-2,.75-.54.5-.85,1.19-.93,2.07h5.87Zm5.17-2.24c.32-.55.78-1.01,1.39-1.36.61-.35,1.31-.52,2.09-.52.84,0,1.59.2,2.26.59.67.4,1.19.95,1.58,1.68.38.71.58,1.54.58,2.49s-.19,1.77-.58,2.51c-.38.73-.92,1.31-1.59,1.71-.67.41-1.41.61-2.24.61s-1.51-.18-2.12-.52c-.6-.35-1.05-.8-1.36-1.34v1.71h-1.54v-12.55h1.54v4.99Zm6.31,2.88c0-.7-.14-1.31-.42-1.83-.28-.52-.67-.92-1.15-1.19-.47-.27-1-.41-1.58-.41s-1.09.14-1.58.42c-.48.27-.86.67-1.15,1.2-.28.52-.42,1.12-.42,1.82s.14,1.32.42,1.85c.29.52.68.92,1.15,1.2.49.27,1.01.41,1.58.41s1.1-.14,1.58-.41c.49-.28.87-.68,1.15-1.2.28-.53.42-1.15.42-1.86Z"/>
      <path class="cls-29" d="m247.98,289.62v-1.41h3.19v12.26h-1.56v-10.85h-1.63Zm18.06,4.76c.43.07.82.24,1.17.53.36.28.64.63.85,1.05.21.42.32.86.32,1.34,0,.6-.15,1.14-.46,1.63-.31.48-.75.85-1.34,1.14-.58.27-1.26.41-2.05.41h-4.41v-11.82h4.24c.8,0,1.49.14,2.05.41.57.26.99.62,1.27,1.07.28.45.42.96.42,1.53,0,.7-.19,1.28-.58,1.75-.37.45-.87.78-1.49.98Zm-4.37-.63h2.59c.72,0,1.28-.17,1.68-.51.4-.34.59-.81.59-1.41s-.2-1.07-.59-1.41c-.39-.34-.97-.51-1.71-.51h-2.56v3.83Zm2.73,5.44c.77,0,1.37-.18,1.8-.54.43-.36.64-.86.64-1.51s-.23-1.17-.68-1.54c-.45-.38-1.06-.58-1.82-.58h-2.68v4.17h2.73Zm6.92-9.53c-.29,0-.54-.1-.75-.3s-.31-.45-.31-.75.1-.54.31-.75.45-.3.75-.3.52.1.71.3c.2.2.31.45.31.75s-.1.54-.31.75c-.19.2-.43.3-.71.3Zm.75,1.51v9.29h-1.54v-9.29h1.54Zm7.16-.17c1.13,0,2.05.34,2.75,1.03.7.68,1.05,1.66,1.05,2.95v5.48h-1.53v-5.26c0-.93-.23-1.63-.7-2.12-.46-.5-1.1-.75-1.9-.75s-1.46.25-1.95.76c-.48.51-.71,1.25-.71,2.22v5.14h-1.54v-9.29h1.54v1.32c.31-.48.72-.84,1.24-1.1.53-.26,1.11-.39,1.75-.39Zm5.74,4.78c0-.95.19-1.78.58-2.49.38-.72.91-1.28,1.58-1.68.68-.4,1.43-.59,2.26-.59s1.52.18,2.12.52c.6.35,1.05.79,1.34,1.32v-1.7h1.56v9.29h-1.56v-1.73c-.3.54-.76,1-1.37,1.36-.6.35-1.3.52-2.1.52s-1.57-.2-2.24-.61c-.67-.41-1.19-.98-1.58-1.71-.39-.74-.58-1.57-.58-2.51Zm7.87.02c0-.7-.14-1.31-.42-1.83-.28-.52-.67-.92-1.15-1.19-.47-.28-1-.42-1.58-.42s-1.1.14-1.58.41-.85.67-1.14,1.19c-.28.52-.42,1.13-.42,1.83s.14,1.33.42,1.86c.28.52.66.92,1.14,1.2.48.27,1,.41,1.58.41s1.1-.14,1.58-.41c.49-.28.87-.68,1.15-1.2.28-.53.42-1.15.42-1.85Zm5.71-3.12c.27-.53.66-.94,1.15-1.24.51-.29,1.12-.44,1.85-.44v1.59h-.41c-1.73,0-2.6.94-2.6,2.82v5.05h-1.54v-9.29h1.54v1.51Zm12.79-1.51l-5.6,13.67h-1.59l1.83-4.48-3.75-9.19h1.71l2.92,7.53,2.88-7.53h1.59Z"/>
      <path class="cls-29" d="m460.41,297.56c0,.54-.14,1.06-.41,1.56-.27.49-.67.89-1.2,1.22-.52.33-1.15.51-1.88.56v1.37h-.92v-1.37c-1.03-.09-1.86-.42-2.51-.98-.64-.58-.97-1.31-.98-2.19h1.65c.04.48.22.89.53,1.24.32.35.76.57,1.32.66v-4.24c-.76-.19-1.37-.39-1.83-.59-.46-.2-.86-.52-1.19-.95-.33-.43-.49-1.01-.49-1.73,0-.92.32-1.67.95-2.27.64-.6,1.5-.93,2.56-1v-1.41h.92v1.41c.96.08,1.74.39,2.32.93.59.53.93,1.23,1.02,2.09h-1.64c-.06-.4-.23-.75-.53-1.07-.29-.33-.68-.54-1.17-.64v4.14c.75.19,1.35.39,1.82.59.47.19.87.5,1.19.93.33.43.49,1.01.49,1.75Zm-6.34-5.53c0,.55.16.98.49,1.27.33.29.81.54,1.44.73v-3.92c-.59.06-1.06.25-1.41.58-.35.32-.53.76-.53,1.34Zm2.85,7.61c.61-.07,1.09-.29,1.43-.66.35-.37.52-.82.52-1.34,0-.55-.17-.98-.51-1.27-.34-.31-.82-.55-1.44-.73v4Zm15.95-9.77h-5.95v3.87c.26-.36.64-.66,1.15-.88.51-.24,1.06-.36,1.64-.36.94,0,1.7.2,2.29.59.59.38,1.01.89,1.26,1.51.26.61.39,1.26.39,1.95,0,.81-.15,1.54-.46,2.19-.3.64-.77,1.15-1.41,1.53-.62.37-1.4.56-2.32.56-1.19,0-2.15-.3-2.88-.92-.73-.61-1.18-1.42-1.34-2.44h1.51c.15.64.46,1.15.93,1.51.47.36,1.07.54,1.8.54.89,0,1.57-.27,2.02-.8.45-.54.68-1.26.68-2.14s-.23-1.56-.68-2.04c-.45-.49-1.12-.73-2-.73-.6,0-1.12.15-1.58.44-.44.28-.76.67-.97,1.17h-1.46v-6.92h7.38v1.36Zm1.56,4.66c0-1.94.32-3.46.95-4.54.63-1.1,1.74-1.64,3.32-1.64s2.67.55,3.31,1.64c.63,1.09.95,2.6.95,4.54s-.32,3.52-.95,4.61c-.63,1.1-1.74,1.64-3.31,1.64s-2.69-.55-3.32-1.64c-.63-1.1-.95-2.63-.95-4.61Zm7,0c0-.98-.07-1.81-.2-2.49-.12-.69-.39-1.24-.8-1.66-.39-.42-.97-.63-1.73-.63s-1.36.21-1.76.63c-.4.42-.66.97-.8,1.66-.12.68-.19,1.51-.19,2.49s.06,1.87.19,2.56c.14.69.4,1.24.8,1.66.41.42.99.63,1.76.63s1.33-.21,1.73-.63c.41-.42.67-.97.8-1.66.14-.69.2-1.54.2-2.56Zm2.37,0c0-1.94.32-3.46.95-4.54.63-1.1,1.74-1.64,3.32-1.64s2.67.55,3.31,1.64c.63,1.09.95,2.6.95,4.54s-.32,3.52-.95,4.61c-.63,1.1-1.73,1.64-3.31,1.64s-2.69-.55-3.32-1.64c-.63-1.1-.95-2.63-.95-4.61Zm7,0c0-.98-.07-1.81-.2-2.49-.12-.69-.39-1.24-.8-1.66-.4-.42-.97-.63-1.73-.63s-1.36.21-1.76.63c-.4.42-.66.97-.8,1.66-.12.68-.19,1.51-.19,2.49s.06,1.87.19,2.56c.14.69.4,1.24.8,1.66.41.42.99.63,1.76.63s1.33-.21,1.73-.63c.41-.42.67-.97.8-1.66.14-.69.2-1.54.2-2.56Z"/>
      <g>
        <path class="cls-54" d="m297.14,270.01h-6.47l-1.19,3.3h-2.04l5.36-14.74h2.23l5.34,14.74h-2.04l-1.19-3.3Zm-.55-1.57l-2.68-7.49-2.68,7.49h5.36Zm8.23-9.96v9.38c0,1.32.32,2.3.96,2.94.65.64,1.55.96,2.7.96s2.02-.32,2.66-.96c.65-.64.98-1.62.98-2.94v-9.38h1.94v9.36c0,1.23-.25,2.28-.74,3.13-.5.84-1.17,1.46-2.02,1.87-.84.41-1.78.62-2.83.62s-2-.2-2.85-.62c-.84-.41-1.5-1.03-2-1.87-.48-.85-.72-1.89-.72-3.13v-9.36h1.94Zm17.29,0c1.62,0,3.01.3,4.19.91,1.19.6,2.1,1.45,2.72,2.57.64,1.12.96,2.44.96,3.96s-.32,2.84-.96,3.96c-.62,1.11-1.53,1.96-2.72,2.55-1.18.58-2.57.87-4.19.87h-4.62v-14.83h4.62Zm0,13.23c1.91,0,3.38-.5,4.38-1.51,1.01-1.02,1.51-2.45,1.51-4.28s-.51-3.28-1.53-4.32c-1.01-1.04-2.46-1.55-4.36-1.55h-2.68v11.66h2.68Zm18.41-13.23v9.38c0,1.32.32,2.3.96,2.94.65.64,1.55.96,2.7.96s2.02-.32,2.66-.96c.65-.64.98-1.62.98-2.94v-9.38h1.94v9.36c0,1.23-.25,2.28-.74,3.13-.5.84-1.17,1.46-2.02,1.87-.84.41-1.78.62-2.83.62s-2-.2-2.85-.62c-.84-.41-1.5-1.03-2-1.87-.48-.85-.72-1.89-.72-3.13v-9.36h1.94Zm17.38,14.98c-.98,0-1.86-.17-2.64-.51-.77-.36-1.37-.84-1.81-1.45-.44-.62-.67-1.34-.68-2.15h2.06c.07.7.35,1.28.85,1.77.51.47,1.25.7,2.21.7s1.64-.23,2.17-.68c.54-.47.81-1.06.81-1.79,0-.57-.16-1.03-.47-1.38-.31-.35-.7-.62-1.17-.81s-1.1-.38-1.89-.6c-.98-.25-1.77-.51-2.36-.76-.58-.26-1.08-.65-1.51-1.19-.41-.55-.62-1.29-.62-2.21,0-.81.21-1.52.62-2.15.41-.62.99-1.11,1.72-1.45.75-.34,1.61-.51,2.57-.51,1.39,0,2.52.35,3.4,1.04.89.7,1.4,1.62,1.51,2.77h-2.13c-.07-.57-.37-1.06-.89-1.49-.52-.44-1.22-.66-2.08-.66-.81,0-1.47.21-1.98.64-.51.41-.77.99-.77,1.74,0,.54.15.98.45,1.32.31.34.69.6,1.13.79.45.17,1.09.37,1.89.6.98.27,1.77.54,2.36.81.6.26,1.11.66,1.53,1.21.43.54.64,1.28.64,2.21,0,.72-.19,1.4-.57,2.04-.38.64-.95,1.15-1.7,1.55-.75.4-1.64.6-2.66.6Zm12.61-14.98c1.62,0,3.01.3,4.19.91,1.19.6,2.1,1.45,2.72,2.57.64,1.12.96,2.44.96,3.96s-.32,2.84-.96,3.96c-.62,1.11-1.53,1.96-2.72,2.55-1.18.58-2.57.87-4.19.87h-4.62v-14.83h4.62Zm0,13.23c1.91,0,3.38-.5,4.38-1.51,1.01-1.02,1.51-2.45,1.51-4.28s-.51-3.28-1.53-4.32c-1.01-1.04-2.46-1.55-4.36-1.55h-2.68v11.66h2.68Z"/>
        <path class="cls-27" d="m462.71,268.61h-3.79v3.89h-2.65v-3.89h-3.79v-2.45h3.79v-3.89h2.65v3.89h3.79v2.45Zm12,1.88c0,.69-.18,1.35-.54,1.96-.35.6-.87,1.1-1.56,1.5-.68.39-1.49.62-2.42.68v1.62h-1.28v-1.64c-1.34-.12-2.41-.52-3.23-1.2-.82-.7-1.24-1.63-1.26-2.81h3.01c.08.96.57,1.54,1.48,1.74v-3.83c-.96-.24-1.74-.48-2.33-.72-.59-.24-1.1-.63-1.52-1.16-.43-.53-.64-1.26-.64-2.18,0-1.16.41-2.11,1.24-2.85.84-.74,1.92-1.16,3.25-1.26v-1.62h1.28v1.62c1.28.11,2.3.49,3.07,1.16.77.67,1.21,1.59,1.3,2.77h-3.03c-.04-.39-.18-.72-.42-1-.23-.29-.53-.5-.92-.62v3.79c1,.25,1.79.5,2.36.74.59.23,1.1.61,1.52,1.14.43.52.64,1.24.64,2.16Zm-7.38-6.17c0,.44.13.8.4,1.08.27.27.65.49,1.16.66v-3.47c-.48.07-.86.25-1.14.54-.28.29-.42.69-.42,1.18Zm2.85,8.08c.51-.09.9-.3,1.18-.62.29-.32.44-.71.44-1.16s-.14-.79-.42-1.06c-.28-.27-.68-.49-1.2-.66v3.51Zm7.42-.72v-2.2l6.55-9.38h3.27v9.14h1.76v2.45h-1.76v2.85h-2.81v-2.85h-7.01Zm7.2-8.58l-4.11,6.13h4.11v-6.13Zm6.25,8.58v-2.2l6.55-9.38h3.27v9.14h1.76v2.45h-1.76v2.85h-2.8v-2.85h-7.02Zm7.2-8.58l-4.11,6.13h4.11v-6.13Zm6.38,3.93c0-2.31.41-4.12,1.24-5.43.84-1.31,2.23-1.96,4.17-1.96s3.32.65,4.15,1.96c.84,1.31,1.26,3.12,1.26,5.43s-.42,4.15-1.26,5.47c-.83,1.32-2.21,1.98-4.15,1.98s-3.33-.66-4.17-1.98c-.83-1.32-1.24-3.15-1.24-5.47Zm8.06,0c0-.99-.07-1.82-.2-2.48-.12-.68-.37-1.24-.76-1.66-.37-.43-.93-.64-1.68-.64s-1.32.21-1.7.64c-.37.43-.63.98-.76,1.66-.12.67-.18,1.5-.18,2.48s.06,1.87.18,2.57c.12.68.37,1.24.76,1.66.39.41.95.62,1.7.62s1.32-.21,1.7-.62c.39-.43.64-.98.76-1.66.12-.69.18-1.55.18-2.57Z"/>
        <path class="cls-20" d="m330.81,273.19l6.11-15.06"/>
      </g>
      <path class="cls-50" d="m506.48,301.42l-7.3-12.68,14.68.04-7.38,12.64Z"/>
      <rect class="cls-21" x="245.32" y="251.99" width="27.74" height="27.63" shape-rendering="crispEdges"/>
    </g>
    <g class="cls-32">
      <g>
        <path id="a" class="cls-12" d="m131.46,28.43h0c5.14,0,9.31,4.17,9.31,9.31h0c0,5.14-4.17,9.31-9.31,9.31h0c-5.14,0-9.31-4.17-9.31-9.31h0c0-5.14,4.17-9.31,9.31-9.31Z"/>
        <g class="cls-47">
          <g>
            <g>
              <circle class="cls-43" cx="131.46" cy="32.66" r=".76"/>
              <circle class="cls-43" cx="128.92" cy="33.16" r=".76"/>
              <circle class="cls-43" cx="134" cy="33.16" r=".76"/>
              <circle class="cls-43" cx="136.04" cy="35.2" r=".76"/>
              <circle class="cls-43" cx="126.88" cy="35.2" r=".76"/>
            </g>
            <g>
              <circle class="cls-43" cx="131.46" cy="42.82" r=".76"/>
              <circle class="cls-43" cx="128.92" cy="42.32" r=".76"/>
              <circle class="cls-43" cx="134" cy="42.32" r=".76"/>
              <circle class="cls-43" cx="136.04" cy="40.28" r=".76"/>
              <circle class="cls-43" cx="126.88" cy="40.28" r=".76"/>
            </g>
            <circle class="cls-43" cx="136.54" cy="37.74" r=".76"/>
            <circle class="cls-43" cx="126.38" cy="37.74" r=".76"/>
          </g>
        </g>
      </g>
      <g>
        <path id="c" class="cls-14" d="m140.56,37.52h0c5.14,0,9.31,4.17,9.31,9.31h0c0,5.14-4.17,9.31-9.31,9.31h0c-5.14,0-9.31-4.17-9.31-9.31h0c0-5.14,4.17-9.31,9.31-9.31Z"/>
        <g class="cls-46">
          <path class="cls-11" d="m130.38,51.82h19.49v1.73h-19.49v-1.73Zm0-11.7h19.49v1.73h-19.49v-1.73Zm0,3.9h19.49v1.73h-19.49v-1.73Zm0,3.9h19.49v1.73h-19.49v-1.73Z"/>
        </g>
        <g class="cls-23">
          <g>
            <path id="e" class="cls-16" d="m131.24,36.66h10.4v11.26h-10.4v-11.26Z"/>
            <g class="cls-26">
              <g class="cls-28">
                <path class="cls-11" d="m139.91,46.19h.87v.87h-.87v-.87Zm-1.73,0h.87v.87h-.87v-.87Zm-1.73,0h.87v.87h-.87v-.87Zm-1.73,0h.87v.87h-.87v-.87Zm-1.73,0h.87v.87h-.87v-.87Zm6.06-.87h.87v.87h-.87v-.87Zm-1.73,0h.87v.87h-.87v-.87Zm-1.73,0h.87v.87h-.87v-.87Zm-1.73,0h.87v.87h-.87v-.87Zm-1.73,0h.87v.87h-.87v-.87Zm9.53-.87h.87v.87h-.87v-.87Zm-1.73,0h.87v.87h-.87v-.87Zm-1.73,0h.87v.87h-.87v-.87Zm-1.73,0h.87v.87h-.87v-.87Zm-1.73,0h.87v.87h-.87v-.87Zm-1.73,0h.87v.87h-.87v-.87Zm6.06-.87h.87v.87h-.87v-.87Zm-1.73,0h.87v.87h-.87v-.87Zm-1.73,0h.87v.87h-.87v-.87Zm-1.73,0h.87v.87h-.87v-.87Zm-1.73,0h.87v.87h-.87v-.87Zm9.53-.87h.87v.87h-.87v-.87Zm-1.73,0h.87v.87h-.87v-.87Zm-1.73,0h.87v.87h-.87v-.87Zm-1.73,0h.87v.87h-.87v-.87Zm-1.73,0h.87v.87h-.87v-.87Zm-1.73,0h.87v.87h-.87v-.87Zm6.06-.87h.87v.87h-.87v-.87Zm-1.73,0h.87v.87h-.87v-.87Zm-1.73,0h.87v.87h-.87v-.87Zm-1.73,0h.87v.87h-.87v-.87Zm-1.73,0h.87v.87h-.87v-.87Zm7.8-.87h.87v.87h-.87v-.87Zm-1.73,0h.87v.87h-.87v-.87Zm-1.73,0h.87v.87h-.87v-.87Zm-1.73,0h.87v.87h-.87v-.87Zm-1.73,0h.87v.87h-.87v-.87Zm-1.73,0h.87v.87h-.87v-.87Zm7.8-.87h.87v.87h-.87v-.87Zm-1.73,0h.87v.87h-.87v-.87Zm-1.73,0h.87v.87h-.87v-.87Zm-1.73,0h.87v.87h-.87v-.87Zm-1.73,0h.87v.87h-.87v-.87Zm7.8-.87h.87v.87h-.87v-.87Zm-1.73,0h.87v.87h-.87v-.87Zm-1.73,0h.87v.87h-.87v-.87Zm-1.73,0h.87v.87h-.87v-.87Zm-1.73,0h.87v.87h-.87v-.87Zm-1.73,0h.87v.87h-.87v-.87Zm7.8-.87h.87v.87h-.87v-.87Zm-1.73,0h.87v.87h-.87v-.87Zm-1.73,0h.87v.87h-.87v-.87Zm-1.73,0h.87v.87h-.87v-.87Zm-1.73,0h.87v.87h-.87v-.87Zm4.33-.87h.87v.87h-.87v-.87Zm-1.73,0h.87v.87h-.87v-.87Zm-1.73,0h.87v.87h-.87v-.87Zm-1.73,0h.87v.87h-.87v-.87Z"/>
              </g>
            </g>
          </g>
        </g>
      </g>
    </g>
    <g class="cls-2">
      <g>
        <path id="a-3" data-name="a" class="cls-12" d="m132.43,475.48h0c5.14,0,9.31,4.17,9.31,9.31h0c0,5.14-4.17,9.31-9.31,9.31h0c-5.14,0-9.31-4.17-9.31-9.31h0c0-5.14,4.17-9.31,9.31-9.31Z"/>
        <g class="cls-36">
          <g>
            <g>
              <circle class="cls-43" cx="132.43" cy="479.71" r=".76"/>
              <circle class="cls-43" cx="129.89" cy="480.22" r=".76"/>
              <circle class="cls-43" cx="134.97" cy="480.22" r=".76"/>
              <circle class="cls-43" cx="137" cy="482.25" r=".76"/>
              <circle class="cls-43" cx="127.85" cy="482.25" r=".76"/>
            </g>
            <g>
              <circle class="cls-43" cx="132.43" cy="489.88" r=".76"/>
              <circle class="cls-43" cx="129.89" cy="489.37" r=".76"/>
              <circle class="cls-43" cx="134.97" cy="489.37" r=".76"/>
              <circle class="cls-43" cx="137" cy="487.34" r=".76"/>
              <circle class="cls-43" cx="127.85" cy="487.34" r=".76"/>
            </g>
            <circle class="cls-43" cx="137.51" cy="484.8" r=".76"/>
            <circle class="cls-43" cx="127.34" cy="484.8" r=".76"/>
          </g>
        </g>
      </g>
      <g>
        <path id="c-4" data-name="c" class="cls-14" d="m141.52,484.58h0c5.14,0,9.31,4.17,9.31,9.31h0c0,5.14-4.17,9.31-9.31,9.31h0c-5.14,0-9.31-4.17-9.31-9.31h0c0-5.14,4.17-9.31,9.31-9.31Z"/>
        <g class="cls-33">
          <path class="cls-11" d="m131.34,498.87h19.49v1.73h-19.49v-1.73Zm0-11.7h19.49v1.73h-19.49v-1.73Zm0,3.9h19.49v1.73h-19.49v-1.73Zm0,3.9h19.49v1.73h-19.49v-1.73Z"/>
        </g>
        <g class="cls-40">
          <g>
            <path id="e-3" data-name="e" class="cls-16" d="m132.21,483.71h10.4v11.26h-10.4v-11.26Z"/>
            <g class="cls-49">
              <g class="cls-28">
                <path class="cls-11" d="m140.87,493.24h.87v.87h-.87v-.87Zm-1.73,0h.87v.87h-.87v-.87Zm-1.73,0h.87v.87h-.87v-.87Zm-1.73,0h.87v.87h-.87v-.87Zm-1.73,0h.87v.87h-.87v-.87Zm6.06-.87h.87v.87h-.87v-.87Zm-1.73,0h.87v.87h-.87v-.87Zm-1.73,0h.87v.87h-.87v-.87Zm-1.73,0h.87v.87h-.87v-.87Zm-1.73,0h.87v.87h-.87v-.87Zm9.53-.87h.87v.87h-.87v-.87Zm-1.73,0h.87v.87h-.87v-.87Zm-1.73,0h.87v.87h-.87v-.87Zm-1.73,0h.87v.87h-.87v-.87Zm-1.73,0h.87v.87h-.87v-.87Zm-1.73,0h.87v.87h-.87v-.87Zm6.06-.87h.87v.87h-.87v-.87Zm-1.73,0h.87v.87h-.87v-.87Zm-1.73,0h.87v.87h-.87v-.87Zm-1.73,0h.87v.87h-.87v-.87Zm-1.73,0h.87v.87h-.87v-.87Zm9.53-.87h.87v.87h-.87v-.87Zm-1.73,0h.87v.87h-.87v-.87Zm-1.73,0h.87v.87h-.87v-.87Zm-1.73,0h.87v.87h-.87v-.87Zm-1.73,0h.87v.87h-.87v-.87Zm-1.73,0h.87v.87h-.87v-.87Zm6.06-.87h.87v.87h-.87v-.87Zm-1.73,0h.87v.87h-.87v-.87Zm-1.73,0h.87v.87h-.87v-.87Zm-1.73,0h.87v.87h-.87v-.87Zm-1.73,0h.87v.87h-.87v-.87Zm7.8-.87h.87v.87h-.87v-.87Zm-1.73,0h.87v.87h-.87v-.87Zm-1.73,0h.87v.87h-.87v-.87Zm-1.73,0h.87v.87h-.87v-.87Zm-1.73,0h.87v.87h-.87v-.87Zm-1.73,0h.87v.87h-.87v-.87Zm7.8-.87h.87v.87h-.87v-.87Zm-1.73,0h.87v.87h-.87v-.87Zm-1.73,0h.87v.87h-.87v-.87Zm-1.73,0h.87v.87h-.87v-.87Zm-1.73,0h.87v.87h-.87v-.87Zm7.8-.87h.87v.87h-.87v-.87Zm-1.73,0h.87v.87h-.87v-.87Zm-1.73,0h.87v.87h-.87v-.87Zm-1.73,0h.87v.87h-.87v-.87Zm-1.73,0h.87v.87h-.87v-.87Zm-1.73,0h.87v.87h-.87v-.87Zm7.8-.87h.87v.87h-.87v-.87Zm-1.73,0h.87v.87h-.87v-.87Zm-1.73,0h.87v.87h-.87v-.87Zm-1.73,0h.87v.87h-.87v-.87Zm-1.73,0h.87v.87h-.87v-.87Zm4.33-.87h.87v.87h-.87v-.87Zm-1.73,0h.87v.87h-.87v-.87Zm-1.73,0h.87v.87h-.87v-.87Zm-1.73,0h.87v.87h-.87v-.87Z"/>
              </g>
            </g>
          </g>
        </g>
      </g>
    </g>
    <g class="cls-24">
      <path id="a-5" data-name="a" class="cls-13" d="m255.19,251.85h0c5.19,0,9.4,4.21,9.4,9.4h0c0,5.19-4.21,9.4-9.4,9.4h0c-5.19,0-9.4-4.21-9.4-9.4h0c0-5.19,4.21-9.4,9.4-9.4Z"/>
      <g class="cls-35">
        <g>
          <path class="cls-11" d="m250.95,262.84l-.44,1.36-1.33-.51.79,1.19-1.23.73,1.42.12-.2,1.42.98-1.04.98,1.04-.2-1.42,1.42-.12-1.23-.73.79-1.19-1.33.51-.44-1.36Zm7.18,2.46l-.19.58-.57-.22.34.51-.52.31.61.05-.08.61.42-.44.42.44-.08-.6.61-.05-.52-.31.34-.51-.57.22-.19-.58Zm1.15-8.69l-.23.72-.71-.27.42.63-.65.39.75.07-.1.75.52-.55.52.55-.1-.75.75-.07-.65-.39.42-.63-.71.27-.23-.72Zm-3.68,5.04l-.23.72-.71-.27.42.63-.65.39.75.07-.1.75.52-.55.52.55-.1-.75.75-.07-.65-.39.42-.63-.71.27-.23-.72Zm5.47-1.97l-.23.72-.71-.27.42.63-.65.39.75.07-.1.75.52-.55.52.55-.1-.75.75-.07-.65-.39.42-.63-.71.27-.23-.72Zm-1.18,3.18l-.21.52-.56.04.43.37-.13.55.48-.3.48.3-.13-.55.43-.37-.56-.04-.21-.52Z"/>
          <g>
            <path id="c-7" data-name="c" class="cls-13" d="m245.79,251.89h11.37v8.75h-11.37v-8.75Z"/>
            <g class="cls-30">
              <path class="cls-11" d="m245.79,260.99h1.28l10.19-8.08v-1.02h-1.28l-10.19,8.08v1.02Z"/>
            </g>
            <g class="cls-4">
              <path class="cls-11" d="m257.26,260.99h-1.28l-10.19-8.08v-1.02h1.28l10.19,8.08v1.02Z"/>
            </g>
            <g class="cls-53">
              <path class="cls-11" d="m245.79,254.91h11.37v3.06h-11.37v-3.06Z"/>
            </g>
            <g class="cls-31">
              <path class="cls-15" d="m245.79,260.99h.85l3.82-3.03h-.85l-3.82,3.03Zm6.79-6.07h.86l3.82-3.03h-.86l-3.82,3.03Z"/>
            </g>
            <g class="cls-25">
              <path class="cls-11" d="m250.16,251.85h3.06v9.17h-3.06v-9.17Z"/>
            </g>
            <g class="cls-51">
              <path class="cls-15" d="m250.6,251.85h2.19v9.18h-2.19v-9.18Z"/>
            </g>
            <g class="cls-39">
              <path class="cls-15" d="m245.79,255.35h11.47v2.19h-11.47v-2.19Zm11.47,5.64v-.68l-2.97-2.36h-.85l3.82,3.03Zm-11.47-9.1v.68l2.97,2.36h.85l-3.82-3.03Z"/>
            </g>
          </g>
        </g>
      </g>
      <g>
        <path id="e-5" data-name="e" class="cls-14" d="m264.38,261.03h0c5.19,0,9.4,4.21,9.4,9.4h0c0,5.19-4.21,9.4-9.4,9.4h0c-5.19,0-9.4-4.21-9.4-9.4h0c0-5.19,4.21-9.4,9.4-9.4Z"/>
        <g class="cls-44">
          <path class="cls-11" d="m254.1,275.46h19.68v1.75h-19.68v-1.75Zm0-11.81h19.68v1.75h-19.68v-1.75Zm0,3.94h19.68v1.75h-19.68v-1.75Zm0,3.94h19.68v1.75h-19.68v-1.75Z"/>
        </g>
        <g class="cls-17">
          <g>
            <path id="g" class="cls-16" d="m254.97,260.16h10.5v11.37h-10.5v-11.37Z"/>
            <g class="cls-45">
              <g class="cls-28">
                <path class="cls-11" d="m263.72,269.78h.87v.87h-.87v-.87Zm-1.75,0h.87v.87h-.87v-.87Zm-1.75,0h.87v.87h-.87v-.87Zm-1.75,0h.87v.87h-.87v-.87Zm-1.75,0h.87v.87h-.87v-.87Zm6.12-.87h.87v.87h-.87v-.87Zm-1.75,0h.87v.87h-.87v-.87Zm-1.75,0h.87v.87h-.87v-.87Zm-1.75,0h.87v.87h-.87v-.87Zm-1.75,0h.87v.87h-.87v-.87Zm9.62-.87h.87v.87h-.87v-.87Zm-1.75,0h.87v.87h-.87v-.87Zm-1.75,0h.87v.87h-.87v-.87Zm-1.75,0h.87v.87h-.87v-.87Zm-1.75,0h.87v.87h-.87v-.87Zm-1.75,0h.87v.87h-.87v-.87Zm6.12-.87h.87v.87h-.87v-.87Zm-1.75,0h.87v.87h-.87v-.87Zm-1.75,0h.87v.87h-.87v-.87Zm-1.75,0h.87v.87h-.87v-.87Zm-1.75,0h.87v.87h-.87v-.87Zm9.62-.87h.87v.87h-.87v-.87Zm-1.75,0h.87v.87h-.87v-.87Zm-1.75,0h.87v.87h-.87v-.87Zm-1.75,0h.87v.87h-.87v-.87Zm-1.75,0h.87v.87h-.87v-.87Zm-1.75,0h.87v.87h-.87v-.87Zm6.12-.87h.87v.87h-.87v-.87Zm-1.75,0h.87v.87h-.87v-.87Zm-1.75,0h.87v.87h-.87v-.87Zm-1.75,0h.87v.87h-.87v-.87Zm-1.75,0h.87v.87h-.87v-.87Zm7.87-.87h.87v.87h-.87v-.87Zm-1.75,0h.87v.87h-.87v-.87Zm-1.75,0h.87v.87h-.87v-.87Zm-1.75,0h.87v.87h-.87v-.87Zm-1.75,0h.87v.87h-.87v-.87Zm-1.75,0h.87v.87h-.87v-.87Zm7.87-.87h.87v.87h-.87v-.87Zm-1.75,0h.87v.87h-.87v-.87Zm-1.75,0h.87v.87h-.87v-.87Zm-1.75,0h.87v.87h-.87v-.87Zm-1.75,0h.87v.87h-.87v-.87Zm7.87-.87h.87v.87h-.87v-.87Zm-1.75,0h.87v.87h-.87v-.87Zm-1.75,0h.87v.87h-.87v-.87Zm-1.75,0h.87v.87h-.87v-.87Zm-1.75,0h.87v.87h-.87v-.87Zm-1.75,0h.87v.87h-.87v-.87Zm7.87-.87h.87v.87h-.87v-.87Zm-1.75,0h.87v.87h-.87v-.87Zm-1.75,0h.87v.87h-.87v-.87Zm-1.75,0h.87v.87h-.87v-.87Zm-1.75,0h.87v.87h-.87v-.87Zm4.37-.87h.87v.87h-.87v-.87Zm-1.75,0h.87v.87h-.87v-.87Zm-1.75,0h.87v.87h-.87v-.87Zm-1.75,0h.87v.87h-.87v-.87Z"/>
              </g>
            </g>
          </g>
        </g>
      </g>
    </g>
    <g class="cls-42">
      <path id="a-7" data-name="a" class="cls-13" d="m188.58,139.97h0c5.18,0,9.38,4.2,9.38,9.38h0c0,5.18-4.2,9.38-9.38,9.38h0c-5.18,0-9.38-4.2-9.38-9.38h0c0-5.18,4.2-9.38,9.38-9.38Z"/>
      <g class="cls-38">
        <g>
          <path class="cls-13" d="m179.2,140.05h18.76v18.61h-18.76v-18.61Z"/>
          <path class="cls-11" d="m179.2,158.66h2.1l16.66-16.53v-2.08h-2.1l-16.66,16.53v2.08Z"/>
          <path class="cls-11" d="m197.95,158.66h-2.1l-16.66-16.53v-2.08h2.1l16.66,16.53v2.08Z"/>
          <path class="cls-15" d="m181.03,141.43v1.39l4.85,4.82h1.4l-6.25-6.2Zm8.36,6.2h1.4l6.25-6.2h-1.4l-6.25,6.2Zm-9.73,10.12h1.4l6.25-6.2h-1.4l-6.25,6.2Z"/>
          <path class="cls-11" d="m179.2,147.38h18.76v4.36h-18.76v-4.36Z"/>
          <path class="cls-11" d="m186.61,139.97h3.93v18.76h-3.93v-18.76Z"/>
          <path class="cls-15" d="m187.05,139.97h3.05v18.76h-3.05v-18.76Z"/>
          <path class="cls-15" d="m178.74,147.82h19.67v3.49h-19.67v-3.49Zm19.21,10.84v-1.39l-4.85-4.82h-1.4l6.25,6.2Z"/>
        </g>
      </g>
      <g>
        <path id="c-15" data-name="c" class="cls-14" d="m197.73,149.13h0c5.18,0,9.38,4.2,9.38,9.38h0c0,5.18-4.2,9.38-9.38,9.38h0c-5.18,0-9.38-4.2-9.38-9.38h0c0-5.18,4.2-9.38,9.38-9.38Z"/>
        <g class="cls-34">
          <path class="cls-11" d="m187.48,163.52h19.63v1.74h-19.63v-1.74Zm0-11.78h19.63v1.74h-19.63v-1.74Zm0,3.93h19.63v1.74h-19.63v-1.74Zm0,3.93h19.63v1.74h-19.63v-1.74Z"/>
        </g>
        <g class="cls-52">
          <g>
            <path id="e-8" data-name="e" class="cls-16" d="m188.36,148.26h10.47v11.34h-10.47v-11.34Z"/>
            <g class="cls-48">
              <g class="cls-28">
                <path class="cls-11" d="m197.08,157.85h.87v.87h-.87v-.87Zm-1.74,0h.87v.87h-.87v-.87Zm-1.74,0h.87v.87h-.87v-.87Zm-1.74,0h.87v.87h-.87v-.87Zm-1.74,0h.87v.87h-.87v-.87Zm6.11-.87h.87v.87h-.87v-.87Zm-1.74,0h.87v.87h-.87v-.87Zm-1.74,0h.87v.87h-.87v-.87Zm-1.74,0h.87v.87h-.87v-.87Zm-1.74,0h.87v.87h-.87v-.87Zm9.6-.87h.87v.87h-.87v-.87Zm-1.74,0h.87v.87h-.87v-.87Zm-1.74,0h.87v.87h-.87v-.87Zm-1.74,0h.87v.87h-.87v-.87Zm-1.74,0h.87v.87h-.87v-.87Zm-1.74,0h.87v.87h-.87v-.87Zm6.11-.87h.87v.87h-.87v-.87Zm-1.74,0h.87v.87h-.87v-.87Zm-1.74,0h.87v.87h-.87v-.87Zm-1.74,0h.87v.87h-.87v-.87Zm-1.74,0h.87v.87h-.87v-.87Zm9.6-.87h.87v.87h-.87v-.87Zm-1.74,0h.87v.87h-.87v-.87Zm-1.74,0h.87v.87h-.87v-.87Zm-1.74,0h.87v.87h-.87v-.87Zm-1.74,0h.87v.87h-.87v-.87Zm-1.74,0h.87v.87h-.87v-.87Zm6.11-.87h.87v.87h-.87v-.87Zm-1.74,0h.87v.87h-.87v-.87Zm-1.74,0h.87v.87h-.87v-.87Zm-1.74,0h.87v.87h-.87v-.87Zm-1.74,0h.87v.87h-.87v-.87Zm7.85-.87h.87v.87h-.87v-.87Zm-1.74,0h.87v.87h-.87v-.87Zm-1.74,0h.87v.87h-.87v-.87Zm-1.74,0h.87v.87h-.87v-.87Zm-1.74,0h.87v.87h-.87v-.87Zm-1.74,0h.87v.87h-.87v-.87Zm7.85-.87h.87v.87h-.87v-.87Zm-1.74,0h.87v.87h-.87v-.87Zm-1.74,0h.87v.87h-.87v-.87Zm-1.74,0h.87v.87h-.87v-.87Zm-1.74,0h.87v.87h-.87v-.87Zm7.85-.87h.87v.87h-.87v-.87Zm-1.74,0h.87v.87h-.87v-.87Zm-1.74,0h.87v.87h-.87v-.87Zm-1.74,0h.87v.87h-.87v-.87Zm-1.74,0h.87v.87h-.87v-.87Zm-1.74,0h.87v.87h-.87v-.87Zm7.85-.87h.87v.87h-.87v-.87Zm-1.74,0h.87v.87h-.87v-.87Zm-1.74,0h.87v.87h-.87v-.87Zm-1.74,0h.87v.87h-.87v-.87Zm-1.74,0h.87v.87h-.87v-.87Zm4.36-.87h.87v.87h-.87v-.87Zm-1.74,0h.87v.87h-.87v-.87Zm-1.74,0h.87v.87h-.87v-.87Zm-1.74,0h.87v.87h-.87v-.87Z"/>
              </g>
            </g>
          </g>
        </g>
      </g>
    </g>
    <g class="cls-1">
      <path id="a-9" data-name="a" class="cls-13" d="m188.97,364.22h0c5.2,0,9.41,4.21,9.41,9.41h0c0,5.2-4.21,9.41-9.41,9.41h0c-5.2,0-9.41-4.21-9.41-9.41h0c0-5.2,4.21-9.41,9.41-9.41Z"/>
      <g class="cls-3">
        <g>
          <path class="cls-13" d="m179.56,364.3h18.81v18.66h-18.81v-18.66Z"/>
          <path class="cls-11" d="m179.56,382.97h2.1l16.71-16.58v-2.09h-2.1l-16.71,16.58v2.09Z"/>
          <path class="cls-11" d="m198.37,382.97h-2.1l-16.71-16.58v-2.09h2.1l16.71,16.58v2.09Z"/>
          <path class="cls-15" d="m181.4,365.68v1.39l4.87,4.83h1.4l-6.27-6.22Zm8.39,6.22h1.4l6.27-6.22h-1.4l-6.27,6.22Zm-9.76,10.15h1.4l6.27-6.22h-1.4l-6.27,6.22Z"/>
          <path class="cls-11" d="m179.56,371.66h18.81v4.38h-18.81v-4.38Z"/>
          <path class="cls-11" d="m187,364.22h3.94v18.81h-3.94v-18.81Z"/>
          <path class="cls-15" d="m187.44,364.22h3.06v18.81h-3.06v-18.81Z"/>
          <path class="cls-15" d="m179.1,372.09h19.73v3.5h-19.73v-3.5Zm19.27,10.87v-1.39l-4.87-4.83h-1.4l6.27,6.22Z"/>
        </g>
      </g>
      <g>
        <path id="c-18" data-name="c" class="cls-11" d="m198.15,373.41h0c5.2,0,9.41,4.21,9.41,9.41h0c0,5.2-4.21,9.41-9.41,9.41h0c-5.2,0-9.41-4.21-9.41-9.41h0c0-5.2,4.21-9.41,9.41-9.41Z"/>
        <g class="cls-37">
          <path class="cls-10" d="m198.15,387.41c2.53,0,4.59-2.06,4.59-4.59s-2.06-4.59-4.59-4.59-4.59,2.06-4.59,4.59,2.06,4.59,4.59,4.59"/>
        </g>
      </g>
    </g>
  </g>
</svg>