<svg width="16" height="21" viewBox="0 0 16 21" fill="none" xmlns="http://www.w3.org/2000/svg">
<path fill-rule="evenodd" clip-rule="evenodd" d="M1.90628 7.62611C1.73775 7.62611 1.57613 7.69305 1.45696 7.81222C1.3378 7.93138 1.27085 8.09301 1.27085 8.26153V18.4283C1.27085 18.5969 1.3378 18.7585 1.45696 18.8777C1.57613 18.9968 1.73775 19.0638 1.90628 19.0638H13.3439C13.5125 19.0638 13.6741 18.9968 13.7932 18.8777C13.9124 18.7585 13.9794 18.5969 13.9794 18.4283V8.26153C13.9794 8.09301 13.9124 7.93138 13.7932 7.81222C13.6741 7.69305 13.5125 7.62611 13.3439 7.62611H10.8022C10.6337 7.62611 10.4721 7.55916 10.3529 7.43999C10.2338 7.32083 10.1668 7.15921 10.1668 6.99068C10.1668 6.82216 10.2338 6.66053 10.3529 6.54137C10.4721 6.4222 10.6337 6.35526 10.8022 6.35526H13.3439C13.8495 6.35526 14.3344 6.55609 14.6919 6.91359C15.0494 7.27109 15.2502 7.75596 15.2502 8.26153V18.4283C15.2502 18.9339 15.0494 19.4188 14.6919 19.7763C14.3344 20.1338 13.8495 20.3346 13.3439 20.3346H1.90628C1.4007 20.3346 0.915832 20.1338 0.558336 19.7763C0.200839 19.4188 0 18.9339 0 18.4283V8.26153C0 7.75596 0.200839 7.27109 0.558336 6.91359C0.915832 6.55609 1.4007 6.35526 1.90628 6.35526H4.44798C4.6165 6.35526 4.77813 6.4222 4.89729 6.54137C5.01646 6.66053 5.0834 6.82216 5.0834 6.99068C5.0834 7.15921 5.01646 7.32083 4.89729 7.43999C4.77813 7.55916 4.6165 7.62611 4.44798 7.62611H1.90628Z" fill="#505056"/>
<path fill-rule="evenodd" clip-rule="evenodd" d="M7.17456 0.18668C7.23359 0.127505 7.30371 0.0805563 7.3809 0.0485227C7.4581 0.016489 7.54086 0 7.62444 0C7.70802 0 7.79078 0.016489 7.86798 0.0485227C7.94518 0.0805563 8.0153 0.127505 8.07432 0.18668L11.8869 3.99923C12.0062 4.11855 12.0732 4.28038 12.0732 4.44911C12.0732 4.61785 12.0062 4.77968 11.8869 4.899C11.7676 5.01831 11.6057 5.08534 11.437 5.08534C11.2683 5.08534 11.1064 5.01831 10.9871 4.899L8.25987 2.17048V13.3451C8.25987 13.5136 8.19292 13.6752 8.07376 13.7944C7.95459 13.9136 7.79297 13.9805 7.62444 13.9805C7.45592 13.9805 7.29429 13.9136 7.17513 13.7944C7.05596 13.6752 6.98902 13.5136 6.98902 13.3451V2.17048L4.26177 4.899C4.20269 4.95808 4.13255 5.00494 4.05536 5.03691C3.97817 5.06889 3.89544 5.08534 3.81189 5.08534C3.64315 5.08534 3.48132 5.01831 3.36201 4.899C3.30293 4.83992 3.25606 4.76978 3.22409 4.69259C3.19212 4.6154 3.17566 4.53267 3.17566 4.44911C3.17566 4.28038 3.24269 4.11855 3.36201 3.99923L7.17456 0.18668Z" fill="#505056"/>
</svg>
