<svg width="18" height="24" viewBox="0 0 18 24" fill="none" xmlns="http://www.w3.org/2000/svg">
<path fill-rule="evenodd" clip-rule="evenodd" d="M2.18751 8.75131C1.99412 8.75131 1.80866 8.82813 1.67191 8.96488C1.53516 9.10162 1.45834 9.28709 1.45834 9.48048V21.1472C1.45834 21.3406 1.53516 21.5261 1.67191 21.6628C1.80866 21.7996 1.99412 21.8764 2.18751 21.8764H15.3126C15.506 21.8764 15.6914 21.7996 15.8282 21.6628C15.9649 21.5261 16.0418 21.3406 16.0418 21.1472V9.48048C16.0418 9.28709 15.9649 9.10162 15.8282 8.96488C15.6914 8.82813 15.506 8.75131 15.3126 8.75131H12.3959C12.2025 8.75131 12.017 8.67449 11.8803 8.53774C11.7436 8.40099 11.6667 8.21553 11.6667 8.02214C11.6667 7.82875 11.7436 7.64328 11.8803 7.50654C12.017 7.36979 12.2025 7.29297 12.3959 7.29297H15.3126C15.8927 7.29297 16.4491 7.52344 16.8594 7.93368C17.2696 8.34391 17.5001 8.90032 17.5001 9.48048V21.1472C17.5001 21.7274 17.2696 22.2838 16.8594 22.694C16.4491 23.1042 15.8927 23.3347 15.3126 23.3347H2.18751C1.60735 23.3347 1.05095 23.1042 0.640707 22.694C0.230469 22.2838 0 21.7274 0 21.1472V9.48048C0 8.90032 0.230469 8.34391 0.640707 7.93368C1.05095 7.52344 1.60735 7.29297 2.18751 7.29297H5.10419C5.29758 7.29297 5.48305 7.36979 5.61979 7.50654C5.75654 7.64328 5.83336 7.82875 5.83336 8.02214C5.83336 8.21553 5.75654 8.40099 5.61979 8.53774C5.48305 8.67449 5.29758 8.75131 5.10419 8.75131H2.18751Z" fill="#505056"/>
<path fill-rule="evenodd" clip-rule="evenodd" d="M8.23388 0.214221C8.30162 0.146316 8.38208 0.0924409 8.47067 0.0556813C8.55925 0.0189217 8.65422 0 8.75013 0C8.84605 0 8.94101 0.0189217 9.0296 0.0556813C9.11819 0.0924409 9.19865 0.146316 9.26639 0.214221L13.6414 4.58924C13.7783 4.72616 13.8552 4.91186 13.8552 5.1055C13.8552 5.29913 13.7783 5.48483 13.6414 5.62175C13.5045 5.75867 13.3188 5.83559 13.1252 5.83559C12.9315 5.83559 12.7458 5.75867 12.6089 5.62175L9.47931 2.49069V15.3139C9.47931 15.5073 9.40248 15.6927 9.26574 15.8295C9.12899 15.9662 8.94352 16.0431 8.75013 16.0431C8.55675 16.0431 8.37128 15.9662 8.23453 15.8295C8.09779 15.6927 8.02096 15.5073 8.02096 15.3139V2.49069L4.89136 5.62175C4.82357 5.68954 4.74308 5.74332 4.65451 5.78001C4.56593 5.8167 4.47099 5.83559 4.37511 5.83559C4.18148 5.83559 3.99578 5.75867 3.85886 5.62175C3.79106 5.55395 3.73729 5.47347 3.70059 5.38489C3.6639 5.29631 3.64502 5.20137 3.64502 5.1055C3.64502 4.91186 3.72194 4.72616 3.85886 4.58924L8.23388 0.214221Z" fill="#505056"/>
</svg>
