<svg xmlns="http://www.w3.org/2000/svg" width="11" height="9" fill="none"><path fill="#fff" d="M10.101 1.41a4.61 4.61 0 0 1-1.196.334c.42-.251.756-.65.903-1.131-.4.23-.84.398-1.323.503a2.095 2.095 0 0 0-1.512-.65A2.059 2.059 0 0 0 4.915 2.52c0 .167.02.314.063.46A5.888 5.888 0 0 1 .715.822 2.14 2.14 0 0 0 .442 1.85c0 .712.357 1.341.924 1.718a2.434 2.434 0 0 1-.945-.251v.02c0 1.006.714 1.844 1.66 2.033a2.294 2.294 0 0 1-.547.063c-.126 0-.273-.021-.399-.042.273.817 1.03 1.425 1.932 1.425a4.207 4.207 0 0 1-2.562.88c-.168 0-.336 0-.483-.022a5.853 5.853 0 0 0 3.171.922c3.8 0 5.88-3.142 5.88-5.866v-.272A3.766 3.766 0 0 0 10.1 1.409Z"/></svg>