<svg xmlns="http://www.w3.org/2000/svg" width="106" height="146" fill="none"><path fill="#252F46" d="M18.028 146c-5.032 0-8.908-1.292-11.628-3.876-2.584-2.72-3.876-6.528-3.876-11.424s1.292-8.636 3.876-11.22c2.72-2.584 6.596-3.876 11.628-3.876h18.36V32.168h17.136l-29.58 18.156c-3.536 2.176-6.868 3.06-9.996 2.652-3.128-.544-5.78-1.904-7.956-4.08s-3.604-4.828-4.284-7.956c-.68-3.128-.408-6.256.816-9.384s3.672-5.78 7.344-7.956L38.02 6.056c2.992-1.904 6.052-3.332 9.18-4.284C50.464.82 53.864.344 57.4.344c5.168 0 9.18 1.36 12.036 4.08 2.856 2.584 4.284 6.392 4.284 11.424v99.756h16.32c5.032 0 8.84 1.292 11.424 3.876 2.72 2.584 4.08 6.324 4.08 11.22 0 4.896-1.36 8.704-4.08 11.424C98.88 144.708 95.072 146 90.04 146H18.028Z" opacity=".05"/></svg>