<svg xmlns="http://www.w3.org/2000/svg" width="22" height="22" fill="none"><path fill="#88888F" fill-rule="evenodd" d="M11.354.609c-5.81 0-10.52 4.71-10.52 10.52s4.71 10.52 10.52 10.52 10.52-4.71 10.52-10.52S17.164.609 11.354.609Zm-1.09 19.472a8.95 8.95 0 0 1-5.286-2.576 8.958 8.958 0 0 1-2.64-6.376c0-2.168.76-4.22 2.154-5.85.036.43.124.893.102 1.223-.083 1.203-.202 1.956.502 2.972.275.395.342.962.476 1.42.13.448.652.682 1.012.958.726.557 1.421 1.204 2.191 1.694.509.324.826.485.677 1.105-.12.499-.153.806-.411 1.25-.079.136.297 1.008.422 1.133.38.379.756.727 1.17 1.068.64.53-.063 1.218-.369 1.979Zm7.466-2.576a8.953 8.953 0 0 1-4.681 2.482 3.74 3.74 0 0 1 1.107-1.485c.36-.277.809-.81.996-1.232.188-.421.436-.786.687-1.174.357-.551-.88-1.383-1.282-1.557-.903-.392-1.583-.92-2.385-1.485-.572-.403-1.733.21-2.378-.072-.885-.386-1.613-1.057-2.382-1.636-.793-.597-.754-1.293-.754-2.174.621.023 1.505-.172 1.917.327.13.158.578.862.877.612.245-.204-.181-1.024-.263-1.217-.254-.592.576-.823 1.001-1.225.554-.524 1.743-1.346 1.65-1.722-.095-.376-1.19-1.44-1.834-1.274-.096.025-.945.915-1.11 1.055l.014-.872c.002-.184-.343-.372-.327-.49.04-.3.873-.842 1.08-1.08-.145-.091-.64-.516-.79-.454-.362.151-.772.255-1.135.407a2.31 2.31 0 0 0-.034-.361 8.931 8.931 0 0 1 2.292-.665l.712.286.503.597.502.517.439.142.697-.658-.18-.469v-.421c1.378.2 2.68.714 3.82 1.507-.204.018-.428.048-.681.08-.104-.062-.239-.09-.352-.133.33.71.675 1.411 1.024 2.112.374.748 1.204 1.551 1.35 2.342.171.93.052 1.777.146 2.873.09 1.055 1.19 2.254 1.19 2.254s.507.173.93.113a8.962 8.962 0 0 1-2.366 4.15Z" clip-rule="evenodd"/></svg>