<svg xmlns="http://www.w3.org/2000/svg" width="128" height="24" fill="none"><path fill="#EF7420" d="M11.524 3.464a.5.5 0 0 1 .952 0l1.881 5.791a.5.5 0 0 0 .476.346h6.09a.5.5 0 0 1 .294.904l-4.927 3.58a.5.5 0 0 0-.182.559l1.882 5.792a.5.5 0 0 1-.77.559l-4.926-3.58a.5.5 0 0 0-.588 0l-4.927 3.58a.5.5 0 0 1-.77-.56l1.883-5.791a.5.5 0 0 0-.182-.56l-4.927-3.579a.5.5 0 0 1 .294-.904h6.09a.5.5 0 0 0 .476-.346l1.881-5.791ZM37.525 3.464a.5.5 0 0 1 .95 0l1.882 5.791a.5.5 0 0 0 .476.346h6.09a.5.5 0 0 1 .294.904l-4.927 3.58a.5.5 0 0 0-.182.559l1.882 5.792a.5.5 0 0 1-.77.559l-4.926-3.58a.5.5 0 0 0-.588 0l-4.927 3.58a.5.5 0 0 1-.77-.56l1.883-5.791a.5.5 0 0 0-.182-.56l-4.927-3.579a.5.5 0 0 1 .294-.904h6.09a.5.5 0 0 0 .476-.346l1.882-5.791ZM63.525 3.464a.5.5 0 0 1 .95 0l1.882 5.791a.5.5 0 0 0 .476.346h6.09a.5.5 0 0 1 .294.904l-4.927 3.58a.5.5 0 0 0-.182.559l1.882 5.792a.5.5 0 0 1-.77.559l-4.926-3.58a.5.5 0 0 0-.588 0l-4.927 3.58a.5.5 0 0 1-.77-.56l1.883-5.791a.5.5 0 0 0-.182-.56l-4.927-3.579a.5.5 0 0 1 .294-.904h6.09a.5.5 0 0 0 .476-.346l1.882-5.791ZM89.525 3.464a.5.5 0 0 1 .95 0l1.882 5.791a.5.5 0 0 0 .476.346h6.09a.5.5 0 0 1 .294.904l-4.927 3.58a.5.5 0 0 0-.182.559l1.882 5.792a.5.5 0 0 1-.77.559l-4.926-3.58a.5.5 0 0 0-.588 0l-4.927 3.58a.5.5 0 0 1-.77-.56l1.883-5.791a.5.5 0 0 0-.182-.56l-4.927-3.579a.5.5 0 0 1 .294-.904h6.09a.5.5 0 0 0 .476-.346l1.882-5.791ZM115.524 3.464a.5.5 0 0 1 .952 0l1.881 5.791a.5.5 0 0 0 .476.346h6.09a.5.5 0 0 1 .294.904l-4.927 3.58a.5.5 0 0 0-.182.559l1.882 5.792a.5.5 0 0 1-.769.559l-4.927-3.58a.5.5 0 0 0-.588 0l-4.927 3.58a.5.5 0 0 1-.769-.56l1.882-5.791a.5.5 0 0 0-.182-.56l-4.927-3.579a.5.5 0 0 1 .294-.904h6.09a.5.5 0 0 0 .476-.346l1.881-5.791Z"/></svg>