<svg xmlns="http://www.w3.org/2000/svg" width="28" height="28" fill="none" viewBox="0 0 28 28"><path fill="#505056" d="M7.945 0.2555C8.10898 0.0919293 8.33113 4.92082e-05 8.56275 0L19.4373 0C19.6689 4.92082e-05 19.891 0.0919293 20.055 0.2555L27.7445 7.945C27.9081 8.10898 28 8.33113 28 8.56275V19.4373C28 19.6689 27.9081 19.891 27.7445 20.055L20.055 27.7445C19.891 27.9081 19.6689 28 19.4373 28H8.56275C8.33113 28 8.10898 27.9081 7.945 27.7445L0.2555 20.055C0.0919293 19.891 4.92082e-05 19.6689 0 19.4373L0 8.56275C4.92082e-05 8.33113 0.0919293 8.10898 0.2555 7.945L7.945 0.2555ZM8.925 1.75L1.75 8.925V19.075L8.925 26.25H19.075L26.25 19.075V8.925L19.075 1.75H8.925Z"/><path fill="#505056" d="M9.19666 10.1255C9.19427 10.182 9.20346 10.2384 9.22367 10.2913C9.24388 10.3441 9.27468 10.3922 9.31418 10.4327C9.35369 10.4732 9.40105 10.5052 9.45337 10.5267C9.50569 10.5482 9.56185 10.5588 9.61841 10.5578H11.0622C11.3037 10.5578 11.4962 10.36 11.5277 10.1202C11.6852 8.97225 12.4727 8.13575 13.8762 8.13575C15.0767 8.13575 16.1757 8.736 16.1757 10.1797C16.1757 11.291 15.5212 11.802 14.4869 12.579C13.3092 13.4348 12.3764 14.434 12.4429 16.0562L12.4482 16.436C12.45 16.5508 12.4969 16.6603 12.5788 16.7408C12.6606 16.8214 12.7708 16.8665 12.8857 16.8665H14.3049C14.4209 16.8665 14.5322 16.8204 14.6143 16.7384C14.6963 16.6563 14.7424 16.545 14.7424 16.429V16.2452C14.7424 14.9887 15.2202 14.623 16.5099 13.6447C17.5757 12.8345 18.6869 11.935 18.6869 10.0468C18.6869 7.4025 16.4539 6.125 14.0092 6.125C11.7919 6.125 9.36291 7.1575 9.19666 10.1255ZM11.9214 20.2107C11.9214 21.1435 12.6652 21.833 13.6889 21.833C14.7547 21.833 15.4879 21.1435 15.4879 20.2107C15.4879 19.2447 14.7529 18.5658 13.6872 18.5658C12.6652 18.5658 11.9214 19.2447 11.9214 20.2107Z"/></svg>