<svg width="21" height="19" viewBox="0 0 21 19" fill="none" xmlns="http://www.w3.org/2000/svg">
<path fill-rule="evenodd" clip-rule="evenodd" d="M14.3942 1.25481C14.1476 1.25481 13.9035 1.30337 13.6757 1.39772C13.4479 1.49208 13.241 1.63037 13.0666 1.80472C12.8923 1.97906 12.754 2.18603 12.6596 2.41382C12.5653 2.64161 12.5167 2.88575 12.5167 3.13231C12.5167 3.37887 12.5653 3.62301 12.6596 3.8508C12.754 4.07859 12.8923 4.28557 13.0666 4.45991C13.241 4.63425 13.4479 4.77255 13.6757 4.8669C13.9035 4.96126 14.1476 5.00982 14.3942 5.00982C14.8922 5.00982 15.3697 4.81201 15.7218 4.45991C16.0739 4.10781 16.2717 3.63026 16.2717 3.13231C16.2717 2.63437 16.0739 2.15682 15.7218 1.80472C15.3697 1.45262 14.8922 1.25481 14.3942 1.25481ZM11.3276 2.50648C11.4713 1.7991 11.855 1.16314 12.4139 0.706339C12.9728 0.24954 13.6724 0 14.3942 0C15.116 0 15.8156 0.24954 16.3745 0.706339C16.9334 1.16314 17.3172 1.7991 17.4608 2.50648H20.0267V3.75815H17.4608C17.3172 4.46552 16.9334 5.10149 16.3745 5.55829C15.8156 6.01508 15.116 6.26462 14.3942 6.26462C13.6724 6.26462 12.9728 6.01508 12.4139 5.55829C11.855 5.10149 11.4713 4.46552 11.3276 3.75815H0V2.50648H11.3276ZM5.63252 7.51316C5.13457 7.51316 4.65702 7.71097 4.30492 8.06307C3.95282 8.41517 3.75501 8.89272 3.75501 9.39066C3.75501 9.88861 3.95282 10.3662 4.30492 10.7183C4.65702 11.0704 5.13457 11.2682 5.63252 11.2682C6.13046 11.2682 6.60801 11.0704 6.96011 10.7183C7.31221 10.3662 7.51002 9.88861 7.51002 9.39066C7.51002 8.89272 7.31221 8.41517 6.96011 8.06307C6.60801 7.71097 6.13046 7.51316 5.63252 7.51316ZM2.56592 8.76483C2.70956 8.05745 3.09333 7.42149 3.65221 6.96469C4.21109 6.50789 4.91071 6.25835 5.63252 6.25835C6.35433 6.25835 7.05394 6.50789 7.61282 6.96469C8.1717 7.42149 8.55547 8.05745 8.69911 8.76483H20.0267V10.0165H8.69911C8.55547 10.7239 8.1717 11.3598 7.61282 11.8166C7.05394 12.2734 6.35433 12.523 5.63252 12.523C4.91071 12.523 4.21109 12.2734 3.65221 11.8166C3.09333 11.3598 2.70956 10.7239 2.56592 10.0165H0V8.76483H2.56592ZM14.3942 13.7715C13.8963 13.7715 13.4187 13.9693 13.0666 14.3214C12.7145 14.6735 12.5167 15.1511 12.5167 15.649C12.5167 16.147 12.7145 16.6245 13.0666 16.9766C13.4187 17.3287 13.8963 17.5265 14.3942 17.5265C14.8922 17.5265 15.3697 17.3287 15.7218 16.9766C16.0739 16.6245 16.2717 16.147 16.2717 15.649C16.2717 15.1511 16.0739 14.6735 15.7218 14.3214C15.3697 13.9693 14.8922 13.7715 14.3942 13.7715ZM11.3276 15.0232C11.4713 14.3158 11.855 13.6798 12.4139 13.223C12.9728 12.7662 13.6724 12.5167 14.3942 12.5167C15.116 12.5167 15.8156 12.7662 16.3745 13.223C16.9334 13.6798 17.3172 14.3158 17.4608 15.0232H20.0267V16.2748H17.4608C17.3172 16.9822 16.9334 17.6182 16.3745 18.075C15.8156 18.5318 15.116 18.7813 14.3942 18.7813C13.6724 18.7813 12.9728 18.5318 12.4139 18.075C11.855 17.6182 11.4713 16.9822 11.3276 16.2748H0V15.0232H11.3276Z" fill="#333333"/>
</svg>
