<svg width="45" height="423" viewBox="0 0 45 423" fill="none" xmlns="http://www.w3.org/2000/svg">
<line x1="21.8683" y1="31.4121" x2="21.8547" y2="199.701" stroke="#868686" stroke-width="1.71082" stroke-linecap="square" stroke-dasharray="3.42 4.56"/>
<line x1="22.4309" y1="218.402" x2="22.4309" y2="383.712" stroke="#868686" stroke-width="1.68985" stroke-linecap="square" stroke-dasharray="3.38 4.51"/>
<path fill-rule="evenodd" clip-rule="evenodd" d="M23.5 418.257C32.9993 418.257 40.7001 410.556 40.7001 401.057C40.7001 391.557 32.9993 383.857 23.5 383.857C14.0008 383.857 6.30005 391.557 6.30005 401.057C6.30005 410.556 14.0008 418.257 23.5 418.257ZM31.4703 398.277C32.31 397.437 32.31 396.076 31.4703 395.236C30.6307 394.397 29.2694 394.397 28.4298 395.236L21.35 402.316L18.5703 399.536C17.7307 398.697 16.3694 398.697 15.5298 399.536C14.6901 400.376 14.6901 401.737 15.5298 402.577L19.8298 406.877C20.6694 407.717 22.0307 407.717 22.8703 406.877L31.4703 398.277Z" fill="#2CAC40"/>
<path fill-rule="evenodd" clip-rule="evenodd" d="M22.5 226.257C31.9993 226.257 39.7001 218.556 39.7001 209.057C39.7001 199.557 31.9993 191.857 22.5 191.857C13.0008 191.857 5.30005 199.557 5.30005 209.057C5.30005 218.556 13.0008 226.257 22.5 226.257ZM30.4703 206.277C31.31 205.437 31.31 204.076 30.4703 203.236C29.6307 202.397 28.2694 202.397 27.4298 203.236L20.35 210.316L17.5703 207.536C16.7307 206.697 15.3694 206.697 14.5298 207.536C13.6901 208.376 13.6901 209.737 14.5298 210.577L18.8298 214.877C19.6694 215.717 21.0307 215.717 21.8703 214.877L30.4703 206.277Z" fill="#2CAC40"/>
<path fill-rule="evenodd" clip-rule="evenodd" d="M21.5 39.2567C30.9993 39.2567 38.7001 31.556 38.7001 22.0567C38.7001 12.5574 30.9993 4.85669 21.5 4.85669C12.0008 4.85669 4.30005 12.5574 4.30005 22.0567C4.30005 31.556 12.0008 39.2567 21.5 39.2567ZM29.4703 19.277C30.31 18.4373 30.31 17.076 29.4703 16.2364C28.6307 15.3968 27.2694 15.3968 26.4298 16.2364L19.35 23.3161L16.5703 20.5364C15.7307 19.6968 14.3694 19.6968 13.5298 20.5364C12.6901 21.376 12.6901 22.7373 13.5298 23.577L17.8298 27.877C18.6694 28.7166 20.0307 28.7166 20.8703 27.877L29.4703 19.277Z" fill="#2CAC40"/>
</svg>
