<svg xmlns="http://www.w3.org/2000/svg" width="30" height="21" fill="none"><path fill="#88888F" d="m.192 7.022 2.97-5.689a1.699 1.699 0 0 1 2.255-.73L8.28 2.035h2.088L14.401.21a1.693 1.693 0 0 1 1.17-.083l5.97 1.74L24.328.475a1.699 1.699 0 0 1 2.255.73l2.97 5.688a1.69 1.69 0 0 1-.742 2.295l-2.92 1.46-6.545 5.118a1.682 1.682 0 0 1-.632.308l-7 1.75a1.7 1.7 0 0 1-1.606-.445l-4.444-4.444-.01-.01-.014-.016-.014-.015-1.837-2.15L.935 9.318a1.69 1.69 0 0 1-.743-2.295Zm6.1 4.42 4.773-3.471a.725.725 0 0 1 .86.006l1.547 1.16a3.156 3.156 0 0 0 3.768 0l.655-.491a.242.242 0 0 0 .026-.364l-4.727-4.727a.243.243 0 0 0-.17-.07H8.547l-3.435 6.578 1.18 1.379Zm21.993-3.693a.24.24 0 0 0-.016-.186l-2.97-5.688a.243.243 0 0 0-.323-.105L22.62 2.948l3.194 6.117 2.349-1.174a.24.24 0 0 0 .122-.142Zm-17.152 8.605a.242.242 0 0 0 .23.063l7-1.75a.24.24 0 0 0 .09-.044l6.127-4.79-3.43-6.57-5.984-1.744a.243.243 0 0 0-.167.012l-1.367.618c.22.085.42.214.587.381l4.726 4.727a1.692 1.692 0 0 1-.18 2.548l-.655.491a4.614 4.614 0 0 1-5.508 0l-1.118-.838-4.195 3.051 3.844 3.845ZM1.461 7.879a.24.24 0 0 0 .122.141L3.93 9.195l3.194-6.117L4.77 1.9a.243.243 0 0 0-.322.104l-2.97 5.688a.24.24 0 0 0-.016.187Zm14.641 11.965a.723.723 0 0 0 .879.528l3.64-.91c.259-.065.498-.19.7-.365l2.723-2.367a.726.726 0 1 0-.95-1.094l-2.724 2.368a.243.243 0 0 1-.1.052l-3.64.91a.724.724 0 0 0-.528.878Z"/></svg>