<svg xmlns="http://www.w3.org/2000/svg" width="40" height="29" fill="none"><path fill="#fff" d="M6.188 12.548a3.909 3.909 0 0 0 3.905-3.905 3.909 3.909 0 0 0-3.905-3.905 3.909 3.909 0 0 0-3.905 3.905 3.909 3.909 0 0 0 3.905 3.905Zm27.335 0a3.909 3.909 0 0 0 3.905-3.905 3.909 3.909 0 0 0-3.905-3.905 3.909 3.909 0 0 0-3.905 3.905 3.909 3.909 0 0 0 3.905 3.905Zm1.952 1.952H31.57a3.893 3.893 0 0 0-2.752 1.135c2.46 1.348 4.204 3.783 4.583 6.675h4.027a1.95 1.95 0 0 0 1.952-1.952v-1.953a3.909 3.909 0 0 0-3.905-3.905Zm-15.62 0a6.83 6.83 0 0 0 6.834-6.834A6.83 6.83 0 0 0 19.855.833a6.83 6.83 0 0 0-6.833 6.833 6.83 6.83 0 0 0 6.833 6.834Zm4.686 1.953h-.506a9.612 9.612 0 0 1-4.18.976c-1.5 0-2.904-.366-4.18-.976h-.506a7.03 7.03 0 0 0-7.029 7.029v1.757a2.93 2.93 0 0 0 2.93 2.929h17.572a2.93 2.93 0 0 0 2.928-2.93v-1.756a7.03 7.03 0 0 0-7.029-7.03Zm-13.649-.818A3.893 3.893 0 0 0 8.14 14.5H4.235A3.909 3.909 0 0 0 .33 18.405v1.953a1.95 1.95 0 0 0 1.953 1.952h4.02a8.947 8.947 0 0 1 4.59-6.675Z"/></svg>