<svg width="9" height="8" viewBox="0 0 9 8" fill="none" xmlns="http://www.w3.org/2000/svg">
<path d="M4.00134 7.96716C1.79236 7.96716 0.00134277 6.18349 0.00134277 3.98358C0.00134277 1.78367 1.79236 0 4.00134 0C6.21032 0 8.00134 1.78367 8.00134 3.98358C8.00134 6.18349 6.21032 7.96716 4.00134 7.96716ZM4.00134 0.569083C2.10747 0.569083 0.572771 2.09748 0.572771 3.98358C0.572771 5.86969 2.10747 7.39808 4.00134 7.39808C5.89522 7.39808 7.42991 5.86969 7.42991 3.98358C7.42991 2.09748 5.89522 0.569083 4.00134 0.569083Z" fill="#9D9D9D"/>
<path d="M4.00134 1.70724C4.21195 1.70724 4.38257 1.87716 4.38257 2.0869V4.55266C4.38257 4.76241 4.21195 4.93232 4.00134 4.93232C3.79073 4.93232 3.62012 4.76241 3.62012 4.55266V2.0869C3.62012 1.87716 3.79073 1.70724 4.00134 1.70724Z" fill="#9D9D9D"/>
<path d="M4.00134 5.5014C4.21195 5.5014 4.38257 5.67132 4.38257 5.88106C4.38257 6.09081 4.21195 6.26072 4.00134 6.26072C3.79073 6.26072 3.62012 6.09081 3.62012 5.88106C3.62012 5.67132 3.79073 5.5014 4.00134 5.5014Z" fill="#9D9D9D"/>
</svg>
