<svg width="15" height="15" viewBox="0 0 15 15" fill="none" xmlns="http://www.w3.org/2000/svg">
<path d="M7.5 15C3.35816 15 0 11.6418 0 7.5C0 3.35816 3.35816 0 7.5 0C11.6418 0 15 3.35816 15 7.5C15 11.6418 11.6418 15 7.5 15ZM7.5 1.07143C3.94898 1.07143 1.07143 3.94898 1.07143 7.5C1.07143 11.051 3.94898 13.9286 7.5 13.9286C11.051 13.9286 13.9286 11.051 13.9286 7.5C13.9286 3.94898 11.051 1.07143 7.5 1.07143Z" fill="white"/>
<path d="M7.5 3.21423C7.8949 3.21423 8.21479 3.53413 8.21479 3.92903V8.57138C8.21479 8.96627 7.8949 9.28617 7.5 9.28617C7.1051 9.28617 6.7852 8.96627 6.7852 8.57138V3.92903C6.7852 3.53413 7.1051 3.21423 7.5 3.21423Z" fill="white"/>
<path d="M7.5 10.3577C7.8949 10.3577 8.21479 10.6776 8.21479 11.0725C8.21479 11.4674 7.8949 11.7873 7.5 11.7873C7.1051 11.7873 6.7852 11.4674 6.7852 11.0725C6.7852 10.6776 7.1051 10.3577 7.5 10.3577Z" fill="white"/>
</svg>
