<svg width="24" height="21" viewBox="0 0 24 21" fill="none" xmlns="http://www.w3.org/2000/svg">
<path d="M0.423911 10.0196L5.954 12.0836L8.09448 18.9673C8.23144 19.4082 8.77056 19.5712 9.1284 19.2786L12.211 16.7657C12.5341 16.5024 12.9943 16.4893 13.332 16.7344L18.8919 20.7709C19.2747 21.0492 19.817 20.8394 19.913 20.3769L23.9859 0.785558C24.0907 0.280277 23.5942 -0.141243 23.1131 0.0448371L0.417431 8.80013C-0.142649 9.01613 -0.137769 9.80909 0.423911 10.0196ZM7.74952 10.9849L18.5574 4.32828C18.7516 4.209 18.9515 4.47164 18.7847 4.62636L9.86504 12.9176C9.55152 13.2094 9.34928 13.6 9.292 14.0239L8.98816 16.2756C8.94792 16.5762 8.5256 16.6061 8.44264 16.3151L7.27408 12.2091C7.14024 11.7408 7.33528 11.2405 7.74952 10.9849Z" fill="white"/>
</svg>
