<svg width="13" height="11" viewBox="0 0 13 11" fill="none" xmlns="http://www.w3.org/2000/svg">
<path d="M0.223154 5.27446L3.13428 6.36098L4.26106 9.98471C4.33316 10.2168 4.61696 10.3026 4.80534 10.1486L6.42804 8.82571C6.59814 8.68711 6.84042 8.68021 7.01818 8.80924L9.94497 10.9342C10.1465 11.0806 10.432 10.9702 10.4825 10.7267L12.6265 0.41353C12.6817 0.147542 12.4203 -0.0743526 12.1671 0.023603L0.219742 4.63253C-0.0750929 4.74623 -0.072524 5.16366 0.223154 5.27446ZM4.07947 5.7826L9.76889 2.27848C9.87115 2.21569 9.97635 2.35394 9.88854 2.43539L5.19311 6.80002C5.02807 6.95365 4.92161 7.15924 4.89146 7.3824L4.73151 8.56772C4.71033 8.72598 4.48801 8.74169 4.44434 8.58853L3.82919 6.42706C3.75873 6.18053 3.86141 5.91719 4.07947 5.7826Z" fill="#161F35"/>
</svg>
