<svg xmlns="http://www.w3.org/2000/svg" width="108" height="147" fill="none"><path fill="#252F46" d="M21.376 147c-5.984 0-10.336-1.36-13.056-4.08-2.584-2.856-3.876-7.004-3.876-12.444 0-3.808.816-7.208 2.448-10.2 1.768-2.992 4.012-5.916 6.732-8.772l35.7-37.332c5.304-5.712 9.044-10.608 11.22-14.688 2.312-4.08 3.468-8.16 3.468-12.24 0-5.168-1.7-9.044-5.1-11.628-3.4-2.584-8.296-3.876-14.688-3.876-3.264 0-6.732.476-10.404 1.428-3.672.816-7.616 2.312-11.832 4.488-3.672 1.632-7.004 2.108-9.996 1.428-2.856-.68-5.304-2.176-7.344-4.488C2.744 32.284 1.52 29.632.976 26.64c-.408-2.992.068-5.916 1.428-8.772 1.36-2.992 3.808-5.44 7.344-7.344 6.256-3.4 12.716-5.848 19.38-7.344 6.8-1.496 13.6-2.244 20.4-2.244 11.152 0 20.468 1.632 27.948 4.896 7.616 3.264 13.396 8.024 17.34 14.28 3.944 6.12 5.916 13.736 5.916 22.848a53.79 53.79 0 0 1-2.652 16.728c-1.632 5.44-4.352 10.88-8.16 16.32-3.672 5.44-8.636 11.22-14.892 17.34l-33.048 32.64v-9.384h50.388c5.032 0 8.84 1.292 11.424 3.876 2.72 2.584 4.08 6.324 4.08 11.22 0 4.896-1.36 8.704-4.08 11.424C101.208 145.708 97.4 147 92.368 147H21.376Z" opacity=".05"/></svg>