<svg xmlns="http://www.w3.org/2000/svg" width="108" height="150" fill="none"><path fill="#000" d="M50.916 149.244c-6.936 0-13.872-.68-20.808-2.04-6.936-1.36-12.92-3.264-17.952-5.712-4.352-2.04-7.412-4.556-9.18-7.548-1.632-2.992-2.312-6.052-2.04-9.18.272-3.128 1.36-5.916 3.264-8.364 2.04-2.448 4.624-4.08 7.752-4.896 3.264-.952 6.936-.544 11.016 1.224 5.032 2.176 9.656 3.672 13.872 4.488a66.419 66.419 0 0 0 12.648 1.224c4.896 0 8.976-.544 12.24-1.632 3.264-1.088 5.712-2.72 7.344-4.896 1.632-2.312 2.448-5.168 2.448-8.568 0-4.76-1.7-8.228-5.1-10.404-3.264-2.312-8.092-3.468-14.484-3.468H40.92c-5.168 0-9.112-1.292-11.832-3.876-2.72-2.584-4.08-6.256-4.08-11.016s1.36-8.432 4.08-11.016c2.72-2.584 6.664-3.876 11.832-3.876h7.344c3.944 0 7.276-.544 9.996-1.632 2.856-1.088 5.032-2.652 6.528-4.692 1.496-2.176 2.244-4.828 2.244-7.956 0-4.488-1.632-7.888-4.896-10.2-3.128-2.312-7.82-3.468-14.076-3.468-3.808 0-7.684.408-11.628 1.224-3.944.816-8.16 2.244-12.648 4.284-3.536 1.496-6.8 1.836-9.792 1.02-2.856-.816-5.236-2.38-7.14-4.692-1.768-2.448-2.856-5.1-3.264-7.956-.408-2.992.068-5.916 1.428-8.772 1.36-2.856 3.944-5.236 7.752-7.14 5.712-2.856 11.9-5.032 18.564-6.528 6.8-1.496 13.6-2.244 20.4-2.244 10.744 0 19.924 1.564 27.54 4.692s13.396 7.684 17.34 13.668c4.08 5.848 6.12 12.92 6.12 21.216 0 5.44-1.02 10.472-3.06 15.096-2.04 4.624-5.032 8.5-8.976 11.628-3.944 2.992-8.568 5.168-13.872 6.528v-2.856c9.52 1.496 16.932 5.508 22.236 12.036 5.44 6.392 8.16 14.416 8.16 24.072 0 8.704-2.244 16.252-6.732 22.644-4.488 6.392-10.948 11.288-19.38 14.688-8.432 3.264-18.496 4.896-30.192 4.896Z" opacity=".05"/></svg>